<?xml version="1.0" encoding="utf-8"?>
<!-- Generator: Adobe Illustrator 19.0.0, SVG Export Plug-In . SVG Version: 6.00 Build 0)  -->
<svg version="1.1" id="Layer_1" xmlns="http://www.w3.org/2000/svg" xmlns:xlink="http://www.w3.org/1999/xlink" x="0px" y="0px"
	 viewBox="0 0 841.9 595.3" style="enable-background:new 0 0 841.9 595.3;" xml:space="preserve">
<style type="text/css">
	.st0{clip-path:url(#XMLID_617_);fill:url(#XMLID_618_);stroke:#231F20;stroke-miterlimit:10;}
	.st1{fill:#E03B3B;}
	.st2{fill:none;stroke:#A4A3A3;stroke-miterlimit:10;}
	.st3{fill:none;stroke:#231F20;stroke-miterlimit:10;}
	.st4{fill:#515151;}
	.st5{font-family:'Biko';}
	.st6{font-size:11px;}
	.st7{opacity:0.39;}
	.st8{opacity:0.92;fill:url(#XMLID_619_);stroke:#105A77;stroke-miterlimit:10;}
	.st9{fill:none;stroke:#515151;stroke-width:1.5;stroke-miterlimit:10;}
	.st10{fill:none;}
	.st11{fill-rule:evenodd;clip-rule:evenodd;fill:#231F20;}
	.st12{fill:#333333;}
	.st13{fill:#FFFFFF;}
	.st14{fill:#56C4CC;}
	.st15{fill:#E4CE63;}
	.st16{opacity:0.81;}
	.st17{fill:#7ACBF7;}
</style>
<g id="XMLID_615_">
	<defs>
		<rect id="XMLID_354_" width="841.9" height="595.3"/>
	</defs>
	<clipPath id="XMLID_617_">
		<use xlink:href="#XMLID_354_"  style="overflow:visible;"/>
	</clipPath>
	
		<radialGradient id="XMLID_618_" cx="420.945" cy="297.64" r="364.5437" gradientTransform="matrix(9.064770e-011 1.1997 -2.019 5.386421e-011 1021.89 -207.3843)" gradientUnits="userSpaceOnUse">
		<stop  offset="0" style="stop-color:#FFFFFF"/>
		<stop  offset="0.1591" style="stop-color:#FFFFFF"/>
		<stop  offset="0.1688" style="stop-color:#FFFFFF"/>
		<stop  offset="0.2968" style="stop-color:#FBFDFF"/>
		<stop  offset="0.4326" style="stop-color:#EEF8FD"/>
		<stop  offset="0.5719" style="stop-color:#D9F0FB"/>
		<stop  offset="0.7136" style="stop-color:#BBE4F9"/>
		<stop  offset="0.8568" style="stop-color:#95D5F5"/>
		<stop  offset="1" style="stop-color:#67C3F1"/>
	</radialGradient>
	<rect id="XMLID_353_" x="-180" y="-207.4" class="st0" width="1201.9" height="1010"/>
</g>
<path id="XMLID_4_" class="st1" d="M224.6,155.9h-77.2c-3.9,0-7.1-3.2-7.1-7.1v0c0-3.9,3.2-7.1,7.1-7.1h77.2c3.9,0,7.1,3.2,7.1,7.1
	v0C231.7,152.7,228.5,155.9,224.6,155.9z"/>
<path id="XMLID_7_" class="st1" d="M401.7,179.5h-77.2c-3.9,0-7.1-3.2-7.1-7.1v0c0-3.9,3.2-7.1,7.1-7.1h77.2c3.9,0,7.1,3.2,7.1,7.1
	v0C408.8,176.3,405.6,179.5,401.7,179.5z"/>
<path id="XMLID_9_" class="st1" d="M650.7,179.3h-77.2c-3.9,0-7.1-3.2-7.1-7.1v0c0-3.9,3.2-7.1,7.1-7.1h77.2c3.9,0,7.1,3.2,7.1,7.1
	v0C657.8,176.2,654.6,179.3,650.7,179.3z"/>
<path id="XMLID_10_" class="st1" d="M786.7,161.7h-77.2c-3.9,0-7.1-3.2-7.1-7.1v0c0-3.9,3.2-7.1,7.1-7.1h77.2c3.9,0,7.1,3.2,7.1,7.1
	v0C793.8,158.5,790.6,161.7,786.7,161.7z"/>
<line id="XMLID_125_" class="st2" x1="95.8" y1="511.4" x2="95.8" y2="518.2"/>
<line id="XMLID_124_" class="st2" x1="115.6" y1="511.4" x2="115.6" y2="518.2"/>
<line id="XMLID_123_" class="st2" x1="135.4" y1="511.4" x2="135.4" y2="518.2"/>
<line id="XMLID_122_" class="st2" x1="155.2" y1="511.4" x2="155.2" y2="518.2"/>
<line id="XMLID_121_" class="st3" x1="175" y1="511.4" x2="175" y2="518.2"/>
<line id="XMLID_12_" class="st3" x1="76.1" y1="511.4" x2="76.1" y2="518.2"/>
<g id="XMLID_114_">
	<line id="XMLID_119_" class="st2" x1="194.8" y1="511.4" x2="194.8" y2="518.2"/>
	<line id="XMLID_118_" class="st2" x1="214.6" y1="511.4" x2="214.6" y2="518.2"/>
	<line id="XMLID_117_" class="st2" x1="234.4" y1="511.4" x2="234.4" y2="518.2"/>
	<line id="XMLID_116_" class="st2" x1="254.2" y1="511.4" x2="254.2" y2="518.2"/>
	<line id="XMLID_115_" class="st3" x1="274" y1="511.4" x2="274" y2="518.2"/>
</g>
<g id="XMLID_108_">
	<line id="XMLID_113_" class="st2" x1="293.8" y1="511.4" x2="293.8" y2="518.2"/>
	<line id="XMLID_112_" class="st2" x1="313.6" y1="511.4" x2="313.6" y2="518.2"/>
	<line id="XMLID_111_" class="st2" x1="333.4" y1="511.4" x2="333.4" y2="518.2"/>
	<line id="XMLID_110_" class="st2" x1="353.2" y1="511.4" x2="353.2" y2="518.2"/>
	<line id="XMLID_109_" class="st3" x1="373" y1="511.4" x2="373" y2="518.2"/>
</g>
<g id="XMLID_102_">
	<line id="XMLID_107_" class="st2" x1="392.8" y1="511.4" x2="392.8" y2="518.2"/>
	<line id="XMLID_106_" class="st2" x1="412.6" y1="511.4" x2="412.6" y2="518.2"/>
	<line id="XMLID_105_" class="st2" x1="432.4" y1="511.4" x2="432.4" y2="518.2"/>
	<line id="XMLID_104_" class="st2" x1="452.2" y1="511.4" x2="452.2" y2="518.2"/>
	<line id="XMLID_103_" class="st3" x1="472" y1="511.4" x2="472" y2="518.2"/>
</g>
<g id="XMLID_96_">
	<line id="XMLID_101_" class="st2" x1="491.8" y1="511.4" x2="491.8" y2="518.2"/>
	<line id="XMLID_100_" class="st2" x1="511.6" y1="511.4" x2="511.6" y2="518.2"/>
	<line id="XMLID_99_" class="st2" x1="531.4" y1="511.4" x2="531.4" y2="518.2"/>
	<line id="XMLID_98_" class="st2" x1="551.2" y1="511.4" x2="551.2" y2="518.2"/>
	<line id="XMLID_97_" class="st3" x1="571" y1="511.4" x2="571" y2="518.2"/>
</g>
<g id="XMLID_90_">
	<line id="XMLID_95_" class="st2" x1="590.8" y1="511.4" x2="590.8" y2="518.2"/>
	<line id="XMLID_94_" class="st2" x1="610.6" y1="511.4" x2="610.6" y2="518.2"/>
	<line id="XMLID_93_" class="st2" x1="630.4" y1="511.4" x2="630.4" y2="518.2"/>
	<line id="XMLID_92_" class="st2" x1="650.2" y1="511.4" x2="650.2" y2="518.2"/>
	<line id="XMLID_91_" class="st3" x1="670" y1="511.4" x2="670" y2="518.2"/>
</g>
<g id="XMLID_66_">
	<line id="XMLID_89_" class="st2" x1="689.8" y1="511.4" x2="689.8" y2="518.2"/>
	<line id="XMLID_88_" class="st2" x1="709.6" y1="511.4" x2="709.6" y2="518.2"/>
	<line id="XMLID_87_" class="st2" x1="729.4" y1="511.4" x2="729.4" y2="518.2"/>
	<line id="XMLID_86_" class="st2" x1="749.2" y1="511.4" x2="749.2" y2="518.2"/>
	<line id="XMLID_79_" class="st3" x1="769" y1="511.4" x2="769" y2="518.2"/>
</g>
<line id="XMLID_146_" class="st2" x1="58.1" y1="282.6" x2="51.2" y2="282.6"/>
<line id="XMLID_145_" class="st2" x1="58.1" y1="302.4" x2="51.2" y2="302.4"/>
<line id="XMLID_144_" class="st2" x1="58.1" y1="322.2" x2="51.2" y2="322.2"/>
<line id="XMLID_143_" class="st3" x1="58.1" y1="342" x2="51.2" y2="342"/>
<line id="XMLID_142_" class="st3" x1="58.1" y1="262.9" x2="51.2" y2="262.9"/>
<line id="XMLID_134_" class="st2" x1="58.1" y1="362" x2="51.2" y2="362"/>
<line id="XMLID_133_" class="st2" x1="58.1" y1="381.8" x2="51.2" y2="381.8"/>
<line id="XMLID_132_" class="st2" x1="58.1" y1="401.6" x2="51.2" y2="401.6"/>
<line id="XMLID_131_" class="st3" x1="58.1" y1="421.4" x2="51.2" y2="421.4"/>
<line id="XMLID_150_" class="st2" x1="58.1" y1="441.2" x2="51.2" y2="441.2"/>
<line id="XMLID_149_" class="st2" x1="58.1" y1="461" x2="51.2" y2="461"/>
<line id="XMLID_148_" class="st2" x1="58.1" y1="480.8" x2="51.2" y2="480.8"/>
<line id="XMLID_129_" class="st3" x1="58.1" y1="500.6" x2="51.2" y2="500.6"/>
<text id="XMLID_30_" transform="matrix(1 0 0 1 168.9202 533.6061)" class="st4 st5 st6">20</text>
<text id="XMLID_137_" transform="matrix(1 0 0 1 63.8159 533.6063)" class="st4 st5 st6">0 KM</text>
<text id="XMLID_138_" transform="matrix(1 0 0 1 28.9547 504.9398)" class="st4 st5 st6">0 M</text>
<text id="XMLID_139_" transform="matrix(1 0 0 1 28.9547 425.6627)" class="st4 st5 st6">500</text>
<text id="XMLID_128_" transform="matrix(1 0 0 1 25.1161 346.3845)" class="st4 st5 st6">1000</text>
<text id="XMLID_130_" transform="matrix(1 0 0 1 25.1494 267.1065)" class="st4 st5 st6">1500</text>
<text id="XMLID_62_" transform="matrix(1 0 0 1 266.9202 533.6061)" class="st4 st5 st6">40</text>
<text id="XMLID_63_" transform="matrix(1 0 0 1 366.4202 533.6061)" class="st4 st5 st6">60</text>
<text id="XMLID_64_" transform="matrix(1 0 0 1 466.4202 533.6061)" class="st4 st5 st6">80</text>
<text id="XMLID_65_" transform="matrix(1 0 0 1 560.5869 533.6061)" class="st4 st5 st6">100</text>
<text id="XMLID_127_" transform="matrix(1 0 0 1 659.9202 533.6061)" class="st4 st5 st6">120</text>
<text id="XMLID_136_" transform="matrix(1 0 0 1 759.2535 533.6061)" class="st4 st5 st6">140</text>
<g id="XMLID_5_" class="st7">
	<g id="XMLID_80_">
		<line id="XMLID_85_" class="st2" x1="769" y1="421.4" x2="76.1" y2="421.4"/>
		<line id="XMLID_84_" class="st2" x1="769" y1="441.2" x2="76.1" y2="441.2"/>
		<line id="XMLID_83_" class="st2" x1="769" y1="461" x2="76.1" y2="461"/>
		<line id="XMLID_82_" class="st2" x1="769" y1="480.8" x2="76.1" y2="480.8"/>
		<line id="XMLID_81_" class="st3" x1="769" y1="500.6" x2="76.1" y2="500.6"/>
	</g>
	<g id="XMLID_126_">
		<g id="XMLID_18_">
			<line id="XMLID_17_" class="st2" x1="95.8" y1="262.9" x2="95.8" y2="500.6"/>
			<line id="XMLID_19_" class="st2" x1="115.6" y1="262.9" x2="115.6" y2="500.6"/>
			<line id="XMLID_20_" class="st2" x1="135.4" y1="262.9" x2="135.4" y2="500.6"/>
			<line id="XMLID_21_" class="st2" x1="155.2" y1="262.9" x2="155.2" y2="500.6"/>
			<line id="XMLID_22_" class="st3" x1="175" y1="262.9" x2="175" y2="500.6"/>
		</g>
		<g id="XMLID_24_">
			<line id="XMLID_29_" class="st2" x1="194.8" y1="262.9" x2="194.8" y2="500.6"/>
			<line id="XMLID_28_" class="st2" x1="214.6" y1="262.9" x2="214.6" y2="500.6"/>
			<line id="XMLID_27_" class="st2" x1="234.4" y1="262.9" x2="234.4" y2="500.6"/>
			<line id="XMLID_26_" class="st2" x1="254.2" y1="262.9" x2="254.2" y2="500.6"/>
			<line id="XMLID_25_" class="st3" x1="274" y1="262.9" x2="274" y2="500.6"/>
		</g>
		<g id="XMLID_31_">
			<line id="XMLID_36_" class="st2" x1="293.8" y1="262.9" x2="293.8" y2="500.6"/>
			<line id="XMLID_35_" class="st2" x1="313.6" y1="262.9" x2="313.6" y2="500.6"/>
			<line id="XMLID_34_" class="st2" x1="333.4" y1="262.9" x2="333.4" y2="500.6"/>
			<line id="XMLID_33_" class="st2" x1="353.2" y1="262.9" x2="353.2" y2="500.6"/>
			<line id="XMLID_32_" class="st3" x1="373" y1="262.9" x2="373" y2="500.6"/>
		</g>
		<g id="XMLID_38_">
			<line id="XMLID_43_" class="st2" x1="392.8" y1="262.9" x2="392.8" y2="500.6"/>
			<line id="XMLID_42_" class="st2" x1="412.6" y1="262.9" x2="412.6" y2="500.6"/>
			<line id="XMLID_41_" class="st2" x1="432.4" y1="262.9" x2="432.4" y2="500.6"/>
			<line id="XMLID_40_" class="st2" x1="452.2" y1="262.9" x2="452.2" y2="500.6"/>
			<line id="XMLID_39_" class="st3" x1="472" y1="262.9" x2="472" y2="500.6"/>
		</g>
		<g id="XMLID_44_">
			<line id="XMLID_49_" class="st2" x1="491.8" y1="262.9" x2="491.8" y2="500.6"/>
			<line id="XMLID_48_" class="st2" x1="511.6" y1="262.9" x2="511.6" y2="500.6"/>
			<line id="XMLID_47_" class="st2" x1="531.4" y1="262.9" x2="531.4" y2="500.6"/>
			<line id="XMLID_46_" class="st2" x1="551.2" y1="262.9" x2="551.2" y2="500.6"/>
			<line id="XMLID_45_" class="st3" x1="571" y1="262.9" x2="571" y2="500.6"/>
		</g>
		<g id="XMLID_50_">
			<line id="XMLID_55_" class="st2" x1="590.8" y1="262.9" x2="590.8" y2="500.6"/>
			<line id="XMLID_54_" class="st2" x1="610.6" y1="262.9" x2="610.6" y2="500.6"/>
			<line id="XMLID_53_" class="st2" x1="630.4" y1="262.9" x2="630.4" y2="500.6"/>
			<line id="XMLID_52_" class="st2" x1="650.2" y1="262.9" x2="650.2" y2="500.6"/>
			<line id="XMLID_51_" class="st3" x1="670" y1="262.9" x2="670" y2="500.6"/>
		</g>
		<g id="XMLID_56_">
			<line id="XMLID_61_" class="st2" x1="689.8" y1="262.9" x2="689.8" y2="500.6"/>
			<line id="XMLID_60_" class="st2" x1="709.6" y1="262.9" x2="709.6" y2="500.6"/>
			<line id="XMLID_59_" class="st2" x1="729.4" y1="262.9" x2="729.4" y2="500.6"/>
			<line id="XMLID_58_" class="st2" x1="749.2" y1="262.9" x2="749.2" y2="500.6"/>
			<line id="XMLID_57_" class="st3" x1="769" y1="262.9" x2="769" y2="500.6"/>
		</g>
	</g>
	<g id="XMLID_73_">
		<line id="XMLID_78_" class="st2" x1="769" y1="342.2" x2="76.1" y2="342.2"/>
		<line id="XMLID_77_" class="st2" x1="769" y1="362" x2="76.1" y2="362"/>
		<line id="XMLID_76_" class="st2" x1="769" y1="381.8" x2="76.1" y2="381.8"/>
		<line id="XMLID_75_" class="st2" x1="769" y1="401.6" x2="76.1" y2="401.6"/>
		<line id="XMLID_74_" class="st3" x1="769" y1="421.4" x2="76.1" y2="421.4"/>
	</g>
	<g id="XMLID_67_">
		<line id="XMLID_72_" class="st2" x1="769" y1="262.9" x2="76.1" y2="262.9"/>
		<line id="XMLID_71_" class="st2" x1="769" y1="282.7" x2="76.1" y2="282.7"/>
		<line id="XMLID_70_" class="st2" x1="769" y1="302.5" x2="76.1" y2="302.5"/>
		<line id="XMLID_69_" class="st2" x1="769" y1="322.3" x2="76.1" y2="322.3"/>
		<line id="XMLID_68_" class="st3" x1="769" y1="342.1" x2="76.1" y2="342.1"/>
	</g>
	<rect id="XMLID_8_" x="76.1" y="262.9" class="st3" width="692.9" height="237.7"/>
</g>
<linearGradient id="XMLID_619_" gradientUnits="userSpaceOnUse" x1="422.5946" y1="500.579" x2="422.5946" y2="288.4395">
	<stop  offset="0" style="stop-color:#81F5E0"/>
	<stop  offset="0.3239" style="stop-color:#70DCEB"/>
	<stop  offset="0.7519" style="stop-color:#5DBFF7"/>
	<stop  offset="1" style="stop-color:#56B5FB"/>
</linearGradient>
<path id="XMLID_153_" class="st8" d="M76.1,401.6l25.5-25.5l5.6,5.6l5.4-2.3l8.8,9.5l7.3-4.7l32.8,29.8l10.5,20.3l18.5,4.5l10.3-8
	l22.5-16.8l5.8-16.5l14.5-5.8l15.8-6.3l9.3,4.3l15.5-1l69.3-31.5l10.1-11.3h9.7l24.3-11.3l6.7-12.1l18.6-9.9l24.7-4.7l8.7,3.4
	l10.7-22.7h12h13.2l12.1,19.3l16,6.7c0,0,24.7,19.3,25.3,22c0.7,2.7,29.3,34.7,29.3,34.7l26.7,3.3l9.3-8l19.8-13.1h19.8l19.8-11.2
	l13.9-6.4l20.7,3.3l8,3.1l16.8-12.4c0,0,17.1-10.7,19.8-11.3c2.7-0.7,19.8-6.7,19.8-6.7v188.8H76.1V401.6z"/>
<line id="XMLID_37_" class="st9" x1="183.9" y1="165.6" x2="183.9" y2="500.6"/>
<g id="XMLID_199_">
	<g id="XMLID_256_">
		<g id="XMLID_260_">
			<g id="XMLID_296_">
				<g id="XMLID_297_">
					<g id="XMLID_301_">
						<rect id="XMLID_302_" x="72.4" y="220.7" class="st10" width="7.5" height="7"/>
					</g>
					<rect id="XMLID_300_" x="75.7" y="225.9" class="st11" width="0.8" height="1.3"/>
					<rect id="XMLID_299_" x="75.7" y="223.6" class="st11" width="0.8" height="1.3"/>
					<rect id="XMLID_298_" x="75.7" y="221.3" class="st11" width="0.8" height="1.3"/>
				</g>
			</g>
			<g id="XMLID_289_">
				<g id="XMLID_290_">
					<g id="XMLID_294_">
						<rect id="XMLID_295_" x="72.4" y="227.8" class="st10" width="7.5" height="7"/>
					</g>
					<rect id="XMLID_293_" x="75.7" y="233" class="st11" width="0.8" height="1.3"/>
					<rect id="XMLID_292_" x="75.7" y="230.6" class="st11" width="0.8" height="1.3"/>
					<rect id="XMLID_291_" x="75.7" y="228.3" class="st11" width="0.8" height="1.3"/>
				</g>
			</g>
			<g id="XMLID_282_">
				<g id="XMLID_283_">
					<g id="XMLID_287_">
						<rect id="XMLID_288_" x="72.4" y="234.8" class="st10" width="7.5" height="7"/>
					</g>
					<rect id="XMLID_286_" x="75.7" y="240" class="st11" width="0.8" height="1.3"/>
					<rect id="XMLID_285_" x="75.7" y="237.7" class="st11" width="0.8" height="1.3"/>
					<rect id="XMLID_284_" x="75.7" y="235.3" class="st11" width="0.8" height="1.3"/>
				</g>
			</g>
			<g id="XMLID_275_">
				<g id="XMLID_276_">
					<g id="XMLID_280_">
						<rect id="XMLID_281_" x="72.4" y="241.8" class="st10" width="7.5" height="7"/>
					</g>
					<rect id="XMLID_279_" x="75.7" y="247" class="st11" width="0.8" height="1.3"/>
					<rect id="XMLID_278_" x="75.7" y="244.7" class="st11" width="0.8" height="1.3"/>
					<rect id="XMLID_277_" x="75.7" y="242.3" class="st11" width="0.8" height="1.3"/>
				</g>
			</g>
			<g id="XMLID_268_">
				<g id="XMLID_269_">
					<g id="XMLID_273_">
						<rect id="XMLID_274_" x="72.4" y="248.8" class="st10" width="7.5" height="7"/>
					</g>
					<rect id="XMLID_272_" x="75.7" y="254" class="st11" width="0.8" height="1.3"/>
					<rect id="XMLID_271_" x="75.7" y="251.7" class="st11" width="0.8" height="1.3"/>
					<rect id="XMLID_270_" x="75.7" y="249.4" class="st11" width="0.8" height="1.3"/>
				</g>
			</g>
			<g id="XMLID_261_">
				<g id="XMLID_262_">
					<g id="XMLID_266_">
						<rect id="XMLID_267_" x="72.4" y="255.9" class="st10" width="7.5" height="7"/>
					</g>
					<rect id="XMLID_265_" x="75.7" y="261" class="st11" width="0.8" height="1.3"/>
					<rect id="XMLID_264_" x="75.7" y="258.7" class="st11" width="0.8" height="1.3"/>
					<rect id="XMLID_263_" x="75.7" y="256.4" class="st11" width="0.8" height="1.3"/>
				</g>
			</g>
		</g>
	</g>
</g>
<g id="XMLID_120_">
	<g id="XMLID_169_">
		<g id="XMLID_178_">
			<g id="XMLID_226_">
				<g id="XMLID_227_">
					<g id="XMLID_231_">
						<rect id="XMLID_232_" x="744.3" y="220.7" class="st10" width="7.5" height="7"/>
					</g>
					<rect id="XMLID_230_" x="747.6" y="225.9" class="st11" width="0.8" height="1.3"/>
					<rect id="XMLID_229_" x="747.6" y="223.6" class="st11" width="0.8" height="1.3"/>
					<rect id="XMLID_228_" x="747.6" y="221.3" class="st11" width="0.8" height="1.3"/>
				</g>
			</g>
			<g id="XMLID_219_">
				<g id="XMLID_220_">
					<g id="XMLID_224_">
						<rect id="XMLID_225_" x="744.3" y="227.8" class="st10" width="7.5" height="7"/>
					</g>
					<rect id="XMLID_223_" x="747.6" y="233" class="st11" width="0.8" height="1.3"/>
					<rect id="XMLID_222_" x="747.6" y="230.6" class="st11" width="0.8" height="1.3"/>
					<rect id="XMLID_221_" x="747.6" y="228.3" class="st11" width="0.8" height="1.3"/>
				</g>
			</g>
			<g id="XMLID_212_">
				<g id="XMLID_213_">
					<g id="XMLID_217_">
						<rect id="XMLID_218_" x="744.3" y="234.8" class="st10" width="7.5" height="7"/>
					</g>
					<rect id="XMLID_216_" x="747.6" y="240" class="st11" width="0.8" height="1.3"/>
					<rect id="XMLID_215_" x="747.6" y="237.7" class="st11" width="0.8" height="1.3"/>
					<rect id="XMLID_214_" x="747.6" y="235.3" class="st11" width="0.8" height="1.3"/>
				</g>
			</g>
			<g id="XMLID_204_">
				<g id="XMLID_205_">
					<g id="XMLID_210_">
						<rect id="XMLID_211_" x="744.3" y="241.8" class="st10" width="7.5" height="7"/>
					</g>
					<rect id="XMLID_209_" x="747.6" y="247" class="st11" width="0.8" height="1.3"/>
					<rect id="XMLID_208_" x="747.6" y="244.7" class="st11" width="0.8" height="1.3"/>
					<rect id="XMLID_206_" x="747.6" y="242.3" class="st11" width="0.8" height="1.3"/>
				</g>
			</g>
			<g id="XMLID_194_">
				<g id="XMLID_197_">
					<g id="XMLID_202_">
						<rect id="XMLID_203_" x="744.3" y="248.8" class="st10" width="7.5" height="7"/>
					</g>
					<rect id="XMLID_201_" x="747.6" y="254" class="st11" width="0.8" height="1.3"/>
					<rect id="XMLID_200_" x="747.6" y="251.7" class="st11" width="0.8" height="1.3"/>
					<rect id="XMLID_198_" x="747.6" y="249.4" class="st11" width="0.8" height="1.3"/>
				</g>
			</g>
			<g id="XMLID_186_">
				<g id="XMLID_187_">
					<g id="XMLID_192_">
						<rect id="XMLID_193_" x="744.3" y="255.9" class="st10" width="7.5" height="7"/>
					</g>
					<rect id="XMLID_191_" x="747.6" y="261" class="st11" width="0.8" height="1.3"/>
					<rect id="XMLID_190_" x="747.6" y="258.7" class="st11" width="0.8" height="1.3"/>
					<rect id="XMLID_189_" x="747.6" y="256.4" class="st11" width="0.8" height="1.3"/>
				</g>
			</g>
		</g>
	</g>
</g>
<g id="XMLID_433_">
	<path id="XMLID_434_" class="st12" d="M179.5,127c0.5,0,0.9,0.1,1.2,0.2c0.4,0.1,0.7,0.3,0.9,0.5c0.2,0.2,0.4,0.5,0.5,0.8
		c0.1,0.3,0.2,0.6,0.2,0.9c0,0.4,0,0.7-0.1,1c-0.1,0.3-0.2,0.5-0.3,0.7c-0.2,0.2-0.3,0.4-0.6,0.5c-0.2,0.1-0.5,0.2-0.8,0.3
		c0.5,0.2,0.8,0.5,1.1,0.8c0.2,0.3,0.4,0.7,0.4,1.2c0,0.4-0.1,0.7-0.2,1.1c-0.1,0.3-0.2,0.6-0.4,0.9c-0.2,0.3-0.4,0.5-0.6,0.7
		c-0.3,0.2-0.5,0.4-0.8,0.5c-0.3,0.1-0.6,0.2-0.9,0.3c-0.3,0.1-0.7,0.1-1,0.1c-0.5,0-0.9-0.1-1.3-0.2s-0.7-0.3-1-0.5
		s-0.5-0.5-0.7-0.8c-0.2-0.3-0.3-0.7-0.4-1.2l1-0.4c0.1,0,0.2-0.1,0.3-0.1s0.2,0,0.2,0c0.1,0,0.3,0,0.4,0.1c0.1,0.1,0.2,0.1,0.2,0.2
		c0.2,0.4,0.3,0.7,0.6,0.9c0.2,0.2,0.5,0.3,0.9,0.3c0.3,0,0.5,0,0.7-0.1c0.2-0.1,0.4-0.2,0.5-0.4c0.1-0.2,0.3-0.3,0.3-0.6
		c0.1-0.2,0.1-0.4,0.1-0.7c0-0.2,0-0.3-0.1-0.5c-0.1-0.1-0.2-0.3-0.3-0.4c-0.1-0.1-0.4-0.2-0.6-0.2c-0.3-0.1-0.6-0.1-1-0.1l0.2-1.4
		c0.4,0,0.8,0,1.1-0.1c0.3-0.1,0.5-0.2,0.7-0.3c0.2-0.1,0.3-0.3,0.4-0.5c0.1-0.2,0.1-0.4,0.1-0.7c0-0.4-0.1-0.6-0.3-0.8
		c-0.2-0.2-0.5-0.3-0.8-0.3c-0.3,0-0.6,0.1-0.9,0.3c-0.2,0.2-0.4,0.4-0.6,0.7c-0.1,0.2-0.2,0.3-0.3,0.4c-0.1,0.1-0.3,0.1-0.5,0.1
		c0,0-0.1,0-0.1,0c0,0-0.1,0-0.2,0l-1.1-0.2c0.1-0.5,0.3-0.9,0.6-1.3c0.3-0.4,0.6-0.7,0.9-0.9c0.3-0.3,0.7-0.4,1.1-0.6
		C178.6,127.1,179,127,179.5,127z"/>
	<path id="XMLID_436_" class="st12" d="M186,137.5c-0.5,0-0.9-0.1-1.4-0.2s-0.7-0.3-1-0.5c-0.3-0.2-0.5-0.5-0.7-0.8
		c-0.2-0.3-0.2-0.7-0.2-1.1c0-0.3,0-0.6,0.1-0.9c0.1-0.3,0.2-0.5,0.4-0.8s0.4-0.4,0.6-0.6s0.6-0.3,0.9-0.4c-0.4-0.2-0.7-0.4-0.9-0.8
		s-0.3-0.7-0.3-1.1c0-0.4,0.1-0.9,0.3-1.2c0.2-0.4,0.4-0.7,0.8-1c0.3-0.3,0.7-0.5,1.2-0.7c0.4-0.2,0.9-0.2,1.4-0.2
		c0.4,0,0.8,0.1,1.2,0.2c0.4,0.1,0.7,0.3,0.9,0.5c0.3,0.2,0.5,0.5,0.6,0.8c0.1,0.3,0.2,0.6,0.2,1c0,0.6-0.1,1.1-0.4,1.5
		c-0.3,0.4-0.7,0.8-1.3,1c0.5,0.2,0.9,0.5,1.1,0.8c0.2,0.4,0.3,0.8,0.3,1.2c0,0.5-0.1,1-0.3,1.4s-0.5,0.8-0.8,1.1
		c-0.4,0.3-0.8,0.5-1.3,0.7S186.6,137.5,186,137.5z M186.2,135.9c0.3,0,0.5,0,0.7-0.1c0.2-0.1,0.4-0.2,0.5-0.4
		c0.1-0.2,0.2-0.3,0.3-0.5c0.1-0.2,0.1-0.4,0.1-0.7c0-0.2,0-0.4-0.1-0.5c0-0.2-0.1-0.3-0.2-0.4c-0.1-0.1-0.2-0.2-0.4-0.3
		c-0.2-0.1-0.4-0.1-0.6-0.1c-0.3,0-0.6,0-0.8,0.1s-0.4,0.2-0.5,0.4c-0.1,0.2-0.2,0.3-0.3,0.5c-0.1,0.2-0.1,0.4-0.1,0.7
		c0,0.2,0,0.3,0.1,0.5c0,0.2,0.1,0.3,0.2,0.4s0.2,0.2,0.4,0.3C185.8,135.8,186,135.9,186.2,135.9z M186.8,131.3
		c0.3,0,0.5-0.1,0.7-0.2c0.2-0.1,0.3-0.2,0.4-0.4c0.1-0.2,0.2-0.3,0.2-0.5c0-0.2,0.1-0.4,0.1-0.5c0-0.1,0-0.3-0.1-0.4
		s-0.1-0.3-0.2-0.4s-0.2-0.2-0.3-0.2c-0.1-0.1-0.3-0.1-0.5-0.1c-0.3,0-0.5,0-0.6,0.1s-0.3,0.2-0.4,0.3c-0.1,0.1-0.2,0.3-0.3,0.5
		s-0.1,0.4-0.1,0.6c0,0.1,0,0.3,0.1,0.4c0,0.1,0.1,0.3,0.2,0.4c0.1,0.1,0.2,0.2,0.3,0.3C186.4,131.3,186.5,131.3,186.8,131.3z"/>
	<path id="XMLID_440_" class="st12" d="M190.7,136.2c0-0.2,0-0.3,0.1-0.5s0.1-0.3,0.3-0.4c0.1-0.1,0.2-0.2,0.4-0.3
		c0.1-0.1,0.3-0.1,0.5-0.1c0.2,0,0.3,0,0.5,0.1s0.3,0.1,0.4,0.3c0.1,0.1,0.2,0.2,0.3,0.4s0.1,0.3,0.1,0.5s0,0.3-0.1,0.5
		s-0.2,0.3-0.3,0.4c-0.1,0.1-0.2,0.2-0.4,0.3s-0.3,0.1-0.5,0.1c-0.2,0-0.3,0-0.5-0.1c-0.1-0.1-0.3-0.1-0.4-0.3
		c-0.1-0.1-0.2-0.2-0.3-0.4S190.7,136.4,190.7,136.2z M191.3,131.5c0-0.2,0-0.3,0.1-0.5c0.1-0.1,0.1-0.3,0.3-0.4
		c0.1-0.1,0.2-0.2,0.4-0.3s0.3-0.1,0.5-0.1c0.2,0,0.3,0,0.5,0.1c0.1,0.1,0.3,0.1,0.4,0.3c0.1,0.1,0.2,0.2,0.3,0.4
		c0.1,0.1,0.1,0.3,0.1,0.5s0,0.3-0.1,0.5s-0.2,0.3-0.3,0.4c-0.1,0.1-0.2,0.2-0.4,0.3c-0.1,0.1-0.3,0.1-0.5,0.1c-0.2,0-0.3,0-0.5-0.1
		s-0.3-0.1-0.4-0.3c-0.1-0.1-0.2-0.2-0.3-0.4S191.3,131.6,191.3,131.5z"/>
	<path id="XMLID_443_" class="st12" d="M198.7,127c0.5,0,0.9,0.1,1.3,0.3c0.4,0.2,0.7,0.4,1,0.8c0.3,0.3,0.5,0.8,0.6,1.3
		s0.2,1.1,0.2,1.8c0,1.1-0.1,2-0.3,2.8c-0.2,0.8-0.5,1.4-0.9,2c-0.4,0.5-0.9,0.9-1.4,1.2c-0.5,0.3-1.1,0.4-1.7,0.4
		c-0.5,0-0.9-0.1-1.3-0.3c-0.4-0.2-0.7-0.4-1-0.8c-0.3-0.3-0.5-0.8-0.6-1.3c-0.2-0.5-0.2-1.1-0.2-1.8c0-1.1,0.1-2,0.3-2.8
		c0.2-0.8,0.5-1.4,0.9-2c0.4-0.5,0.9-0.9,1.4-1.2S198,127,198.7,127z M197.7,135.8c0.3,0,0.5-0.1,0.8-0.3c0.2-0.2,0.5-0.5,0.6-0.8
		c0.2-0.4,0.3-0.8,0.4-1.4s0.1-1.2,0.1-2c0-0.5,0-0.9-0.1-1.2c-0.1-0.3-0.2-0.6-0.3-0.8s-0.2-0.3-0.4-0.4c-0.1-0.1-0.3-0.1-0.5-0.1
		c-0.3,0-0.6,0.1-0.8,0.3c-0.2,0.2-0.4,0.5-0.6,0.8c-0.2,0.4-0.3,0.9-0.4,1.4c-0.1,0.6-0.1,1.2-0.1,2c0,0.5,0,0.9,0.1,1.2
		s0.2,0.6,0.3,0.8s0.3,0.3,0.4,0.4C197.4,135.7,197.5,135.8,197.7,135.8z"/>
	<path id="XMLID_446_" class="st12" d="M209.6,128c0,0.1-0.1,0.3-0.1,0.4c-0.1,0.1-0.1,0.2-0.3,0.3c-0.1,0.1-0.2,0.2-0.4,0.2
		c-0.2,0-0.4,0.1-0.6,0.1h-2.5l-0.5,1.8c0.2,0,0.4-0.1,0.6-0.1s0.3,0,0.5,0c0.5,0,0.9,0.1,1.3,0.2c0.4,0.1,0.7,0.3,0.9,0.6
		c0.2,0.2,0.4,0.5,0.6,0.9c0.1,0.3,0.2,0.7,0.2,1.1c0,0.6-0.1,1.1-0.3,1.6c-0.2,0.5-0.5,0.9-0.9,1.3c-0.4,0.4-0.9,0.6-1.4,0.8
		s-1.1,0.3-1.7,0.3c-0.3,0-0.6,0-0.9-0.1c-0.3-0.1-0.6-0.2-0.8-0.3c-0.2-0.1-0.5-0.3-0.7-0.4c-0.2-0.2-0.4-0.3-0.5-0.5l0.8-0.9
		c0.1-0.1,0.2-0.2,0.3-0.2s0.2-0.1,0.3-0.1c0.1,0,0.3,0,0.4,0.1s0.2,0.2,0.4,0.2c0.1,0.1,0.3,0.2,0.5,0.2s0.4,0.1,0.7,0.1
		c0.3,0,0.6-0.1,0.9-0.2s0.4-0.3,0.6-0.5c0.2-0.2,0.3-0.4,0.3-0.7c0.1-0.3,0.1-0.5,0.1-0.8c0-0.4-0.1-0.7-0.4-1s-0.6-0.4-1.1-0.4
		c-0.2,0-0.4,0-0.6,0.1c-0.2,0-0.5,0.1-0.7,0.2l-1.2-0.4l1.5-5.1h5.2L209.6,128z"/>
</g>
<g id="XMLID_410_">
	<path id="XMLID_411_" class="st13" d="M162.5,146.2c-0.1,0.1-0.1,0.2-0.2,0.2s-0.1,0.1-0.2,0.1c-0.1,0-0.2,0-0.3-0.1
		s-0.2-0.1-0.3-0.2s-0.3-0.1-0.4-0.2s-0.3-0.1-0.5-0.1c-0.3,0-0.6,0.1-0.8,0.2c-0.2,0.1-0.3,0.3-0.3,0.6c0,0.2,0.1,0.3,0.2,0.4
		c0.1,0.1,0.2,0.2,0.4,0.3c0.2,0.1,0.4,0.1,0.6,0.2c0.2,0.1,0.4,0.1,0.7,0.2c0.2,0.1,0.4,0.2,0.7,0.3c0.2,0.1,0.4,0.2,0.6,0.4
		s0.3,0.4,0.4,0.6c0.1,0.2,0.2,0.5,0.2,0.9c0,0.4-0.1,0.7-0.2,1c-0.1,0.3-0.3,0.6-0.6,0.8c-0.2,0.2-0.5,0.4-0.9,0.6
		c-0.4,0.1-0.8,0.2-1.2,0.2c-0.2,0-0.5,0-0.8-0.1c-0.3-0.1-0.5-0.1-0.8-0.2c-0.2-0.1-0.5-0.2-0.7-0.3c-0.2-0.1-0.4-0.3-0.6-0.4
		l0.5-0.9c0-0.1,0.1-0.1,0.2-0.2c0.1,0,0.2-0.1,0.2-0.1c0.1,0,0.2,0,0.3,0.1c0.1,0.1,0.2,0.1,0.4,0.2c0.1,0.1,0.3,0.2,0.5,0.2
		c0.2,0.1,0.4,0.1,0.6,0.1c0.3,0,0.6-0.1,0.8-0.2s0.3-0.4,0.3-0.7c0-0.2-0.1-0.3-0.2-0.5s-0.2-0.2-0.4-0.3s-0.4-0.1-0.6-0.2
		c-0.2-0.1-0.4-0.1-0.7-0.2c-0.2-0.1-0.4-0.2-0.7-0.3c-0.2-0.1-0.4-0.2-0.6-0.4c-0.2-0.2-0.3-0.4-0.4-0.6s-0.2-0.6-0.2-0.9
		c0-0.3,0.1-0.6,0.2-0.9s0.3-0.5,0.5-0.8c0.2-0.2,0.5-0.4,0.9-0.5c0.3-0.1,0.7-0.2,1.2-0.2c0.2,0,0.5,0,0.7,0.1
		c0.2,0,0.5,0.1,0.7,0.2s0.4,0.2,0.6,0.3c0.2,0.1,0.3,0.2,0.5,0.4L162.5,146.2z"/>
	<path id="XMLID_413_" class="st13" d="M164,154.4v-7.5h1.1c0.1,0,0.2,0,0.3,0.1c0.1,0,0.1,0.1,0.2,0.2l0.1,0.4
		c0.1-0.1,0.2-0.2,0.4-0.3s0.3-0.2,0.4-0.3c0.1-0.1,0.3-0.1,0.5-0.2s0.3-0.1,0.5-0.1c0.3,0,0.6,0.1,0.8,0.2c0.3,0.1,0.5,0.3,0.7,0.6
		c0.2,0.2,0.3,0.6,0.4,0.9c0.1,0.4,0.2,0.8,0.2,1.2c0,0.4-0.1,0.8-0.2,1.2c-0.1,0.4-0.3,0.7-0.5,0.9c-0.2,0.3-0.5,0.5-0.8,0.6
		c-0.3,0.2-0.6,0.2-1,0.2c-0.3,0-0.5,0-0.7-0.1s-0.4-0.2-0.5-0.3v2.2H164z M166.7,148.1c-0.1,0-0.2,0-0.3,0c-0.1,0-0.2,0.1-0.3,0.1
		s-0.2,0.1-0.2,0.2s-0.1,0.1-0.2,0.2v2.4c0.1,0.1,0.3,0.2,0.4,0.3c0.1,0.1,0.3,0.1,0.5,0.1c0.2,0,0.3,0,0.4-0.1
		c0.1-0.1,0.2-0.2,0.3-0.3c0.1-0.1,0.2-0.3,0.2-0.5c0.1-0.2,0.1-0.5,0.1-0.8c0-0.3,0-0.6-0.1-0.8c0-0.2-0.1-0.4-0.2-0.5
		c-0.1-0.1-0.2-0.2-0.3-0.3C167,148.1,166.9,148.1,166.7,148.1z"/>
	<path id="XMLID_416_" class="st13" d="M172.1,144.3v8.2h-1.7v-8.2H172.1z"/>
	<path id="XMLID_418_" class="st13" d="M175.4,145.3c0,0.1,0,0.3-0.1,0.4c-0.1,0.1-0.1,0.2-0.2,0.3s-0.2,0.2-0.3,0.2
		c-0.1,0.1-0.3,0.1-0.4,0.1c-0.1,0-0.3,0-0.4-0.1c-0.1-0.1-0.2-0.1-0.3-0.2c-0.1-0.1-0.2-0.2-0.2-0.3s-0.1-0.2-0.1-0.4
		c0-0.1,0-0.3,0.1-0.4c0.1-0.1,0.1-0.2,0.2-0.3c0.1-0.1,0.2-0.2,0.3-0.2s0.3-0.1,0.4-0.1c0.1,0,0.3,0,0.4,0.1s0.2,0.1,0.3,0.2
		c0.1,0.1,0.2,0.2,0.2,0.3C175.4,145,175.4,145.2,175.4,145.3z M175.2,146.9v5.7h-1.7v-5.7H175.2z"/>
	<path id="XMLID_421_" class="st13" d="M178.6,152.7c-0.3,0-0.5,0-0.7-0.1c-0.2-0.1-0.4-0.2-0.5-0.3s-0.2-0.3-0.3-0.5
		c-0.1-0.2-0.1-0.4-0.1-0.7V148h-0.5c-0.1,0-0.2,0-0.2-0.1c-0.1-0.1-0.1-0.1-0.1-0.3V147l0.9-0.2l0.3-1.4c0-0.2,0.2-0.3,0.4-0.3h0.9
		v1.7h1.4v1.2h-1.4v2.8c0,0.1,0,0.2,0.1,0.3c0.1,0.1,0.2,0.1,0.3,0.1c0.1,0,0.1,0,0.2,0c0,0,0.1,0,0.1,0c0,0,0.1,0,0.1,0
		s0.1,0,0.1,0c0.1,0,0.1,0,0.1,0c0,0,0.1,0.1,0.1,0.1l0.5,0.8c-0.2,0.2-0.5,0.3-0.7,0.4C179.2,152.6,178.9,152.7,178.6,152.7z"/>
	<path id="XMLID_423_" class="st13" d="M184.3,144.6c0.1,0,0.1,0,0.1,0c0,0,0.1,0,0.1,0.1c0,0,0.1,0.1,0.1,0.1l3.8,4.8
		c0-0.2,0-0.3,0-0.4c0-0.1,0-0.3,0-0.4v-4.2h1.6v8h-1c-0.1,0-0.3,0-0.4-0.1c-0.1,0-0.2-0.1-0.3-0.2l-3.8-4.8c0,0.1,0,0.3,0,0.4
		s0,0.3,0,0.4v4.3h-1.6v-8h1C184.2,144.6,184.2,144.6,184.3,144.6z"/>
	<path id="XMLID_425_" class="st13" d="M195.4,152.6c-0.2,0-0.3,0-0.4-0.1s-0.2-0.1-0.2-0.3l-0.1-0.3c-0.1,0.1-0.3,0.2-0.4,0.3
		c-0.1,0.1-0.3,0.2-0.4,0.2c-0.1,0.1-0.3,0.1-0.5,0.1c-0.2,0-0.3,0-0.5,0c-0.3,0-0.5,0-0.7-0.1c-0.2-0.1-0.4-0.2-0.5-0.3
		c-0.1-0.1-0.3-0.3-0.3-0.5s-0.1-0.4-0.1-0.7c0-0.2,0.1-0.4,0.2-0.6s0.3-0.4,0.5-0.6c0.3-0.2,0.6-0.3,1-0.4c0.4-0.1,1-0.2,1.6-0.2
		V149c0-0.3-0.1-0.6-0.2-0.7s-0.3-0.2-0.6-0.2c-0.2,0-0.4,0-0.5,0.1c-0.1,0-0.2,0.1-0.3,0.1c-0.1,0.1-0.2,0.1-0.3,0.1
		s-0.2,0.1-0.3,0.1c-0.1,0-0.2,0-0.3-0.1c-0.1-0.1-0.1-0.1-0.2-0.2l-0.3-0.5c0.3-0.3,0.7-0.5,1.1-0.7c0.4-0.1,0.9-0.2,1.4-0.2
		c0.3,0,0.7,0.1,0.9,0.2s0.5,0.3,0.7,0.5s0.3,0.4,0.4,0.7c0.1,0.3,0.2,0.6,0.2,0.9v3.6H195.4z M193.4,151.5c0.2,0,0.4,0,0.6-0.1
		c0.2-0.1,0.3-0.2,0.5-0.4v-0.8c-0.3,0-0.6,0-0.8,0.1c-0.2,0-0.4,0.1-0.5,0.2c-0.1,0.1-0.2,0.1-0.3,0.2c0,0.1-0.1,0.2-0.1,0.3
		c0,0.2,0.1,0.3,0.2,0.4S193.2,151.5,193.4,151.5z"/>
	<path id="XMLID_428_" class="st13" d="M197.4,152.6v-5.7h1.1c0.1,0,0.2,0,0.3,0.1c0.1,0,0.1,0.1,0.2,0.2l0.1,0.3
		c0.1-0.1,0.2-0.2,0.3-0.3s0.2-0.2,0.3-0.2s0.2-0.1,0.4-0.1c0.1,0,0.3-0.1,0.5-0.1c0.3,0,0.6,0.1,0.9,0.3c0.2,0.2,0.4,0.4,0.5,0.7
		c0.1-0.2,0.2-0.3,0.3-0.5c0.1-0.1,0.3-0.2,0.4-0.3c0.2-0.1,0.3-0.1,0.5-0.2s0.4-0.1,0.5-0.1c0.3,0,0.6,0,0.9,0.1s0.5,0.2,0.6,0.4
		s0.3,0.4,0.4,0.7s0.1,0.6,0.1,0.9v3.6h-1.7v-3.6c0-0.6-0.3-0.9-0.8-0.9c-0.2,0-0.4,0.1-0.6,0.2c-0.2,0.2-0.2,0.4-0.2,0.7v3.6h-1.7
		v-3.6c0-0.3-0.1-0.6-0.2-0.7s-0.3-0.2-0.6-0.2c-0.2,0-0.3,0-0.4,0.1c-0.1,0.1-0.3,0.2-0.4,0.3v4.1H197.4z"/>
	<path id="XMLID_430_" class="st13" d="M209.3,146.8c0.4,0,0.7,0.1,1,0.2c0.3,0.1,0.6,0.3,0.8,0.5s0.4,0.5,0.5,0.8s0.2,0.7,0.2,1.1
		c0,0.1,0,0.2,0,0.3c0,0.1,0,0.1-0.1,0.2c0,0-0.1,0.1-0.1,0.1c0,0-0.1,0-0.2,0h-3.3c0.1,0.5,0.2,0.8,0.4,1c0.2,0.2,0.5,0.3,0.9,0.3
		c0.2,0,0.4,0,0.5-0.1c0.1,0,0.3-0.1,0.4-0.2s0.2-0.1,0.3-0.2c0.1,0,0.2-0.1,0.3-0.1c0.1,0,0.2,0,0.3,0.1l0.5,0.6
		c-0.2,0.2-0.4,0.4-0.6,0.5c-0.2,0.1-0.4,0.2-0.6,0.3c-0.2,0.1-0.4,0.1-0.6,0.1c-0.2,0-0.4,0-0.6,0c-0.4,0-0.8-0.1-1.1-0.2
		c-0.4-0.1-0.7-0.3-0.9-0.6s-0.5-0.6-0.6-1s-0.2-0.8-0.2-1.3c0-0.4,0.1-0.7,0.2-1.1c0.1-0.3,0.3-0.6,0.6-0.9
		c0.2-0.3,0.5-0.5,0.9-0.6S208.8,146.8,209.3,146.8z M209.3,148c-0.3,0-0.6,0.1-0.8,0.3c-0.2,0.2-0.3,0.5-0.4,0.8h2.1
		c0-0.1,0-0.3-0.1-0.4c0-0.1-0.1-0.2-0.2-0.3c-0.1-0.1-0.2-0.2-0.3-0.2S209.5,148,209.3,148z"/>
</g>
<g id="XMLID_356_">
	<path id="XMLID_357_" class="st13" d="M341.2,169.8c-0.1,0.1-0.1,0.2-0.2,0.2s-0.1,0.1-0.2,0.1c-0.1,0-0.2,0-0.3-0.1
		s-0.2-0.1-0.3-0.2s-0.3-0.1-0.4-0.2s-0.3-0.1-0.5-0.1c-0.3,0-0.6,0.1-0.8,0.2c-0.2,0.1-0.3,0.3-0.3,0.6c0,0.2,0.1,0.3,0.2,0.4
		c0.1,0.1,0.2,0.2,0.4,0.3c0.2,0.1,0.4,0.1,0.6,0.2c0.2,0.1,0.4,0.1,0.7,0.2c0.2,0.1,0.4,0.2,0.7,0.3c0.2,0.1,0.4,0.2,0.6,0.4
		s0.3,0.4,0.4,0.6c0.1,0.2,0.2,0.5,0.2,0.9c0,0.4-0.1,0.7-0.2,1c-0.1,0.3-0.3,0.6-0.6,0.8c-0.2,0.2-0.5,0.4-0.9,0.6
		c-0.4,0.1-0.8,0.2-1.2,0.2c-0.2,0-0.5,0-0.8-0.1c-0.3-0.1-0.5-0.1-0.8-0.2c-0.2-0.1-0.5-0.2-0.7-0.3c-0.2-0.1-0.4-0.3-0.6-0.4
		l0.5-0.9c0-0.1,0.1-0.1,0.2-0.2c0.1,0,0.2-0.1,0.2-0.1c0.1,0,0.2,0,0.3,0.1c0.1,0.1,0.2,0.1,0.4,0.2c0.1,0.1,0.3,0.2,0.5,0.2
		c0.2,0.1,0.4,0.1,0.6,0.1c0.3,0,0.6-0.1,0.8-0.2s0.3-0.4,0.3-0.7c0-0.2-0.1-0.3-0.2-0.5s-0.2-0.2-0.4-0.3s-0.4-0.1-0.6-0.2
		c-0.2-0.1-0.4-0.1-0.7-0.2c-0.2-0.1-0.4-0.2-0.7-0.3c-0.2-0.1-0.4-0.2-0.6-0.4c-0.2-0.2-0.3-0.4-0.4-0.6s-0.2-0.6-0.2-0.9
		c0-0.3,0.1-0.6,0.2-0.9s0.3-0.5,0.5-0.8c0.2-0.2,0.5-0.4,0.9-0.5c0.3-0.1,0.7-0.2,1.2-0.2c0.2,0,0.5,0,0.7,0.1
		c0.2,0,0.5,0.1,0.7,0.2s0.4,0.2,0.6,0.3c0.2,0.1,0.3,0.2,0.5,0.4L341.2,169.8z"/>
	<path id="XMLID_359_" class="st13" d="M342.7,178v-7.5h1.1c0.1,0,0.2,0,0.3,0.1c0.1,0,0.1,0.1,0.2,0.2l0.1,0.4
		c0.1-0.1,0.2-0.2,0.4-0.3s0.3-0.2,0.4-0.3c0.1-0.1,0.3-0.1,0.5-0.2s0.3-0.1,0.5-0.1c0.3,0,0.6,0.1,0.8,0.2c0.3,0.1,0.5,0.3,0.7,0.6
		c0.2,0.2,0.3,0.6,0.4,0.9c0.1,0.4,0.2,0.8,0.2,1.2c0,0.4-0.1,0.8-0.2,1.2c-0.1,0.4-0.3,0.7-0.5,0.9c-0.2,0.3-0.5,0.5-0.8,0.6
		c-0.3,0.2-0.6,0.2-1,0.2c-0.3,0-0.5,0-0.7-0.1s-0.4-0.2-0.5-0.3v2.2H342.7z M345.5,171.7c-0.1,0-0.2,0-0.3,0
		c-0.1,0-0.2,0.1-0.3,0.1s-0.2,0.1-0.2,0.2s-0.1,0.1-0.2,0.2v2.4c0.1,0.1,0.3,0.2,0.4,0.3c0.1,0.1,0.3,0.1,0.5,0.1
		c0.2,0,0.3,0,0.4-0.1c0.1-0.1,0.2-0.2,0.3-0.3c0.1-0.1,0.2-0.3,0.2-0.5c0.1-0.2,0.1-0.5,0.1-0.8c0-0.3,0-0.6-0.1-0.8
		c0-0.2-0.1-0.4-0.2-0.5c-0.1-0.1-0.2-0.2-0.3-0.3C345.8,171.7,345.6,171.7,345.5,171.7z"/>
	<path id="XMLID_362_" class="st13" d="M350.8,168v8.2h-1.7V168H350.8z"/>
	<path id="XMLID_364_" class="st13" d="M354.2,168.9c0,0.1,0,0.3-0.1,0.4c-0.1,0.1-0.1,0.2-0.2,0.3s-0.2,0.2-0.3,0.2
		c-0.1,0.1-0.3,0.1-0.4,0.1c-0.1,0-0.3,0-0.4-0.1c-0.1-0.1-0.2-0.1-0.3-0.2c-0.1-0.1-0.2-0.2-0.2-0.3s-0.1-0.2-0.1-0.4
		c0-0.1,0-0.3,0.1-0.4c0.1-0.1,0.1-0.2,0.2-0.3c0.1-0.1,0.2-0.2,0.3-0.2s0.3-0.1,0.4-0.1c0.1,0,0.3,0,0.4,0.1s0.2,0.1,0.3,0.2
		c0.1,0.1,0.2,0.2,0.2,0.3C354.1,168.7,354.2,168.8,354.2,168.9z M354,170.5v5.7h-1.7v-5.7H354z"/>
	<path id="XMLID_367_" class="st13" d="M357.3,176.3c-0.3,0-0.5,0-0.7-0.1c-0.2-0.1-0.4-0.2-0.5-0.3s-0.2-0.3-0.3-0.5
		c-0.1-0.2-0.1-0.4-0.1-0.7v-2.9h-0.5c-0.1,0-0.2,0-0.2-0.1c-0.1-0.1-0.1-0.1-0.1-0.3v-0.7l0.9-0.2l0.3-1.4c0-0.2,0.2-0.3,0.4-0.3
		h0.9v1.7h1.4v1.2h-1.4v2.8c0,0.1,0,0.2,0.1,0.3c0.1,0.1,0.2,0.1,0.3,0.1c0.1,0,0.1,0,0.2,0c0,0,0.1,0,0.1,0c0,0,0.1,0,0.1,0
		s0.1,0,0.1,0c0.1,0,0.1,0,0.1,0c0,0,0.1,0.1,0.1,0.1l0.5,0.8c-0.2,0.2-0.5,0.3-0.7,0.4C357.9,176.2,357.6,176.3,357.3,176.3z"/>
	<path id="XMLID_369_" class="st13" d="M363,168.2c0.1,0,0.1,0,0.1,0c0,0,0.1,0,0.1,0.1c0,0,0.1,0.1,0.1,0.1l3.8,4.8
		c0-0.2,0-0.3,0-0.4c0-0.1,0-0.3,0-0.4v-4.2h1.6v8h-1c-0.1,0-0.3,0-0.4-0.1c-0.1,0-0.2-0.1-0.3-0.2l-3.8-4.8c0,0.1,0,0.3,0,0.4
		s0,0.3,0,0.4v4.3h-1.6v-8h1C362.9,168.2,363,168.2,363,168.2z"/>
	<path id="XMLID_371_" class="st13" d="M374.1,176.2c-0.2,0-0.3,0-0.4-0.1s-0.2-0.1-0.2-0.3l-0.1-0.3c-0.1,0.1-0.3,0.2-0.4,0.3
		c-0.1,0.1-0.3,0.2-0.4,0.2c-0.1,0.1-0.3,0.1-0.5,0.1c-0.2,0-0.3,0-0.5,0c-0.3,0-0.5,0-0.7-0.1c-0.2-0.1-0.4-0.2-0.5-0.3
		c-0.1-0.1-0.3-0.3-0.3-0.5s-0.1-0.4-0.1-0.7c0-0.2,0.1-0.4,0.2-0.6s0.3-0.4,0.5-0.6c0.3-0.2,0.6-0.3,1-0.4c0.4-0.1,1-0.2,1.6-0.2
		v-0.2c0-0.3-0.1-0.6-0.2-0.7s-0.3-0.2-0.6-0.2c-0.2,0-0.4,0-0.5,0.1c-0.1,0-0.2,0.1-0.3,0.1c-0.1,0.1-0.2,0.1-0.3,0.1
		s-0.2,0.1-0.3,0.1c-0.1,0-0.2,0-0.3-0.1c-0.1-0.1-0.1-0.1-0.2-0.2l-0.3-0.5c0.3-0.3,0.7-0.5,1.1-0.7c0.4-0.1,0.9-0.2,1.4-0.2
		c0.3,0,0.7,0.1,0.9,0.2s0.5,0.3,0.7,0.5s0.3,0.4,0.4,0.7c0.1,0.3,0.2,0.6,0.2,0.9v3.6H374.1z M372.2,175.2c0.2,0,0.4,0,0.6-0.1
		c0.2-0.1,0.3-0.2,0.5-0.4v-0.8c-0.3,0-0.6,0-0.8,0.1c-0.2,0-0.4,0.1-0.5,0.2c-0.1,0.1-0.2,0.1-0.3,0.2c0,0.1-0.1,0.2-0.1,0.3
		c0,0.2,0.1,0.3,0.2,0.4S371.9,175.2,372.2,175.2z"/>
	<path id="XMLID_374_" class="st13" d="M376.1,176.2v-5.7h1.1c0.1,0,0.2,0,0.3,0.1c0.1,0,0.1,0.1,0.2,0.2l0.1,0.3
		c0.1-0.1,0.2-0.2,0.3-0.3s0.2-0.2,0.3-0.2s0.2-0.1,0.4-0.1c0.1,0,0.3-0.1,0.5-0.1c0.3,0,0.6,0.1,0.9,0.3c0.2,0.2,0.4,0.4,0.5,0.7
		c0.1-0.2,0.2-0.3,0.3-0.5c0.1-0.1,0.3-0.2,0.4-0.3c0.2-0.1,0.3-0.1,0.5-0.2s0.4-0.1,0.5-0.1c0.3,0,0.6,0,0.9,0.1s0.5,0.2,0.6,0.4
		s0.3,0.4,0.4,0.7s0.1,0.6,0.1,0.9v3.6h-1.7v-3.6c0-0.6-0.3-0.9-0.8-0.9c-0.2,0-0.4,0.1-0.6,0.2c-0.2,0.2-0.2,0.4-0.2,0.7v3.6h-1.7
		v-3.6c0-0.3-0.1-0.6-0.2-0.7s-0.3-0.2-0.6-0.2c-0.2,0-0.3,0-0.4,0.1c-0.1,0.1-0.3,0.2-0.4,0.3v4.1H376.1z"/>
	<path id="XMLID_376_" class="st13" d="M388,170.4c0.4,0,0.7,0.1,1,0.2c0.3,0.1,0.6,0.3,0.8,0.5s0.4,0.5,0.5,0.8s0.2,0.7,0.2,1.1
		c0,0.1,0,0.2,0,0.3c0,0.1,0,0.1-0.1,0.2c0,0-0.1,0.1-0.1,0.1c0,0-0.1,0-0.2,0h-3.3c0.1,0.5,0.2,0.8,0.4,1c0.2,0.2,0.5,0.3,0.9,0.3
		c0.2,0,0.4,0,0.5-0.1c0.1,0,0.3-0.1,0.4-0.2s0.2-0.1,0.3-0.2c0.1,0,0.2-0.1,0.3-0.1c0.1,0,0.2,0,0.3,0.1l0.5,0.6
		c-0.2,0.2-0.4,0.4-0.6,0.5c-0.2,0.1-0.4,0.2-0.6,0.3c-0.2,0.1-0.4,0.1-0.6,0.1c-0.2,0-0.4,0-0.6,0c-0.4,0-0.8-0.1-1.1-0.2
		c-0.4-0.1-0.7-0.3-0.9-0.6s-0.5-0.6-0.6-1s-0.2-0.8-0.2-1.3c0-0.4,0.1-0.7,0.2-1.1c0.1-0.3,0.3-0.6,0.6-0.9
		c0.2-0.3,0.5-0.5,0.9-0.6S387.6,170.4,388,170.4z M388,171.6c-0.3,0-0.6,0.1-0.8,0.3c-0.2,0.2-0.3,0.5-0.4,0.8h2.1
		c0-0.1,0-0.3-0.1-0.4c0-0.1-0.1-0.2-0.2-0.3c-0.1-0.1-0.2-0.2-0.3-0.2S388.2,171.6,388,171.6z"/>
</g>
<g id="XMLID_545_">
	<path id="XMLID_546_" class="st13" d="M588.8,169.6c-0.1,0.1-0.1,0.2-0.2,0.2s-0.1,0.1-0.2,0.1c-0.1,0-0.2,0-0.3-0.1
		c-0.1-0.1-0.2-0.1-0.3-0.2s-0.3-0.1-0.4-0.2c-0.2-0.1-0.3-0.1-0.5-0.1c-0.3,0-0.6,0.1-0.8,0.2c-0.2,0.1-0.3,0.3-0.3,0.6
		c0,0.2,0.1,0.3,0.2,0.4c0.1,0.1,0.2,0.2,0.4,0.3c0.2,0.1,0.4,0.1,0.6,0.2c0.2,0.1,0.4,0.1,0.7,0.2c0.2,0.1,0.4,0.2,0.7,0.3
		c0.2,0.1,0.4,0.2,0.6,0.4s0.3,0.4,0.4,0.6c0.1,0.2,0.2,0.5,0.2,0.9c0,0.4-0.1,0.7-0.2,1c-0.1,0.3-0.3,0.6-0.6,0.8s-0.5,0.4-0.9,0.6
		c-0.4,0.1-0.8,0.2-1.2,0.2c-0.2,0-0.5,0-0.8-0.1c-0.3-0.1-0.5-0.1-0.8-0.2c-0.2-0.1-0.5-0.2-0.7-0.3s-0.4-0.3-0.6-0.4l0.5-0.9
		c0-0.1,0.1-0.1,0.2-0.2c0.1,0,0.2-0.1,0.2-0.1c0.1,0,0.2,0,0.3,0.1c0.1,0.1,0.2,0.1,0.4,0.2c0.1,0.1,0.3,0.2,0.5,0.2
		c0.2,0.1,0.4,0.1,0.6,0.1c0.3,0,0.6-0.1,0.8-0.2c0.2-0.1,0.3-0.4,0.3-0.7c0-0.2-0.1-0.3-0.2-0.5s-0.2-0.2-0.4-0.3s-0.4-0.1-0.6-0.2
		c-0.2-0.1-0.4-0.1-0.7-0.2c-0.2-0.1-0.4-0.2-0.7-0.3s-0.4-0.2-0.6-0.4s-0.3-0.4-0.4-0.6s-0.2-0.6-0.2-0.9c0-0.3,0.1-0.6,0.2-0.9
		s0.3-0.5,0.5-0.8c0.2-0.2,0.5-0.4,0.9-0.5s0.7-0.2,1.2-0.2c0.2,0,0.5,0,0.7,0.1c0.2,0,0.5,0.1,0.7,0.2s0.4,0.2,0.6,0.3
		s0.3,0.2,0.5,0.4L588.8,169.6z"/>
	<path id="XMLID_548_" class="st13" d="M590.3,177.8v-7.5h1.1c0.1,0,0.2,0,0.3,0.1c0.1,0,0.1,0.1,0.2,0.2l0.1,0.4
		c0.1-0.1,0.2-0.2,0.4-0.3c0.1-0.1,0.3-0.2,0.4-0.3c0.1-0.1,0.3-0.1,0.5-0.2s0.3-0.1,0.5-0.1c0.3,0,0.6,0.1,0.8,0.2
		c0.3,0.1,0.5,0.3,0.7,0.6s0.3,0.6,0.4,0.9c0.1,0.4,0.2,0.8,0.2,1.2c0,0.4-0.1,0.8-0.2,1.2c-0.1,0.4-0.3,0.7-0.5,0.9
		c-0.2,0.3-0.5,0.5-0.8,0.6c-0.3,0.2-0.6,0.2-1,0.2c-0.3,0-0.5,0-0.7-0.1c-0.2-0.1-0.4-0.2-0.5-0.3v2.2H590.3z M593.1,171.5
		c-0.1,0-0.2,0-0.3,0c-0.1,0-0.2,0.1-0.3,0.1s-0.2,0.1-0.2,0.2s-0.1,0.1-0.2,0.2v2.4c0.1,0.1,0.3,0.2,0.4,0.3
		c0.2,0.1,0.3,0.1,0.5,0.1c0.2,0,0.3,0,0.4-0.1c0.1-0.1,0.2-0.2,0.3-0.3c0.1-0.1,0.2-0.3,0.2-0.5c0.1-0.2,0.1-0.5,0.1-0.8
		c0-0.3,0-0.6-0.1-0.8c0-0.2-0.1-0.4-0.2-0.5s-0.2-0.2-0.3-0.3C593.3,171.6,593.2,171.5,593.1,171.5z"/>
	<path id="XMLID_551_" class="st13" d="M598.4,167.8v8.2h-1.7v-8.2H598.4z"/>
	<path id="XMLID_553_" class="st13" d="M601.8,168.8c0,0.1,0,0.3-0.1,0.4s-0.1,0.2-0.2,0.3c-0.1,0.1-0.2,0.2-0.3,0.2
		c-0.1,0.1-0.3,0.1-0.4,0.1c-0.1,0-0.3,0-0.4-0.1c-0.1-0.1-0.2-0.1-0.3-0.2s-0.2-0.2-0.2-0.3c-0.1-0.1-0.1-0.2-0.1-0.4
		c0-0.1,0-0.3,0.1-0.4c0.1-0.1,0.1-0.2,0.2-0.3c0.1-0.1,0.2-0.2,0.3-0.2s0.3-0.1,0.4-0.1c0.1,0,0.3,0,0.4,0.1
		c0.1,0.1,0.2,0.1,0.3,0.2c0.1,0.1,0.2,0.2,0.2,0.3C601.7,168.5,601.8,168.6,601.8,168.8z M601.6,170.3v5.7h-1.7v-5.7H601.6z"/>
	<path id="XMLID_556_" class="st13" d="M604.9,176.1c-0.3,0-0.5,0-0.7-0.1c-0.2-0.1-0.4-0.2-0.5-0.3c-0.1-0.1-0.2-0.3-0.3-0.5
		c-0.1-0.2-0.1-0.4-0.1-0.7v-2.9h-0.5c-0.1,0-0.2,0-0.2-0.1c-0.1-0.1-0.1-0.1-0.1-0.3v-0.7l0.9-0.2l0.3-1.4c0-0.2,0.2-0.3,0.4-0.3
		h0.9v1.7h1.4v1.2H605v2.8c0,0.1,0,0.2,0.1,0.3s0.2,0.1,0.3,0.1c0.1,0,0.1,0,0.2,0c0,0,0.1,0,0.1,0c0,0,0.1,0,0.1,0s0.1,0,0.1,0
		c0.1,0,0.1,0,0.1,0s0.1,0.1,0.1,0.1l0.5,0.8c-0.2,0.2-0.5,0.3-0.7,0.4C605.5,176.1,605.2,176.1,604.9,176.1z"/>
	<path id="XMLID_558_" class="st13" d="M610.6,168c0.1,0,0.1,0,0.1,0c0,0,0.1,0,0.1,0.1c0,0,0.1,0.1,0.1,0.1l3.8,4.8
		c0-0.2,0-0.3,0-0.4c0-0.1,0-0.3,0-0.4V168h1.6v8h-1c-0.1,0-0.3,0-0.4-0.1s-0.2-0.1-0.3-0.2l-3.8-4.8c0,0.1,0,0.3,0,0.4
		c0,0.1,0,0.3,0,0.4v4.3h-1.6v-8h1C610.5,168,610.6,168,610.6,168z"/>
	<path id="XMLID_560_" class="st13" d="M621.7,176c-0.2,0-0.3,0-0.4-0.1c-0.1,0-0.2-0.1-0.2-0.3l-0.1-0.3c-0.1,0.1-0.3,0.2-0.4,0.3
		s-0.3,0.2-0.4,0.2c-0.1,0.1-0.3,0.1-0.5,0.1c-0.2,0-0.3,0-0.5,0c-0.3,0-0.5,0-0.7-0.1c-0.2-0.1-0.4-0.2-0.5-0.3
		c-0.1-0.1-0.3-0.3-0.3-0.5c-0.1-0.2-0.1-0.4-0.1-0.7c0-0.2,0.1-0.4,0.2-0.6s0.3-0.4,0.5-0.6s0.6-0.3,1-0.4c0.4-0.1,1-0.2,1.6-0.2
		v-0.2c0-0.3-0.1-0.6-0.2-0.7s-0.3-0.2-0.6-0.2c-0.2,0-0.4,0-0.5,0.1s-0.2,0.1-0.3,0.1c-0.1,0.1-0.2,0.1-0.3,0.1
		c-0.1,0-0.2,0.1-0.3,0.1c-0.1,0-0.2,0-0.3-0.1c-0.1-0.1-0.1-0.1-0.2-0.2l-0.3-0.5c0.3-0.3,0.7-0.5,1.1-0.7c0.4-0.1,0.9-0.2,1.3-0.2
		c0.3,0,0.7,0.1,0.9,0.2c0.3,0.1,0.5,0.3,0.7,0.5s0.3,0.4,0.4,0.7c0.1,0.3,0.2,0.6,0.2,0.9v3.6H621.7z M619.8,175
		c0.2,0,0.4,0,0.6-0.1c0.2-0.1,0.3-0.2,0.5-0.4v-0.8c-0.3,0-0.6,0-0.8,0.1c-0.2,0-0.4,0.1-0.5,0.2c-0.1,0.1-0.2,0.1-0.3,0.2
		c0,0.1-0.1,0.2-0.1,0.3c0,0.2,0.1,0.3,0.2,0.4S619.5,175,619.8,175z"/>
	<path id="XMLID_563_" class="st13" d="M623.7,176v-5.7h1.1c0.1,0,0.2,0,0.3,0.1c0.1,0,0.1,0.1,0.2,0.2l0.1,0.3
		c0.1-0.1,0.2-0.2,0.3-0.3s0.2-0.2,0.3-0.2s0.2-0.1,0.4-0.1s0.3-0.1,0.5-0.1c0.3,0,0.6,0.1,0.9,0.3c0.2,0.2,0.4,0.4,0.5,0.7
		c0.1-0.2,0.2-0.3,0.3-0.5c0.1-0.1,0.3-0.2,0.4-0.3c0.2-0.1,0.3-0.1,0.5-0.2s0.4-0.1,0.5-0.1c0.3,0,0.6,0,0.9,0.1s0.5,0.2,0.6,0.4
		c0.2,0.2,0.3,0.4,0.4,0.7s0.1,0.6,0.1,0.9v3.6h-1.7v-3.6c0-0.6-0.3-0.9-0.8-0.9c-0.2,0-0.4,0.1-0.6,0.2s-0.2,0.4-0.2,0.7v3.6H627
		v-3.6c0-0.3-0.1-0.6-0.2-0.7c-0.1-0.1-0.3-0.2-0.6-0.2c-0.2,0-0.3,0-0.4,0.1c-0.1,0.1-0.3,0.2-0.4,0.3v4.1H623.7z"/>
	<path id="XMLID_565_" class="st13" d="M635.6,170.2c0.4,0,0.7,0.1,1,0.2c0.3,0.1,0.6,0.3,0.8,0.5s0.4,0.5,0.5,0.8
		c0.1,0.3,0.2,0.7,0.2,1.1c0,0.1,0,0.2,0,0.3c0,0.1,0,0.1-0.1,0.2c0,0-0.1,0.1-0.1,0.1c0,0-0.1,0-0.2,0h-3.3c0.1,0.5,0.2,0.8,0.4,1
		c0.2,0.2,0.5,0.3,0.9,0.3c0.2,0,0.4,0,0.5-0.1c0.1,0,0.3-0.1,0.4-0.2c0.1-0.1,0.2-0.1,0.3-0.2c0.1,0,0.2-0.1,0.3-0.1
		c0.1,0,0.2,0,0.3,0.1l0.5,0.6c-0.2,0.2-0.4,0.4-0.6,0.5s-0.4,0.2-0.6,0.3c-0.2,0.1-0.4,0.1-0.6,0.1c-0.2,0-0.4,0-0.6,0
		c-0.4,0-0.8-0.1-1.1-0.2c-0.3-0.1-0.7-0.3-0.9-0.6c-0.3-0.3-0.5-0.6-0.6-1s-0.2-0.8-0.2-1.3c0-0.4,0.1-0.7,0.2-1.1
		c0.1-0.3,0.3-0.6,0.6-0.9c0.2-0.3,0.5-0.5,0.9-0.6S635.2,170.2,635.6,170.2z M635.6,171.4c-0.3,0-0.6,0.1-0.8,0.3
		c-0.2,0.2-0.3,0.5-0.4,0.8h2.1c0-0.1,0-0.3-0.1-0.4c0-0.1-0.1-0.2-0.2-0.3c-0.1-0.1-0.2-0.2-0.3-0.2
		C636,171.5,635.8,171.4,635.6,171.4z"/>
</g>
<g id="XMLID_522_">
	<path id="XMLID_523_" class="st13" d="M724.5,152c-0.1,0.1-0.1,0.2-0.2,0.2s-0.1,0.1-0.2,0.1c-0.1,0-0.2,0-0.3-0.1
		c-0.1-0.1-0.2-0.1-0.3-0.2s-0.3-0.1-0.4-0.2c-0.2-0.1-0.3-0.1-0.5-0.1c-0.3,0-0.6,0.1-0.8,0.2c-0.2,0.1-0.3,0.3-0.3,0.6
		c0,0.2,0.1,0.3,0.2,0.4c0.1,0.1,0.2,0.2,0.4,0.3c0.2,0.1,0.4,0.1,0.6,0.2c0.2,0.1,0.4,0.1,0.7,0.2c0.2,0.1,0.4,0.2,0.7,0.3
		c0.2,0.1,0.4,0.2,0.6,0.4s0.3,0.4,0.4,0.6c0.1,0.2,0.2,0.5,0.2,0.9c0,0.4-0.1,0.7-0.2,1c-0.1,0.3-0.3,0.6-0.6,0.8
		c-0.2,0.2-0.5,0.4-0.9,0.6c-0.4,0.1-0.8,0.2-1.2,0.2c-0.3,0-0.5,0-0.8-0.1c-0.3-0.1-0.5-0.1-0.8-0.2c-0.2-0.1-0.5-0.2-0.7-0.3
		c-0.2-0.1-0.4-0.3-0.6-0.4l0.5-0.9c0-0.1,0.1-0.1,0.2-0.2c0.1,0,0.2-0.1,0.2-0.1c0.1,0,0.2,0,0.3,0.1c0.1,0.1,0.2,0.1,0.4,0.2
		c0.1,0.1,0.3,0.2,0.5,0.2c0.2,0.1,0.4,0.1,0.6,0.1c0.3,0,0.6-0.1,0.8-0.2c0.2-0.1,0.3-0.4,0.3-0.7c0-0.2-0.1-0.3-0.2-0.5
		s-0.2-0.2-0.4-0.3s-0.4-0.1-0.6-0.2s-0.4-0.1-0.7-0.2c-0.2-0.1-0.4-0.2-0.7-0.3c-0.2-0.1-0.4-0.2-0.6-0.4c-0.2-0.2-0.3-0.4-0.4-0.6
		s-0.2-0.6-0.2-0.9c0-0.3,0.1-0.6,0.2-0.9s0.3-0.5,0.5-0.8s0.5-0.4,0.9-0.5c0.3-0.1,0.7-0.2,1.2-0.2c0.2,0,0.5,0,0.7,0.1
		c0.2,0,0.5,0.1,0.7,0.2s0.4,0.2,0.6,0.3c0.2,0.1,0.3,0.2,0.5,0.4L724.5,152z"/>
	<path id="XMLID_525_" class="st13" d="M726,160.2v-7.5h1.1c0.1,0,0.2,0,0.3,0.1c0.1,0,0.1,0.1,0.2,0.2l0.1,0.4
		c0.1-0.1,0.2-0.2,0.4-0.3c0.1-0.1,0.3-0.2,0.4-0.3c0.1-0.1,0.3-0.1,0.5-0.2s0.3-0.1,0.5-0.1c0.3,0,0.6,0.1,0.8,0.2
		c0.3,0.1,0.5,0.3,0.7,0.6c0.2,0.2,0.3,0.6,0.4,0.9c0.1,0.4,0.2,0.8,0.2,1.2c0,0.4-0.1,0.8-0.2,1.2c-0.1,0.4-0.3,0.7-0.5,0.9
		c-0.2,0.3-0.5,0.5-0.8,0.6c-0.3,0.2-0.6,0.2-1,0.2c-0.3,0-0.5,0-0.7-0.1c-0.2-0.1-0.4-0.2-0.5-0.3v2.2H726z M728.7,153.9
		c-0.1,0-0.2,0-0.3,0s-0.2,0.1-0.3,0.1s-0.2,0.1-0.2,0.2s-0.1,0.1-0.2,0.2v2.4c0.1,0.1,0.3,0.2,0.4,0.3c0.1,0.1,0.3,0.1,0.5,0.1
		c0.2,0,0.3,0,0.4-0.1c0.1-0.1,0.2-0.2,0.3-0.3c0.1-0.1,0.2-0.3,0.2-0.5c0.1-0.2,0.1-0.5,0.1-0.8c0-0.3,0-0.6-0.1-0.8
		c0-0.2-0.1-0.4-0.2-0.5c-0.1-0.1-0.2-0.2-0.3-0.3C729,153.9,728.9,153.9,728.7,153.9z"/>
	<path id="XMLID_528_" class="st13" d="M734.1,150.1v8.2h-1.7v-8.2H734.1z"/>
	<path id="XMLID_530_" class="st13" d="M737.4,151.1c0,0.1,0,0.3-0.1,0.4c-0.1,0.1-0.1,0.2-0.2,0.3c-0.1,0.1-0.2,0.2-0.3,0.2
		c-0.1,0.1-0.3,0.1-0.4,0.1c-0.1,0-0.3,0-0.4-0.1c-0.1-0.1-0.2-0.1-0.3-0.2c-0.1-0.1-0.2-0.2-0.2-0.3c-0.1-0.1-0.1-0.2-0.1-0.4
		c0-0.1,0-0.3,0.1-0.4c0.1-0.1,0.1-0.2,0.2-0.3c0.1-0.1,0.2-0.2,0.3-0.2s0.3-0.1,0.4-0.1c0.1,0,0.3,0,0.4,0.1
		c0.1,0.1,0.2,0.1,0.3,0.2c0.1,0.1,0.2,0.2,0.2,0.3C737.4,150.8,737.4,151,737.4,151.1z M737.2,152.7v5.7h-1.7v-5.7H737.2z"/>
	<path id="XMLID_533_" class="st13" d="M740.6,158.4c-0.3,0-0.5,0-0.7-0.1s-0.4-0.2-0.5-0.3c-0.1-0.1-0.2-0.3-0.3-0.5
		c-0.1-0.2-0.1-0.4-0.1-0.7v-2.9h-0.5c-0.1,0-0.2,0-0.2-0.1c-0.1-0.1-0.1-0.1-0.1-0.3v-0.7l0.9-0.2l0.3-1.4c0-0.2,0.2-0.3,0.4-0.3
		h0.9v1.7h1.4v1.2h-1.4v2.8c0,0.1,0,0.2,0.1,0.3c0.1,0.1,0.2,0.1,0.3,0.1c0.1,0,0.1,0,0.2,0c0,0,0.1,0,0.1,0s0.1,0,0.1,0
		s0.1,0,0.1,0c0.1,0,0.1,0,0.1,0c0,0,0.1,0.1,0.1,0.1l0.5,0.8c-0.2,0.2-0.5,0.3-0.7,0.4S740.9,158.4,740.6,158.4z"/>
	<path id="XMLID_535_" class="st13" d="M746.3,150.4c0.1,0,0.1,0,0.1,0c0,0,0.1,0,0.1,0.1s0.1,0.1,0.1,0.1l3.8,4.8
		c0-0.2,0-0.3,0-0.4c0-0.1,0-0.3,0-0.4v-4.2h1.6v8h-1c-0.1,0-0.3,0-0.4-0.1c-0.1,0-0.2-0.1-0.3-0.2l-3.8-4.8c0,0.1,0,0.3,0,0.4
		c0,0.1,0,0.3,0,0.4v4.3h-1.6v-8h1C746.2,150.3,746.2,150.4,746.3,150.4z"/>
	<path id="XMLID_537_" class="st13" d="M757.4,158.4c-0.2,0-0.3,0-0.4-0.1c-0.1,0-0.2-0.1-0.2-0.3l-0.1-0.3
		c-0.1,0.1-0.3,0.2-0.4,0.3c-0.1,0.1-0.3,0.2-0.4,0.2c-0.1,0.1-0.3,0.1-0.5,0.1c-0.2,0-0.3,0-0.5,0c-0.3,0-0.5,0-0.7-0.1
		c-0.2-0.1-0.4-0.2-0.5-0.3c-0.1-0.1-0.3-0.3-0.3-0.5c-0.1-0.2-0.1-0.4-0.1-0.7c0-0.2,0.1-0.4,0.2-0.6s0.3-0.4,0.5-0.6
		c0.3-0.2,0.6-0.3,1-0.4s1-0.2,1.6-0.2v-0.2c0-0.3-0.1-0.6-0.2-0.7s-0.3-0.2-0.6-0.2c-0.2,0-0.4,0-0.5,0.1c-0.1,0-0.2,0.1-0.3,0.1
		c-0.1,0.1-0.2,0.1-0.3,0.1c-0.1,0-0.2,0.1-0.3,0.1c-0.1,0-0.2,0-0.3-0.1c-0.1-0.1-0.1-0.1-0.2-0.2l-0.3-0.5
		c0.3-0.3,0.7-0.5,1.1-0.7s0.9-0.2,1.4-0.2c0.3,0,0.7,0.1,0.9,0.2c0.3,0.1,0.5,0.3,0.7,0.5s0.3,0.4,0.4,0.7c0.1,0.3,0.2,0.6,0.2,0.9
		v3.6H757.4z M755.4,157.3c0.2,0,0.4,0,0.6-0.1c0.2-0.1,0.3-0.2,0.5-0.4v-0.8c-0.3,0-0.6,0-0.8,0.1c-0.2,0-0.4,0.1-0.5,0.2
		c-0.1,0.1-0.2,0.1-0.3,0.2c0,0.1-0.1,0.2-0.1,0.3c0,0.2,0.1,0.3,0.2,0.4S755.2,157.3,755.4,157.3z"/>
	<path id="XMLID_540_" class="st13" d="M759.4,158.4v-5.7h1.1c0.1,0,0.2,0,0.3,0.1c0.1,0,0.1,0.1,0.2,0.2l0.1,0.3
		c0.1-0.1,0.2-0.2,0.3-0.3s0.2-0.2,0.3-0.2s0.2-0.1,0.4-0.1c0.1,0,0.3-0.1,0.5-0.1c0.3,0,0.6,0.1,0.9,0.3c0.2,0.2,0.4,0.4,0.5,0.7
		c0.1-0.2,0.2-0.3,0.3-0.5c0.1-0.1,0.3-0.2,0.4-0.3s0.3-0.1,0.5-0.2s0.4-0.1,0.5-0.1c0.3,0,0.6,0,0.9,0.1s0.5,0.2,0.6,0.4
		c0.2,0.2,0.3,0.4,0.4,0.7s0.1,0.6,0.1,0.9v3.6h-1.7v-3.6c0-0.6-0.3-0.9-0.8-0.9c-0.2,0-0.4,0.1-0.6,0.2c-0.2,0.2-0.2,0.4-0.2,0.7
		v3.6h-1.7v-3.6c0-0.3-0.1-0.6-0.2-0.7c-0.1-0.1-0.3-0.2-0.6-0.2c-0.2,0-0.3,0-0.4,0.1c-0.1,0.1-0.3,0.2-0.4,0.3v4.1H759.4z"/>
	<path id="XMLID_542_" class="st13" d="M771.3,152.6c0.4,0,0.7,0.1,1,0.2c0.3,0.1,0.6,0.3,0.8,0.5s0.4,0.5,0.5,0.8
		c0.1,0.3,0.2,0.7,0.2,1.1c0,0.1,0,0.2,0,0.3c0,0.1,0,0.1-0.1,0.2c0,0-0.1,0.1-0.1,0.1c0,0-0.1,0-0.2,0h-3.3c0.1,0.5,0.2,0.8,0.4,1
		s0.5,0.3,0.9,0.3c0.2,0,0.4,0,0.5-0.1c0.1,0,0.3-0.1,0.4-0.2c0.1-0.1,0.2-0.1,0.3-0.2c0.1,0,0.2-0.1,0.3-0.1c0.1,0,0.2,0,0.3,0.1
		l0.5,0.6c-0.2,0.2-0.4,0.4-0.6,0.5c-0.2,0.1-0.4,0.2-0.6,0.3c-0.2,0.1-0.4,0.1-0.6,0.1c-0.2,0-0.4,0-0.6,0c-0.4,0-0.8-0.1-1.1-0.2
		c-0.4-0.1-0.7-0.3-0.9-0.6c-0.3-0.3-0.5-0.6-0.6-1s-0.2-0.8-0.2-1.3c0-0.4,0.1-0.7,0.2-1.1c0.1-0.3,0.3-0.6,0.6-0.9
		c0.2-0.3,0.5-0.5,0.9-0.6S770.8,152.6,771.3,152.6z M771.3,153.7c-0.3,0-0.6,0.1-0.8,0.3c-0.2,0.2-0.3,0.5-0.4,0.8h2.1
		c0-0.1,0-0.3-0.1-0.4s-0.1-0.2-0.2-0.3c-0.1-0.1-0.2-0.2-0.3-0.2C771.6,153.8,771.5,153.7,771.3,153.7z"/>
</g>
<circle id="XMLID_147_" class="st9" cx="183.9" cy="163.1" r="2.1"/>
<circle id="XMLID_181_" class="st9" cx="183.9" cy="502.8" r="2.1"/>
<circle id="XMLID_182_" class="st9" cx="363.1" cy="502.8" r="2.1"/>
<circle id="XMLID_183_" class="st9" cx="612.1" cy="502.8" r="2.1"/>
<circle id="XMLID_184_" class="st9" cx="748.1" cy="502.8" r="2.1"/>
<line id="XMLID_163_" class="st9" x1="363.1" y1="187.6" x2="363.1" y2="500.6"/>
<g id="XMLID_509_">
	<path id="XMLID_510_" class="st12" d="M363.2,151c0,0.1-0.1,0.3-0.1,0.4c-0.1,0.1-0.1,0.2-0.3,0.3c-0.1,0.1-0.2,0.2-0.4,0.2
		c-0.2,0-0.4,0.1-0.6,0.1h-2.5l-0.5,1.8c0.2,0,0.4-0.1,0.6-0.1s0.3,0,0.5,0c0.5,0,0.9,0.1,1.3,0.2c0.4,0.1,0.7,0.3,0.9,0.6
		c0.2,0.2,0.4,0.5,0.6,0.9c0.1,0.3,0.2,0.7,0.2,1.1c0,0.6-0.1,1.1-0.3,1.6c-0.2,0.5-0.5,0.9-0.9,1.3c-0.4,0.4-0.9,0.6-1.4,0.8
		s-1.1,0.3-1.7,0.3c-0.3,0-0.6,0-0.9-0.1c-0.3-0.1-0.6-0.2-0.8-0.3c-0.2-0.1-0.5-0.3-0.7-0.4c-0.2-0.2-0.4-0.3-0.5-0.5l0.8-0.9
		c0.1-0.1,0.2-0.2,0.3-0.2s0.2-0.1,0.3-0.1c0.1,0,0.3,0,0.4,0.1s0.2,0.2,0.4,0.2c0.1,0.1,0.3,0.2,0.5,0.2s0.4,0.1,0.7,0.1
		c0.3,0,0.6-0.1,0.9-0.2s0.4-0.3,0.6-0.5c0.2-0.2,0.3-0.4,0.3-0.7c0.1-0.3,0.1-0.5,0.1-0.8c0-0.4-0.1-0.7-0.4-1s-0.6-0.4-1.1-0.4
		c-0.2,0-0.4,0-0.6,0.1c-0.2,0-0.5,0.1-0.7,0.2l-1.2-0.4l1.5-5.1h5.2L363.2,151z"/>
	<path id="XMLID_512_" class="st12" d="M368.6,150c0.5,0,0.9,0.1,1.2,0.2c0.4,0.1,0.7,0.3,0.9,0.5c0.2,0.2,0.4,0.5,0.6,0.8
		c0.1,0.3,0.2,0.7,0.2,1c0,0.4-0.1,0.8-0.2,1.2c-0.1,0.3-0.3,0.7-0.5,1c-0.2,0.3-0.5,0.6-0.8,0.9c-0.3,0.3-0.6,0.6-0.9,0.9l-2.3,2.1
		c0.3-0.1,0.5-0.1,0.8-0.2s0.5-0.1,0.7-0.1h2c0.2,0,0.4,0.1,0.5,0.2s0.2,0.2,0.2,0.4c0,0,0,0,0,0s0,0.1,0,0.2s0,0.2,0,0.4
		c0,0.2-0.1,0.4-0.1,0.7h-7.1l0.1-0.7c0-0.1,0.1-0.3,0.1-0.4c0.1-0.2,0.2-0.3,0.3-0.4l3.3-3c0.3-0.3,0.6-0.6,0.8-0.8
		c0.2-0.3,0.4-0.5,0.6-0.7c0.1-0.2,0.2-0.5,0.3-0.7s0.1-0.5,0.1-0.7c0-0.3-0.1-0.6-0.3-0.8c-0.2-0.2-0.5-0.3-0.8-0.3
		c-0.2,0-0.3,0-0.5,0.1s-0.3,0.1-0.4,0.2s-0.2,0.2-0.3,0.3c-0.1,0.1-0.2,0.2-0.2,0.4c-0.1,0.2-0.2,0.3-0.3,0.4
		c-0.1,0.1-0.3,0.1-0.5,0.1c-0.1,0-0.2,0-0.3,0l-1.1-0.2c0.1-0.5,0.3-0.9,0.6-1.3c0.3-0.4,0.6-0.7,0.9-0.9c0.3-0.3,0.7-0.4,1.1-0.6
		C367.7,150.1,368.1,150,368.6,150z"/>
	<path id="XMLID_514_" class="st12" d="M371.9,159.2c0-0.2,0-0.3,0.1-0.5s0.1-0.3,0.3-0.4c0.1-0.1,0.2-0.2,0.4-0.3
		c0.1-0.1,0.3-0.1,0.5-0.1c0.2,0,0.3,0,0.5,0.1s0.3,0.1,0.4,0.3c0.1,0.1,0.2,0.2,0.3,0.4s0.1,0.3,0.1,0.5s0,0.3-0.1,0.5
		s-0.2,0.3-0.3,0.4c-0.1,0.1-0.2,0.2-0.4,0.3s-0.3,0.1-0.5,0.1c-0.2,0-0.3,0-0.5-0.1c-0.1-0.1-0.3-0.1-0.4-0.3
		c-0.1-0.1-0.2-0.2-0.3-0.4S371.9,159.4,371.9,159.2z M372.5,154.4c0-0.2,0-0.3,0.1-0.5c0.1-0.1,0.1-0.3,0.3-0.4
		c0.1-0.1,0.2-0.2,0.4-0.3s0.3-0.1,0.5-0.1c0.2,0,0.3,0,0.5,0.1c0.1,0.1,0.3,0.1,0.4,0.3c0.1,0.1,0.2,0.2,0.3,0.4
		c0.1,0.1,0.1,0.3,0.1,0.5s0,0.3-0.1,0.5s-0.2,0.3-0.3,0.4c-0.1,0.1-0.2,0.2-0.4,0.3c-0.1,0.1-0.3,0.1-0.5,0.1c-0.2,0-0.3,0-0.5-0.1
		s-0.3-0.1-0.4-0.3c-0.1-0.1-0.2-0.2-0.3-0.4S372.5,154.6,372.5,154.4z"/>
	<path id="XMLID_517_" class="st12" d="M381.9,156.4h1l-0.2,1.2c0,0.1-0.1,0.2-0.1,0.3c-0.1,0.1-0.2,0.1-0.3,0.1h-0.6l-0.3,2.4h-1.9
		l0.3-2.4h-4.1c-0.1,0-0.3,0-0.4-0.1c-0.1-0.1-0.2-0.2-0.2-0.4l-0.1-1l5.5-6.4h2.1L381.9,156.4z M380.4,153.6c0-0.1,0-0.3,0.1-0.5
		c0-0.2,0.1-0.3,0.1-0.5l-3.2,3.8h2.7L380.4,153.6z"/>
	<path id="XMLID_520_" class="st12" d="M384.7,158.8h2l0.7-5.5l0.1-0.6l-1.4,1.1c-0.1,0.1-0.2,0.1-0.2,0.1c-0.1,0-0.1,0-0.2,0
		c-0.1,0-0.2,0-0.3-0.1c-0.1,0-0.1-0.1-0.2-0.2l-0.5-0.9l3.5-2.7h1.7l-1.1,8.7h1.7l-0.2,1.5h-5.8L384.7,158.8z"/>
</g>
<circle id="XMLID_156_" class="st9" cx="363.1" cy="185.5" r="2.1"/>
<line id="XMLID_172_" class="st9" x1="612.1" y1="187.6" x2="612.1" y2="500.6"/>
<g id="XMLID_491_">
	<path id="XMLID_492_" class="st12" d="M601.4,157.8h2l0.7-5.5l0.1-0.6l-1.4,1.1c-0.1,0.1-0.2,0.1-0.2,0.1c-0.1,0-0.1,0-0.2,0
		c-0.1,0-0.2,0-0.3-0.1s-0.1-0.1-0.2-0.2l-0.5-0.9l3.5-2.7h1.7l-1.1,8.7h1.7l-0.2,1.5h-5.8L601.4,157.8z"/>
	<path id="XMLID_494_" class="st12" d="M608.1,158.2c0-0.2,0-0.3,0.1-0.5c0.1-0.1,0.1-0.3,0.3-0.4c0.1-0.1,0.2-0.2,0.4-0.3
		c0.1-0.1,0.3-0.1,0.5-0.1c0.2,0,0.3,0,0.5,0.1s0.3,0.1,0.4,0.3c0.1,0.1,0.2,0.2,0.3,0.4c0.1,0.1,0.1,0.3,0.1,0.5s0,0.3-0.1,0.5
		c-0.1,0.1-0.2,0.3-0.3,0.4c-0.1,0.1-0.2,0.2-0.4,0.3s-0.3,0.1-0.5,0.1c-0.2,0-0.3,0-0.5-0.1c-0.1-0.1-0.3-0.1-0.4-0.3
		c-0.1-0.1-0.2-0.2-0.3-0.4C608.1,158.5,608.1,158.4,608.1,158.2z M608.8,153.4c0-0.2,0-0.3,0.1-0.5c0.1-0.1,0.1-0.3,0.3-0.4
		s0.2-0.2,0.4-0.3s0.3-0.1,0.5-0.1c0.2,0,0.3,0,0.5,0.1s0.3,0.1,0.4,0.3c0.1,0.1,0.2,0.2,0.3,0.4c0.1,0.1,0.1,0.3,0.1,0.5
		s0,0.3-0.1,0.5c-0.1,0.1-0.2,0.3-0.3,0.4c-0.1,0.1-0.2,0.2-0.4,0.3s-0.3,0.1-0.5,0.1c-0.2,0-0.3,0-0.5-0.1s-0.3-0.1-0.4-0.3
		s-0.2-0.2-0.3-0.4C608.8,153.8,608.8,153.6,608.8,153.4z"/>
	<path id="XMLID_497_" class="st12" d="M616.2,149c0.5,0,0.9,0.1,1.2,0.2c0.4,0.1,0.7,0.3,0.9,0.5c0.2,0.2,0.4,0.5,0.6,0.8
		c0.1,0.3,0.2,0.7,0.2,1c0,0.4-0.1,0.8-0.2,1.2c-0.1,0.3-0.3,0.7-0.5,1c-0.2,0.3-0.5,0.6-0.8,0.9c-0.3,0.3-0.6,0.6-0.9,0.9l-2.3,2.1
		c0.3-0.1,0.5-0.1,0.8-0.2s0.5-0.1,0.7-0.1h2c0.2,0,0.4,0.1,0.5,0.2c0.1,0.1,0.2,0.2,0.2,0.4c0,0,0,0,0,0c0,0,0,0.1,0,0.2
		c0,0.1,0,0.2,0,0.4c0,0.2-0.1,0.4-0.1,0.7h-7.1l0.1-0.7c0-0.1,0.1-0.3,0.1-0.4c0.1-0.2,0.2-0.3,0.3-0.4l3.3-3
		c0.3-0.3,0.6-0.6,0.8-0.8c0.2-0.3,0.4-0.5,0.6-0.7c0.1-0.2,0.2-0.5,0.3-0.7c0.1-0.2,0.1-0.5,0.1-0.7c0-0.3-0.1-0.6-0.3-0.8
		c-0.2-0.2-0.5-0.3-0.8-0.3c-0.2,0-0.3,0-0.5,0.1c-0.1,0-0.3,0.1-0.4,0.2c-0.1,0.1-0.2,0.2-0.3,0.3c-0.1,0.1-0.2,0.2-0.2,0.4
		c-0.1,0.2-0.2,0.3-0.3,0.4c-0.1,0.1-0.3,0.1-0.5,0.1c-0.1,0-0.2,0-0.3,0l-1.1-0.2c0.1-0.5,0.3-0.9,0.6-1.3s0.6-0.7,0.9-0.9
		c0.3-0.3,0.7-0.4,1.1-0.6C615.3,149.1,615.8,149,616.2,149z"/>
	<path id="XMLID_499_" class="st12" d="M624.3,149c0.5,0,0.9,0.1,1.2,0.2s0.7,0.3,0.9,0.5s0.4,0.5,0.6,0.8c0.1,0.3,0.2,0.7,0.2,1
		c0,0.4-0.1,0.8-0.2,1.2s-0.3,0.7-0.5,1c-0.2,0.3-0.5,0.6-0.8,0.9c-0.3,0.3-0.6,0.6-0.9,0.9l-2.3,2.1c0.3-0.1,0.5-0.1,0.8-0.2
		s0.5-0.1,0.7-0.1h2c0.2,0,0.4,0.1,0.5,0.2c0.1,0.1,0.2,0.2,0.2,0.4c0,0,0,0,0,0c0,0,0,0.1,0,0.2c0,0.1,0,0.2,0,0.4
		c0,0.2-0.1,0.4-0.1,0.7h-7.1l0.1-0.7c0-0.1,0.1-0.3,0.1-0.4c0.1-0.2,0.2-0.3,0.3-0.4l3.3-3c0.3-0.3,0.6-0.6,0.8-0.8
		s0.4-0.5,0.6-0.7s0.2-0.5,0.3-0.7c0.1-0.2,0.1-0.5,0.1-0.7c0-0.3-0.1-0.6-0.3-0.8c-0.2-0.2-0.5-0.3-0.8-0.3c-0.2,0-0.3,0-0.5,0.1
		c-0.1,0-0.3,0.1-0.4,0.2c-0.1,0.1-0.2,0.2-0.3,0.3s-0.2,0.2-0.2,0.4c-0.1,0.2-0.2,0.3-0.3,0.4c-0.1,0.1-0.3,0.1-0.5,0.1
		c-0.1,0-0.2,0-0.3,0l-1.1-0.2c0.1-0.5,0.3-0.9,0.6-1.3c0.3-0.4,0.6-0.7,0.9-0.9s0.7-0.4,1.1-0.6S623.9,149,624.3,149z"/>
	<path id="XMLID_501_" class="st12" d="M627.6,158.2c0-0.2,0-0.3,0.1-0.5c0.1-0.1,0.1-0.3,0.3-0.4c0.1-0.1,0.2-0.2,0.4-0.3
		c0.1-0.1,0.3-0.1,0.5-0.1c0.2,0,0.3,0,0.5,0.1s0.3,0.1,0.4,0.3c0.1,0.1,0.2,0.2,0.3,0.4c0.1,0.1,0.1,0.3,0.1,0.5s0,0.3-0.1,0.5
		c-0.1,0.1-0.2,0.3-0.3,0.4c-0.1,0.1-0.2,0.2-0.4,0.3s-0.3,0.1-0.5,0.1c-0.2,0-0.3,0-0.5-0.1c-0.1-0.1-0.3-0.1-0.4-0.3
		c-0.1-0.1-0.2-0.2-0.3-0.4C627.7,158.5,627.6,158.4,627.6,158.2z M628.3,153.4c0-0.2,0-0.3,0.1-0.5c0.1-0.1,0.1-0.3,0.3-0.4
		s0.2-0.2,0.4-0.3s0.3-0.1,0.5-0.1c0.2,0,0.3,0,0.5,0.1s0.3,0.1,0.4,0.3c0.1,0.1,0.2,0.2,0.3,0.4c0.1,0.1,0.1,0.3,0.1,0.5
		s0,0.3-0.1,0.5c-0.1,0.1-0.2,0.3-0.3,0.4c-0.1,0.1-0.2,0.2-0.4,0.3s-0.3,0.1-0.5,0.1c-0.2,0-0.3,0-0.5-0.1s-0.3-0.1-0.4-0.3
		s-0.2-0.2-0.3-0.4C628.3,153.8,628.3,153.6,628.3,153.4z"/>
	<path id="XMLID_504_" class="st12" d="M637.7,155.4h1l-0.2,1.2c0,0.1-0.1,0.2-0.1,0.3c-0.1,0.1-0.2,0.1-0.3,0.1h-0.6l-0.3,2.4h-1.9
		l0.3-2.4h-4.1c-0.1,0-0.3,0-0.4-0.1s-0.2-0.2-0.2-0.4l-0.1-1l5.5-6.4h2.1L637.7,155.4z M636.1,152.6c0-0.1,0-0.3,0.1-0.5
		c0-0.2,0.1-0.3,0.1-0.5l-3.2,3.8h2.7L636.1,152.6z"/>
	<path id="XMLID_507_" class="st12" d="M646.6,150c0,0.1-0.1,0.3-0.1,0.4c-0.1,0.1-0.1,0.2-0.3,0.3c-0.1,0.1-0.2,0.2-0.4,0.2
		c-0.2,0-0.4,0.1-0.6,0.1h-2.5l-0.5,1.8c0.2,0,0.4-0.1,0.6-0.1c0.2,0,0.3,0,0.5,0c0.5,0,0.9,0.1,1.3,0.2c0.4,0.1,0.7,0.3,0.9,0.6
		s0.4,0.5,0.6,0.9c0.1,0.3,0.2,0.7,0.2,1.1c0,0.6-0.1,1.1-0.3,1.6c-0.2,0.5-0.5,0.9-0.9,1.3c-0.4,0.4-0.9,0.6-1.4,0.8
		c-0.5,0.2-1.1,0.3-1.7,0.3c-0.3,0-0.6,0-0.9-0.1c-0.3-0.1-0.6-0.2-0.8-0.3s-0.5-0.3-0.7-0.4c-0.2-0.2-0.4-0.3-0.5-0.5l0.8-0.9
		c0.1-0.1,0.2-0.2,0.3-0.2c0.1,0,0.2-0.1,0.3-0.1c0.1,0,0.3,0,0.4,0.1s0.2,0.2,0.4,0.2c0.1,0.1,0.3,0.2,0.5,0.2s0.4,0.1,0.7,0.1
		c0.3,0,0.6-0.1,0.9-0.2s0.4-0.3,0.6-0.5c0.2-0.2,0.3-0.4,0.3-0.7c0.1-0.3,0.1-0.5,0.1-0.8c0-0.4-0.1-0.7-0.4-1s-0.6-0.4-1.1-0.4
		c-0.2,0-0.4,0-0.6,0.1c-0.2,0-0.5,0.1-0.7,0.2l-1.2-0.4l1.5-5.1h5.2L646.6,150z"/>
</g>
<circle id="XMLID_164_" class="st9" cx="612.1" cy="185.5" r="2.1"/>
<line id="XMLID_180_" class="st9" x1="748.1" y1="262.9" x2="748.1" y2="500.6"/>
<line id="XMLID_233_" class="st9" x1="748.1" y1="170.7" x2="748.1" y2="189.9"/>
<g id="XMLID_473_">
	<path id="XMLID_474_" class="st12" d="M737.4,140.8h2l0.7-5.5l0.1-0.6l-1.4,1.1c-0.1,0.1-0.2,0.1-0.2,0.1c-0.1,0-0.1,0-0.2,0
		c-0.1,0-0.2,0-0.3-0.1c-0.1,0-0.1-0.1-0.2-0.2l-0.5-0.9l3.5-2.7h1.7l-1.1,8.7h1.7l-0.2,1.5h-5.8L737.4,140.8z"/>
	<path id="XMLID_476_" class="st12" d="M744.1,141.2c0-0.2,0-0.3,0.1-0.5s0.1-0.3,0.3-0.4c0.1-0.1,0.2-0.2,0.4-0.3s0.3-0.1,0.5-0.1
		c0.2,0,0.3,0,0.5,0.1s0.3,0.1,0.4,0.3c0.1,0.1,0.2,0.2,0.3,0.4c0.1,0.1,0.1,0.3,0.1,0.5s0,0.3-0.1,0.5c-0.1,0.1-0.2,0.3-0.3,0.4
		c-0.1,0.1-0.2,0.2-0.4,0.3s-0.3,0.1-0.5,0.1c-0.2,0-0.3,0-0.5-0.1s-0.3-0.1-0.4-0.3c-0.1-0.1-0.2-0.2-0.3-0.4
		S744.1,141.4,744.1,141.2z M744.8,136.5c0-0.2,0-0.3,0.1-0.5c0.1-0.1,0.1-0.3,0.3-0.4c0.1-0.1,0.2-0.2,0.4-0.3s0.3-0.1,0.5-0.1
		c0.2,0,0.3,0,0.5,0.1c0.1,0.1,0.3,0.1,0.4,0.3c0.1,0.1,0.2,0.2,0.3,0.4c0.1,0.1,0.1,0.3,0.1,0.5s0,0.3-0.1,0.5
		c-0.1,0.1-0.2,0.3-0.3,0.4c-0.1,0.1-0.2,0.2-0.4,0.3c-0.2,0.1-0.3,0.1-0.5,0.1c-0.2,0-0.3,0-0.5-0.1s-0.3-0.1-0.4-0.3
		c-0.1-0.1-0.2-0.2-0.3-0.4S744.8,136.6,744.8,136.5z"/>
	<path id="XMLID_479_" class="st12" d="M754.1,138.4h1l-0.2,1.2c0,0.1-0.1,0.2-0.1,0.3c-0.1,0.1-0.2,0.1-0.3,0.1H754l-0.3,2.4h-1.9
		l0.3-2.4H748c-0.1,0-0.3,0-0.4-0.1s-0.2-0.2-0.2-0.4l-0.1-1l5.5-6.4h2.1L754.1,138.4z M752.6,135.6c0-0.1,0-0.3,0.1-0.5
		c0-0.2,0.1-0.3,0.1-0.5l-3.2,3.8h2.7L752.6,135.6z"/>
	<path id="XMLID_482_" class="st12" d="M760.3,132c0.5,0,0.9,0.1,1.2,0.2c0.4,0.1,0.7,0.3,0.9,0.5s0.4,0.5,0.6,0.8
		c0.1,0.3,0.2,0.7,0.2,1c0,0.4-0.1,0.8-0.2,1.2c-0.1,0.3-0.3,0.7-0.5,1c-0.2,0.3-0.5,0.6-0.8,0.9c-0.3,0.3-0.6,0.6-0.9,0.9l-2.3,2.1
		c0.3-0.1,0.5-0.1,0.8-0.2s0.5-0.1,0.7-0.1h2c0.2,0,0.4,0.1,0.5,0.2s0.2,0.2,0.2,0.4c0,0,0,0,0,0c0,0,0,0.1,0,0.2c0,0.1,0,0.2,0,0.4
		c0,0.2-0.1,0.4-0.1,0.7h-7.1l0.1-0.7c0-0.1,0.1-0.3,0.1-0.4c0.1-0.2,0.2-0.3,0.3-0.4l3.3-3c0.3-0.3,0.6-0.6,0.8-0.8
		s0.4-0.5,0.6-0.7s0.2-0.5,0.3-0.7c0.1-0.2,0.1-0.5,0.1-0.7c0-0.3-0.1-0.6-0.3-0.8c-0.2-0.2-0.5-0.3-0.8-0.3c-0.2,0-0.3,0-0.5,0.1
		s-0.3,0.1-0.4,0.2s-0.2,0.2-0.3,0.3s-0.2,0.2-0.2,0.4c-0.1,0.2-0.2,0.3-0.3,0.4c-0.1,0.1-0.3,0.1-0.5,0.1c-0.1,0-0.2,0-0.3,0
		l-1.1-0.2c0.1-0.5,0.3-0.9,0.6-1.3c0.3-0.4,0.6-0.7,0.9-0.9c0.3-0.3,0.7-0.4,1.1-0.6C759.4,132.1,759.9,132,760.3,132z"/>
	<path id="XMLID_484_" class="st12" d="M763.6,141.2c0-0.2,0-0.3,0.1-0.5s0.1-0.3,0.3-0.4c0.1-0.1,0.2-0.2,0.4-0.3s0.3-0.1,0.5-0.1
		c0.2,0,0.3,0,0.5,0.1s0.3,0.1,0.4,0.3c0.1,0.1,0.2,0.2,0.3,0.4c0.1,0.1,0.1,0.3,0.1,0.5s0,0.3-0.1,0.5c-0.1,0.1-0.2,0.3-0.3,0.4
		c-0.1,0.1-0.2,0.2-0.4,0.3s-0.3,0.1-0.5,0.1c-0.2,0-0.3,0-0.5-0.1s-0.3-0.1-0.4-0.3c-0.1-0.1-0.2-0.2-0.3-0.4
		S763.6,141.4,763.6,141.2z M764.3,136.5c0-0.2,0-0.3,0.1-0.5c0.1-0.1,0.1-0.3,0.3-0.4c0.1-0.1,0.2-0.2,0.4-0.3s0.3-0.1,0.5-0.1
		c0.2,0,0.3,0,0.5,0.1c0.1,0.1,0.3,0.1,0.4,0.3c0.1,0.1,0.2,0.2,0.3,0.4c0.1,0.1,0.1,0.3,0.1,0.5s0,0.3-0.1,0.5
		c-0.1,0.1-0.2,0.3-0.3,0.4c-0.1,0.1-0.2,0.2-0.4,0.3c-0.2,0.1-0.3,0.1-0.5,0.1c-0.2,0-0.3,0-0.5-0.1s-0.3-0.1-0.4-0.3
		c-0.1-0.1-0.2-0.2-0.3-0.4S764.3,136.6,764.3,136.5z"/>
	<path id="XMLID_487_" class="st12" d="M772,132c0.5,0,0.9,0.1,1.2,0.2c0.4,0.1,0.7,0.3,0.9,0.5c0.2,0.2,0.4,0.5,0.5,0.8
		c0.1,0.3,0.2,0.6,0.2,0.9c0,0.4,0,0.7-0.1,1c-0.1,0.3-0.2,0.5-0.3,0.7c-0.2,0.2-0.3,0.4-0.6,0.5c-0.2,0.1-0.5,0.2-0.8,0.3
		c0.5,0.2,0.8,0.5,1.1,0.8s0.4,0.7,0.4,1.2c0,0.4-0.1,0.7-0.2,1.1c-0.1,0.3-0.2,0.6-0.4,0.9s-0.4,0.5-0.6,0.7
		c-0.3,0.2-0.5,0.4-0.8,0.5c-0.3,0.1-0.6,0.2-0.9,0.3c-0.3,0.1-0.7,0.1-1,0.1c-0.5,0-0.9-0.1-1.3-0.2s-0.7-0.3-1-0.5
		s-0.5-0.5-0.7-0.8c-0.2-0.3-0.3-0.7-0.4-1.2l1-0.4c0.1,0,0.2-0.1,0.3-0.1c0.1,0,0.2,0,0.2,0c0.1,0,0.3,0,0.4,0.1
		c0.1,0.1,0.2,0.1,0.2,0.2c0.2,0.4,0.3,0.7,0.6,0.9c0.2,0.2,0.5,0.3,0.9,0.3c0.3,0,0.5,0,0.7-0.1c0.2-0.1,0.4-0.2,0.5-0.4
		c0.1-0.2,0.3-0.3,0.3-0.6c0.1-0.2,0.1-0.4,0.1-0.7c0-0.2,0-0.3-0.1-0.5c-0.1-0.1-0.2-0.3-0.3-0.4c-0.1-0.1-0.4-0.2-0.6-0.2
		c-0.3-0.1-0.6-0.1-1-0.1l0.2-1.4c0.4,0,0.8,0,1.1-0.1c0.3-0.1,0.5-0.2,0.7-0.3c0.2-0.1,0.3-0.3,0.4-0.5c0.1-0.2,0.1-0.4,0.1-0.7
		c0-0.4-0.1-0.6-0.3-0.8s-0.5-0.3-0.8-0.3c-0.3,0-0.6,0.1-0.9,0.3c-0.2,0.2-0.4,0.4-0.6,0.7c-0.1,0.2-0.2,0.3-0.3,0.4
		c-0.1,0.1-0.3,0.1-0.5,0.1c0,0-0.1,0-0.1,0c0,0-0.1,0-0.2,0l-1.1-0.2c0.1-0.5,0.3-0.9,0.6-1.3c0.3-0.4,0.6-0.7,0.9-0.9
		c0.3-0.3,0.7-0.4,1.1-0.6C771.1,132.1,771.6,132,772,132z"/>
	<path id="XMLID_489_" class="st12" d="M776.4,140.8h2l0.7-5.5l0.1-0.6l-1.4,1.1c-0.1,0.1-0.2,0.1-0.2,0.1c-0.1,0-0.1,0-0.2,0
		c-0.1,0-0.2,0-0.3-0.1c-0.1,0-0.1-0.1-0.2-0.2l-0.5-0.9l3.5-2.7h1.7l-1.1,8.7h1.7l-0.2,1.5h-5.8L776.4,140.8z"/>
</g>
<circle id="XMLID_173_" class="st9" cx="748.1" cy="168.5" r="2.1"/>
<circle id="XMLID_234_" class="st9" cx="748.1" cy="192" r="2.1"/>
<g id="XMLID_188_">
	<path id="XMLID_23_" class="st14" d="M30,196.6h92.2c2.8,0,5,2.2,5,5v5c0,2.8-2.2,5-5,5H30c-2.8,0-5-2.2-5-5v-5
		C25,198.8,27.3,196.6,30,196.6z"/>
	
		<rect id="XMLID_179_" x="72.8" y="208.2" transform="matrix(-0.7071 -0.7071 0.7071 -0.7071 -19.6124 415.0282)" class="st14" width="6.7" height="6.7"/>
</g>
<g id="XMLID_13_">
	<path id="XMLID_162_" class="st14" d="M702,197h92.2c2.8,0,5,2.2,5,5v5c0,2.8-2.2,5-5,5H702c-2.8,0-5-2.2-5-5v-5
		C697,199.2,699.2,197,702,197z"/>
	
		<rect id="XMLID_161_" x="744.8" y="208.7" transform="matrix(-0.7071 -0.7071 0.7071 -0.7071 1127.1743 890.9001)" class="st14" width="6.7" height="6.7"/>
</g>
<g id="XMLID_157_">
	<path id="XMLID_379_" class="st13" d="M43.5,201.5c-0.1,0.1-0.1,0.2-0.2,0.2s-0.1,0.1-0.2,0.1c-0.1,0-0.2,0-0.3-0.1
		s-0.2-0.1-0.3-0.2s-0.3-0.1-0.4-0.2s-0.3-0.1-0.5-0.1c-0.3,0-0.6,0.1-0.8,0.2c-0.2,0.1-0.3,0.3-0.3,0.6c0,0.2,0.1,0.3,0.2,0.4
		c0.1,0.1,0.2,0.2,0.4,0.3c0.2,0.1,0.4,0.1,0.6,0.2c0.2,0.1,0.4,0.1,0.7,0.2c0.2,0.1,0.4,0.2,0.7,0.3c0.2,0.1,0.4,0.2,0.6,0.4
		s0.3,0.4,0.4,0.6c0.1,0.2,0.2,0.5,0.2,0.9c0,0.4-0.1,0.7-0.2,1c-0.1,0.3-0.3,0.6-0.6,0.8c-0.2,0.2-0.5,0.4-0.9,0.6
		c-0.4,0.1-0.8,0.2-1.2,0.2c-0.2,0-0.5,0-0.8-0.1c-0.3-0.1-0.5-0.1-0.8-0.2c-0.2-0.1-0.5-0.2-0.7-0.3c-0.2-0.1-0.4-0.3-0.6-0.4
		L39,206c0-0.1,0.1-0.1,0.2-0.2c0.1,0,0.2-0.1,0.2-0.1c0.1,0,0.2,0,0.3,0.1c0.1,0.1,0.2,0.1,0.4,0.2c0.1,0.1,0.3,0.2,0.5,0.2
		c0.2,0.1,0.4,0.1,0.6,0.1c0.3,0,0.6-0.1,0.8-0.2s0.3-0.4,0.3-0.7c0-0.2-0.1-0.3-0.2-0.5s-0.2-0.2-0.4-0.3s-0.4-0.1-0.6-0.2
		c-0.2-0.1-0.4-0.1-0.7-0.2c-0.2-0.1-0.4-0.2-0.7-0.3c-0.2-0.1-0.4-0.2-0.6-0.4c-0.2-0.2-0.3-0.4-0.4-0.6s-0.2-0.6-0.2-0.9
		c0-0.3,0.1-0.6,0.2-0.9s0.3-0.5,0.5-0.8c0.2-0.2,0.5-0.4,0.9-0.5c0.3-0.1,0.7-0.2,1.2-0.2c0.2,0,0.5,0,0.7,0.1
		c0.2,0,0.5,0.1,0.7,0.2s0.4,0.2,0.6,0.3c0.2,0.1,0.3,0.2,0.5,0.4L43.5,201.5z"/>
	<path id="XMLID_381_" class="st13" d="M47,207.9c-0.3,0-0.5,0-0.7-0.1c-0.2-0.1-0.4-0.2-0.5-0.3s-0.2-0.3-0.3-0.5
		c-0.1-0.2-0.1-0.4-0.1-0.7v-2.9h-0.5c-0.1,0-0.2,0-0.2-0.1c-0.1-0.1-0.1-0.1-0.1-0.3v-0.7l0.9-0.2l0.3-1.4c0-0.2,0.2-0.3,0.4-0.3
		H47v1.7h1.4v1.2H47v2.8c0,0.1,0,0.2,0.1,0.3c0.1,0.1,0.2,0.1,0.3,0.1c0.1,0,0.1,0,0.2,0c0,0,0.1,0,0.1,0c0,0,0.1,0,0.1,0
		s0.1,0,0.1,0c0.1,0,0.1,0,0.1,0c0,0,0.1,0.1,0.1,0.1l0.5,0.8c-0.2,0.2-0.5,0.3-0.7,0.4C47.5,207.9,47.3,207.9,47,207.9z"/>
	<path id="XMLID_383_" class="st13" d="M53.3,207.9c-0.2,0-0.3,0-0.4-0.1s-0.2-0.1-0.2-0.3l-0.1-0.3c-0.1,0.1-0.3,0.2-0.4,0.3
		c-0.1,0.1-0.3,0.2-0.4,0.2c-0.1,0.1-0.3,0.1-0.5,0.1c-0.2,0-0.3,0-0.5,0c-0.3,0-0.5,0-0.7-0.1c-0.2-0.1-0.4-0.2-0.5-0.3
		c-0.1-0.1-0.3-0.3-0.3-0.5s-0.1-0.4-0.1-0.7c0-0.2,0.1-0.4,0.2-0.6s0.3-0.4,0.5-0.6c0.3-0.2,0.6-0.3,1-0.4c0.4-0.1,1-0.2,1.6-0.2
		v-0.2c0-0.3-0.1-0.6-0.2-0.7s-0.3-0.2-0.6-0.2c-0.2,0-0.4,0-0.5,0.1c-0.1,0-0.2,0.1-0.3,0.1c-0.1,0.1-0.2,0.1-0.3,0.1
		s-0.2,0.1-0.3,0.1c-0.1,0-0.2,0-0.3-0.1c-0.1-0.1-0.1-0.1-0.2-0.2l-0.3-0.5c0.3-0.3,0.7-0.5,1.1-0.7c0.4-0.1,0.9-0.2,1.4-0.2
		c0.3,0,0.7,0.1,0.9,0.2s0.5,0.3,0.7,0.5s0.3,0.4,0.4,0.7c0.1,0.3,0.2,0.6,0.2,0.9v3.6H53.3z M51.3,206.8c0.2,0,0.4,0,0.6-0.1
		c0.2-0.1,0.3-0.2,0.5-0.4v-0.8c-0.3,0-0.6,0-0.8,0.1c-0.2,0-0.4,0.1-0.5,0.2c-0.1,0.1-0.2,0.1-0.3,0.2c0,0.1-0.1,0.2-0.1,0.3
		c0,0.2,0.1,0.3,0.2,0.4S51.1,206.8,51.3,206.8z"/>
	<path id="XMLID_386_" class="st13" d="M55.3,207.9v-5.7h1c0.1,0,0.2,0,0.2,0c0.1,0,0.1,0,0.1,0.1s0.1,0.1,0.1,0.1
		c0,0.1,0,0.1,0.1,0.2l0.1,0.5c0.2-0.3,0.4-0.6,0.7-0.8s0.5-0.3,0.9-0.3c0.3,0,0.5,0.1,0.6,0.2l-0.2,1.3c0,0.1,0,0.1-0.1,0.2
		c0,0-0.1,0-0.2,0c-0.1,0-0.1,0-0.2,0c-0.1,0-0.2,0-0.3,0c-0.4,0-0.8,0.2-1.1,0.7v3.5H55.3z"/>
	<path id="XMLID_388_" class="st13" d="M61.8,207.9c-0.3,0-0.5,0-0.7-0.1c-0.2-0.1-0.4-0.2-0.5-0.3s-0.2-0.3-0.3-0.5
		c-0.1-0.2-0.1-0.4-0.1-0.7v-2.9h-0.5c-0.1,0-0.2,0-0.2-0.1c-0.1-0.1-0.1-0.1-0.1-0.3v-0.7l0.9-0.2l0.3-1.4c0-0.2,0.2-0.3,0.4-0.3
		h0.9v1.7h1.4v1.2h-1.4v2.8c0,0.1,0,0.2,0.1,0.3c0.1,0.1,0.2,0.1,0.3,0.1c0.1,0,0.1,0,0.2,0c0,0,0.1,0,0.1,0c0,0,0.1,0,0.1,0
		s0.1,0,0.1,0c0.1,0,0.1,0,0.1,0c0,0,0.1,0.1,0.1,0.1l0.5,0.8c-0.2,0.2-0.5,0.3-0.7,0.4C62.4,207.9,62.1,207.9,61.8,207.9z"/>
	<path id="XMLID_390_" class="st13" d="M68.2,206.4h3v1.5h-4.8v-8h1.9V206.4z"/>
	<path id="XMLID_392_" class="st13" d="M74.4,202.1c0.4,0,0.8,0.1,1.2,0.2c0.4,0.1,0.7,0.3,0.9,0.6s0.5,0.6,0.6,0.9
		c0.1,0.4,0.2,0.8,0.2,1.2c0,0.5-0.1,0.9-0.2,1.2s-0.3,0.7-0.6,0.9s-0.6,0.5-0.9,0.6c-0.4,0.1-0.7,0.2-1.2,0.2
		c-0.4,0-0.8-0.1-1.2-0.2c-0.4-0.1-0.7-0.3-0.9-0.6c-0.3-0.3-0.5-0.6-0.6-0.9s-0.2-0.8-0.2-1.2c0-0.5,0.1-0.9,0.2-1.2
		c0.1-0.4,0.3-0.7,0.6-0.9c0.3-0.3,0.6-0.4,0.9-0.6S73.9,202.1,74.4,202.1z M74.4,206.7c0.4,0,0.7-0.1,0.9-0.4
		c0.2-0.3,0.3-0.7,0.3-1.3s-0.1-1-0.3-1.3c-0.2-0.3-0.5-0.4-0.9-0.4c-0.4,0-0.7,0.1-0.9,0.4c-0.2,0.3-0.3,0.7-0.3,1.3s0.1,1,0.3,1.3
		S74,206.7,74.4,206.7z"/>
	<path id="XMLID_395_" class="st13" d="M82.3,203.5c-0.1,0.1-0.1,0.1-0.1,0.1s-0.1,0.1-0.2,0.1c-0.1,0-0.2,0-0.2-0.1
		s-0.1-0.1-0.2-0.1c-0.1,0-0.2-0.1-0.3-0.1c-0.1,0-0.3-0.1-0.4-0.1c-0.2,0-0.4,0-0.5,0.1c-0.2,0.1-0.3,0.2-0.4,0.3
		c-0.1,0.1-0.2,0.3-0.2,0.5c0,0.2-0.1,0.4-0.1,0.7c0,0.5,0.1,1,0.3,1.3s0.5,0.4,0.9,0.4c0.2,0,0.4,0,0.5-0.1c0.1,0,0.2-0.1,0.3-0.2
		s0.2-0.1,0.2-0.2c0.1-0.1,0.2-0.1,0.3-0.1c0.1,0,0.2,0,0.3,0.1l0.5,0.6c-0.2,0.2-0.4,0.4-0.6,0.5s-0.4,0.2-0.6,0.3
		c-0.2,0.1-0.4,0.1-0.6,0.1c-0.2,0-0.4,0-0.6,0c-0.3,0-0.7-0.1-1-0.2c-0.3-0.1-0.6-0.3-0.8-0.6c-0.2-0.3-0.4-0.6-0.6-0.9
		s-0.2-0.8-0.2-1.3c0-0.4,0.1-0.8,0.2-1.2c0.1-0.4,0.3-0.7,0.5-0.9s0.5-0.5,0.9-0.6s0.8-0.2,1.2-0.2c0.4,0,0.8,0.1,1.2,0.2
		s0.6,0.4,0.9,0.6L82.3,203.5z"/>
	<path id="XMLID_397_" class="st13" d="M87.5,207.9c-0.2,0-0.3,0-0.4-0.1s-0.2-0.1-0.2-0.3l-0.1-0.3c-0.1,0.1-0.3,0.2-0.4,0.3
		c-0.1,0.1-0.3,0.2-0.4,0.2c-0.1,0.1-0.3,0.1-0.5,0.1c-0.2,0-0.3,0-0.5,0c-0.3,0-0.5,0-0.7-0.1c-0.2-0.1-0.4-0.2-0.5-0.3
		c-0.1-0.1-0.3-0.3-0.3-0.5s-0.1-0.4-0.1-0.7c0-0.2,0.1-0.4,0.2-0.6s0.3-0.4,0.5-0.6c0.3-0.2,0.6-0.3,1-0.4c0.4-0.1,1-0.2,1.6-0.2
		v-0.2c0-0.3-0.1-0.6-0.2-0.7s-0.3-0.2-0.6-0.2c-0.2,0-0.4,0-0.5,0.1c-0.1,0-0.2,0.1-0.3,0.1c-0.1,0.1-0.2,0.1-0.3,0.1
		s-0.2,0.1-0.3,0.1c-0.1,0-0.2,0-0.3-0.1c-0.1-0.1-0.1-0.1-0.2-0.2l-0.3-0.5c0.3-0.3,0.7-0.5,1.1-0.7c0.4-0.1,0.9-0.2,1.4-0.2
		c0.3,0,0.7,0.1,0.9,0.2s0.5,0.3,0.7,0.5s0.3,0.4,0.4,0.7c0.1,0.3,0.2,0.6,0.2,0.9v3.6H87.5z M85.5,206.8c0.2,0,0.4,0,0.6-0.1
		c0.2-0.1,0.3-0.2,0.5-0.4v-0.8c-0.3,0-0.6,0-0.8,0.1c-0.2,0-0.4,0.1-0.5,0.2c-0.1,0.1-0.2,0.1-0.3,0.2c0,0.1-0.1,0.2-0.1,0.3
		c0,0.2,0.1,0.3,0.2,0.4S85.3,206.8,85.5,206.8z"/>
	<path id="XMLID_400_" class="st13" d="M91.5,207.9c-0.3,0-0.5,0-0.7-0.1c-0.2-0.1-0.4-0.2-0.5-0.3s-0.2-0.3-0.3-0.5
		c-0.1-0.2-0.1-0.4-0.1-0.7v-2.9h-0.5c-0.1,0-0.2,0-0.2-0.1c-0.1-0.1-0.1-0.1-0.1-0.3v-0.7l0.9-0.2l0.3-1.4c0-0.2,0.2-0.3,0.4-0.3
		h0.9v1.7h1.4v1.2h-1.4v2.8c0,0.1,0,0.2,0.1,0.3c0.1,0.1,0.2,0.1,0.3,0.1c0.1,0,0.1,0,0.2,0c0,0,0.1,0,0.1,0c0,0,0.1,0,0.1,0
		s0.1,0,0.1,0c0.1,0,0.1,0,0.1,0c0,0,0.1,0.1,0.1,0.1l0.5,0.8c-0.2,0.2-0.5,0.3-0.7,0.4C92.1,207.9,91.8,207.9,91.5,207.9z"/>
	<path id="XMLID_402_" class="st13" d="M95.9,200.6c0,0.1,0,0.3-0.1,0.4c-0.1,0.1-0.1,0.2-0.2,0.3s-0.2,0.2-0.3,0.2
		c-0.1,0.1-0.3,0.1-0.4,0.1c-0.1,0-0.3,0-0.4-0.1c-0.1-0.1-0.2-0.1-0.3-0.2c-0.1-0.1-0.2-0.2-0.2-0.3s-0.1-0.2-0.1-0.4
		c0-0.1,0-0.3,0.1-0.4c0.1-0.1,0.1-0.2,0.2-0.3c0.1-0.1,0.2-0.2,0.3-0.2s0.3-0.1,0.4-0.1c0.1,0,0.3,0,0.4,0.1s0.2,0.1,0.3,0.2
		c0.1,0.1,0.2,0.2,0.2,0.3C95.8,200.3,95.9,200.5,95.9,200.6z M95.7,202.2v5.7H94v-5.7H95.7z"/>
	<path id="XMLID_405_" class="st13" d="M99.6,202.1c0.4,0,0.8,0.1,1.2,0.2c0.4,0.1,0.7,0.3,0.9,0.6s0.5,0.6,0.6,0.9
		c0.1,0.4,0.2,0.8,0.2,1.2c0,0.5-0.1,0.9-0.2,1.2s-0.3,0.7-0.6,0.9s-0.6,0.5-0.9,0.6c-0.4,0.1-0.7,0.2-1.2,0.2
		c-0.4,0-0.8-0.1-1.2-0.2c-0.4-0.1-0.7-0.3-0.9-0.6c-0.3-0.3-0.5-0.6-0.6-0.9s-0.2-0.8-0.2-1.2c0-0.5,0.1-0.9,0.2-1.2
		c0.1-0.4,0.3-0.7,0.6-0.9c0.3-0.3,0.6-0.4,0.9-0.6S99.1,202.1,99.6,202.1z M99.6,206.7c0.4,0,0.7-0.1,0.9-0.4
		c0.2-0.3,0.3-0.7,0.3-1.3s-0.1-1-0.3-1.3c-0.2-0.3-0.5-0.4-0.9-0.4c-0.4,0-0.7,0.1-0.9,0.4c-0.2,0.3-0.3,0.7-0.3,1.3s0.1,1,0.3,1.3
		S99.2,206.7,99.6,206.7z"/>
	<path id="XMLID_408_" class="st13" d="M103.4,207.9v-5.7h1.1c0.1,0,0.2,0,0.3,0.1c0.1,0,0.1,0.1,0.2,0.2l0.1,0.3
		c0.1-0.1,0.2-0.2,0.3-0.3c0.1-0.1,0.2-0.2,0.4-0.2s0.3-0.1,0.4-0.1s0.3-0.1,0.5-0.1c0.3,0,0.6,0.1,0.8,0.2c0.2,0.1,0.4,0.3,0.6,0.5
		s0.3,0.4,0.4,0.7c0.1,0.3,0.1,0.6,0.1,0.9v3.6h-1.7v-3.6c0-0.3-0.1-0.5-0.2-0.7c-0.1-0.2-0.3-0.2-0.6-0.2c-0.2,0-0.4,0-0.5,0.1
		c-0.2,0.1-0.3,0.2-0.5,0.3v4.1H103.4z"/>
</g>
<g id="XMLID_141_">
	<path id="XMLID_155_" class="st13" d="M721.6,200.8v1.4h-3.3v1.9h2.5v1.4h-2.5v1.9h3.3v1.4h-5.2v-8H721.6z"/>
	<path id="XMLID_448_" class="st13" d="M722.7,208.9v-5.7h1.1c0.1,0,0.2,0,0.3,0.1c0.1,0,0.1,0.1,0.2,0.2l0.1,0.3
		c0.1-0.1,0.2-0.2,0.3-0.3s0.2-0.2,0.4-0.2s0.3-0.1,0.4-0.1c0.2,0,0.3-0.1,0.5-0.1c0.3,0,0.6,0.1,0.8,0.2c0.2,0.1,0.4,0.3,0.6,0.5
		s0.3,0.4,0.4,0.7c0.1,0.3,0.1,0.6,0.1,0.9v3.6h-1.7v-3.6c0-0.3-0.1-0.5-0.2-0.7c-0.1-0.2-0.3-0.2-0.6-0.2c-0.2,0-0.4,0-0.5,0.1
		c-0.2,0.1-0.3,0.2-0.5,0.3v4.1H722.7z"/>
	<path id="XMLID_450_" class="st13" d="M733.1,208.9c-0.1,0-0.2,0-0.3-0.1c-0.1,0-0.1-0.1-0.2-0.2l-0.1-0.4
		c-0.1,0.1-0.2,0.2-0.4,0.3c-0.1,0.1-0.3,0.2-0.4,0.3s-0.3,0.1-0.5,0.2s-0.3,0.1-0.5,0.1c-0.3,0-0.6-0.1-0.8-0.2
		c-0.3-0.1-0.5-0.3-0.7-0.6c-0.2-0.2-0.3-0.6-0.4-0.9s-0.2-0.8-0.2-1.2c0-0.4,0.1-0.8,0.2-1.2s0.3-0.7,0.5-0.9
		c0.2-0.3,0.5-0.5,0.8-0.6s0.6-0.2,1-0.2c0.3,0,0.5,0,0.7,0.1c0.2,0.1,0.4,0.2,0.6,0.3v-2.9h1.7v8.2H733.1z M731.3,207.6
		c0.1,0,0.2,0,0.3,0s0.2-0.1,0.3-0.1c0.1,0,0.2-0.1,0.2-0.2c0.1-0.1,0.1-0.1,0.2-0.2v-2.4c-0.1-0.1-0.3-0.2-0.4-0.3
		c-0.1-0.1-0.3-0.1-0.5-0.1c-0.2,0-0.3,0-0.4,0.1c-0.1,0.1-0.2,0.2-0.3,0.3c-0.1,0.1-0.2,0.3-0.2,0.5c-0.1,0.2-0.1,0.5-0.1,0.8
		c0,0.3,0,0.6,0.1,0.8c0,0.2,0.1,0.4,0.2,0.5c0.1,0.1,0.2,0.2,0.3,0.3C731.1,207.6,731.2,207.6,731.3,207.6z"/>
	<path id="XMLID_453_" class="st13" d="M739.4,207.4h3v1.5h-4.8v-8h1.9V207.4z"/>
	<path id="XMLID_455_" class="st13" d="M745.6,203.1c0.4,0,0.8,0.1,1.2,0.2s0.7,0.3,0.9,0.6s0.5,0.6,0.6,0.9
		c0.1,0.4,0.2,0.8,0.2,1.2c0,0.5-0.1,0.9-0.2,1.2c-0.1,0.4-0.3,0.7-0.6,0.9s-0.6,0.5-0.9,0.6c-0.4,0.1-0.8,0.2-1.2,0.2
		c-0.4,0-0.8-0.1-1.2-0.2c-0.4-0.1-0.7-0.3-0.9-0.6c-0.3-0.3-0.5-0.6-0.6-0.9c-0.1-0.4-0.2-0.8-0.2-1.2c0-0.5,0.1-0.9,0.2-1.2
		c0.1-0.4,0.3-0.7,0.6-0.9c0.3-0.3,0.6-0.4,0.9-0.6S745.2,203.1,745.6,203.1z M745.6,207.7c0.4,0,0.7-0.1,0.9-0.4s0.3-0.7,0.3-1.3
		s-0.1-1-0.3-1.3c-0.2-0.3-0.5-0.4-0.9-0.4c-0.4,0-0.7,0.1-0.9,0.4c-0.2,0.3-0.3,0.7-0.3,1.3s0.1,1,0.3,1.3
		C744.9,207.5,745.2,207.7,745.6,207.7z"/>
	<path id="XMLID_458_" class="st13" d="M753.5,204.5c-0.1,0.1-0.1,0.1-0.1,0.1s-0.1,0.1-0.2,0.1c-0.1,0-0.2,0-0.2-0.1
		c-0.1,0-0.1-0.1-0.2-0.1s-0.2-0.1-0.3-0.1c-0.1,0-0.3-0.1-0.4-0.1c-0.2,0-0.4,0-0.5,0.1c-0.2,0.1-0.3,0.2-0.4,0.3
		c-0.1,0.1-0.2,0.3-0.2,0.5c0,0.2-0.1,0.4-0.1,0.7c0,0.5,0.1,1,0.3,1.3s0.5,0.4,0.9,0.4c0.2,0,0.4,0,0.5-0.1s0.2-0.1,0.3-0.2
		c0.1-0.1,0.2-0.1,0.2-0.2c0.1-0.1,0.2-0.1,0.3-0.1c0.1,0,0.2,0,0.3,0.1l0.5,0.6c-0.2,0.2-0.4,0.4-0.6,0.5s-0.4,0.2-0.6,0.3
		c-0.2,0.1-0.4,0.1-0.6,0.1c-0.2,0-0.4,0-0.6,0c-0.3,0-0.7-0.1-1-0.2c-0.3-0.1-0.6-0.3-0.8-0.6c-0.2-0.3-0.4-0.6-0.6-0.9
		c-0.1-0.4-0.2-0.8-0.2-1.3c0-0.4,0.1-0.8,0.2-1.2c0.1-0.4,0.3-0.7,0.5-0.9s0.5-0.5,0.9-0.6c0.4-0.2,0.8-0.2,1.2-0.2
		c0.4,0,0.8,0.1,1.2,0.2c0.3,0.1,0.6,0.4,0.9,0.6L753.5,204.5z"/>
	<path id="XMLID_460_" class="st13" d="M758.7,208.9c-0.2,0-0.3,0-0.4-0.1c-0.1,0-0.2-0.1-0.2-0.3l-0.1-0.3
		c-0.1,0.1-0.3,0.2-0.4,0.3c-0.1,0.1-0.3,0.2-0.4,0.2c-0.1,0.1-0.3,0.1-0.5,0.1c-0.2,0-0.3,0-0.5,0c-0.3,0-0.5,0-0.7-0.1
		c-0.2-0.1-0.4-0.2-0.5-0.3c-0.1-0.1-0.3-0.3-0.3-0.5c-0.1-0.2-0.1-0.4-0.1-0.7c0-0.2,0.1-0.4,0.2-0.6s0.3-0.4,0.5-0.6
		c0.3-0.2,0.6-0.3,1-0.4s1-0.2,1.6-0.2v-0.2c0-0.3-0.1-0.6-0.2-0.7s-0.3-0.2-0.6-0.2c-0.2,0-0.4,0-0.5,0.1c-0.1,0-0.2,0.1-0.3,0.1
		c-0.1,0.1-0.2,0.1-0.3,0.1c-0.1,0-0.2,0.1-0.3,0.1c-0.1,0-0.2,0-0.3-0.1c-0.1-0.1-0.1-0.1-0.2-0.2l-0.3-0.5
		c0.3-0.3,0.7-0.5,1.1-0.7s0.9-0.2,1.4-0.2c0.3,0,0.7,0.1,0.9,0.2c0.3,0.1,0.5,0.3,0.7,0.5s0.3,0.4,0.4,0.7c0.1,0.3,0.2,0.6,0.2,0.9
		v3.6H758.7z M756.8,207.8c0.2,0,0.4,0,0.6-0.1c0.2-0.1,0.3-0.2,0.5-0.4v-0.8c-0.3,0-0.6,0-0.8,0.1c-0.2,0-0.4,0.1-0.5,0.2
		c-0.1,0.1-0.2,0.1-0.3,0.2c0,0.1-0.1,0.2-0.1,0.3c0,0.2,0.1,0.3,0.2,0.4S756.6,207.8,756.8,207.8z"/>
	<path id="XMLID_463_" class="st13" d="M762.7,208.9c-0.3,0-0.5,0-0.7-0.1s-0.4-0.2-0.5-0.3c-0.1-0.1-0.2-0.3-0.3-0.5
		c-0.1-0.2-0.1-0.4-0.1-0.7v-2.9h-0.5c-0.1,0-0.2,0-0.2-0.1c-0.1-0.1-0.1-0.1-0.1-0.3v-0.7l0.9-0.2l0.3-1.4c0-0.2,0.2-0.3,0.4-0.3
		h0.9v1.7h1.4v1.2h-1.4v2.8c0,0.1,0,0.2,0.1,0.3c0.1,0.1,0.2,0.1,0.3,0.1c0.1,0,0.1,0,0.2,0c0,0,0.1,0,0.1,0s0.1,0,0.1,0
		s0.1,0,0.1,0c0.1,0,0.1,0,0.1,0c0,0,0.1,0.1,0.1,0.1l0.5,0.8c-0.2,0.2-0.5,0.3-0.7,0.4S763,208.9,762.7,208.9z"/>
	<path id="XMLID_465_" class="st13" d="M767.1,201.6c0,0.1,0,0.3-0.1,0.4s-0.1,0.2-0.2,0.3c-0.1,0.1-0.2,0.2-0.3,0.2
		c-0.1,0.1-0.3,0.1-0.4,0.1c-0.1,0-0.3,0-0.4-0.1c-0.1-0.1-0.2-0.1-0.3-0.2s-0.2-0.2-0.2-0.3c-0.1-0.1-0.1-0.2-0.1-0.4
		c0-0.1,0-0.3,0.1-0.4c0.1-0.1,0.1-0.2,0.2-0.3c0.1-0.1,0.2-0.2,0.3-0.2s0.3-0.1,0.4-0.1c0.1,0,0.3,0,0.4,0.1
		c0.1,0.1,0.2,0.1,0.3,0.2c0.1,0.1,0.2,0.2,0.2,0.3C767,201.3,767.1,201.5,767.1,201.6z M766.9,203.2v5.7h-1.7v-5.7H766.9z"/>
	<path id="XMLID_468_" class="st13" d="M770.8,203.1c0.4,0,0.8,0.1,1.2,0.2c0.4,0.1,0.7,0.3,0.9,0.6s0.5,0.6,0.6,0.9
		c0.1,0.4,0.2,0.8,0.2,1.2c0,0.5-0.1,0.9-0.2,1.2c-0.1,0.4-0.3,0.7-0.6,0.9s-0.6,0.5-0.9,0.6c-0.4,0.1-0.7,0.2-1.2,0.2
		c-0.4,0-0.8-0.1-1.2-0.2c-0.4-0.1-0.7-0.3-0.9-0.6s-0.5-0.6-0.6-0.9c-0.1-0.4-0.2-0.8-0.2-1.2c0-0.5,0.1-0.9,0.2-1.2
		c0.1-0.4,0.3-0.7,0.6-0.9s0.6-0.4,0.9-0.6S770.3,203.1,770.8,203.1z M770.8,207.7c0.4,0,0.7-0.1,0.9-0.4c0.2-0.3,0.3-0.7,0.3-1.3
		s-0.1-1-0.3-1.3c-0.2-0.3-0.5-0.4-0.9-0.4c-0.4,0-0.7,0.1-0.9,0.4c-0.2,0.3-0.3,0.7-0.3,1.3s0.1,1,0.3,1.3
		C770.1,207.5,770.4,207.7,770.8,207.7z"/>
	<path id="XMLID_471_" class="st13" d="M774.6,208.9v-5.7h1.1c0.1,0,0.2,0,0.3,0.1c0.1,0,0.1,0.1,0.2,0.2l0.1,0.3
		c0.1-0.1,0.2-0.2,0.3-0.3c0.1-0.1,0.2-0.2,0.4-0.2s0.3-0.1,0.4-0.1c0.2,0,0.3-0.1,0.5-0.1c0.3,0,0.6,0.1,0.8,0.2
		c0.2,0.1,0.4,0.3,0.6,0.5s0.3,0.4,0.4,0.7s0.1,0.6,0.1,0.9v3.6h-1.7v-3.6c0-0.3-0.1-0.5-0.2-0.7c-0.1-0.2-0.3-0.2-0.6-0.2
		c-0.2,0-0.4,0-0.5,0.1c-0.2,0.1-0.3,0.2-0.5,0.3v4.1H774.6z"/>
</g>
<g id="XMLID_2_">
	<g id="XMLID_322_">
		<path id="XMLID_324_" d="M759.4,105.4c-1.7,0-3.2,0.5-4.7,1.2c-1.4,0.7-2.8,1.5-4.2,2.2c-1.3,0.7-2.6,1.2-4,1.5
			c-0.8,0.1-1.5,0.2-2.3,0.1c-0.6,0-0.9-0.4-1.1-1.1c-0.3-1-0.5-1.9-0.8-2.9c-0.8-2.8-1.5-5.6-2.3-8.4c-0.2-0.7,0-0.9,0.6-0.8
			c2.2,0.1,4.2-0.6,6.1-1.6c1.7-0.9,3.3-1.9,5.1-2.6c1.3-0.5,2.7-0.9,4.2-0.8c0.9,0,1.2,0.2,1.4,1c0.8,3,1.6,5.9,2.4,8.9
			c0.2,0.8,0.5,1.7,0.7,2.5c0.1,0.5,0,0.7-0.6,0.7C759.8,105.4,759.6,105.4,759.4,105.4z M747.5,105c0.3,1,0.5,1.9,0.8,2.9
			c0.1,0.2,0.1,0.3,0.4,0.2c1-0.5,2-1,2.9-1.6c0.2-0.1,0.2-0.2,0.1-0.4c-0.2-0.9-0.5-1.8-0.7-2.7c-0.1-0.3-0.2-0.3-0.4-0.1
			c-0.7,0.4-1.5,0.8-2.2,1.2C748.1,104.7,747.7,104.8,747.5,105c-0.3-1.1-0.6-2.3-0.9-3.5c0-0.2-0.1-0.2-0.3-0.2
			c-1,0.4-2.1,0.6-3.2,0.7c-0.2,0-0.2,0.1-0.2,0.3c0.3,1.1,0.6,2.1,0.9,3.2c0,0.2,0.1,0.2,0.3,0.2c0.5,0,0.9-0.1,1.4-0.2
			C746.1,105.4,746.8,105.1,747.5,105z M753.4,97.7c-1.1,0.4-2.1,1-3.1,1.6c-0.1,0.1-0.2,0.2-0.3,0.1c-0.1,0-0.1-0.1-0.1-0.2
			c-0.2-0.9-0.5-1.8-0.7-2.6c-0.1-0.2-0.1-0.3-0.3-0.2c-1,0.6-1.9,1.1-3,1.6c-0.2,0.1-0.2,0.2-0.2,0.4c0.3,0.9,0.5,1.8,0.7,2.7
			c0.1,0.3,0.2,0.3,0.4,0.2c1-0.5,2-1.1,3-1.6c0.1,0,0.1-0.1,0.2-0.2c0,0,0,0.1,0,0.1c0.3,1.2,0.6,2.3,0.9,3.5
			c0,0.1,0.1,0.1,0.2,0.1c1.1-0.6,2.2-1.2,3.3-1.8c0.3,1,0.5,2,0.8,3c0.1,0.2,0.2,0.3,0.4,0.2c1-0.3,1.9-0.6,3-0.6
			c0.2,0,0.2-0.1,0.2-0.3c-0.2-0.7-0.4-1.4-0.6-2.1c-0.3-1.1-0.3-1-1.4-0.9c-0.8,0.1-1.6,0.4-2.4,0.6
			C754,100.1,753.7,98.9,753.4,97.7c1.1-0.4,2.3-0.7,3.5-0.7c-0.3-1-0.6-2-0.8-3.1c0-0.2-0.2-0.2-0.3-0.2c-1.1,0.1-2.1,0.3-3.1,0.6
			c-0.1,0-0.2,0.1-0.2,0.3C752.8,95.6,753.1,96.6,753.4,97.7z"/>
		<path id="XMLID_323_" d="M738.2,96.9c0.5,0,0.8,0.3,1,0.8c0.5,2,1,4.1,1.6,6.1c1.6,6.4,3.2,12.8,4.8,19.1c0.2,0.7,0,1.1-0.5,1.4
			c-0.5,0.2-1.2,0-1.3-0.6c-0.2-0.8-0.4-1.5-0.6-2.3c-1.9-7.7-3.9-15.4-5.8-23.1C737,97.5,737.5,96.9,738.2,96.9z"/>
	</g>
</g>
<g id="XMLID_11_">
	<g id="XMLID_318_">
		<path id="XMLID_321_" d="M163,138.4c-3,0-5.7-2.3-6.4-5.4c-0.7-3.6,1.7-7.2,5.3-7.8c0.1,0,0.2,0,0.4-0.1c0.1,0,0.1,0,0.1-0.1
			c0-0.3,0-0.6,0-0.9c0-0.4,0.2-0.5,0.5-0.5c0.2,0,0.5,0,0.7,0c0.4,0,0.5,0.2,0.5,0.5c0,0.3,0,0.6,0,0.9c0,0.1,0,0.1,0.1,0.1
			c0.5,0.1,0.9,0.2,1.4,0.4c0.1,0,0.1,0,0.1-0.1c0.1-0.2,0.2-0.4,0.3-0.5c0.2-0.3,0.4-0.4,0.7-0.2c0.2,0.1,0.4,0.2,0.6,0.4
			c0.3,0.2,0.3,0.4,0.2,0.7c-0.1,0.2-0.2,0.3-0.3,0.5c-0.1,0.1-0.1,0.2,0,0.2c0.8,0.7,1.5,1.5,1.9,2.5c1.5,3.3,0,7.3-3.3,8.8
			C165.1,138.2,164.2,138.4,163,138.4z M168.3,131.7c0-2.8-2.3-5-5-5c-2.8,0-5.1,2.3-5.1,5.1c0,2.8,2.3,5,5,5
			C166,136.7,168.3,134.5,168.3,131.7z"/>
		<path id="XMLID_320_" d="M163.2,132.7c-0.6,0-1-0.5-1-1.1c0-0.6,0.5-1.1,1.1-1c0.2,0,0.3-0.1,0.5-0.2c0.4-0.5,0.7-0.9,1.1-1.4
			c0,0,0.1-0.1,0.1-0.1c0.2-0.2,0.4-0.2,0.6-0.1c0.2,0.1,0.2,0.4,0.1,0.6c-0.1,0.2-0.3,0.4-0.5,0.6c-0.3,0.4-0.6,0.7-0.9,1.1
			c-0.1,0.1-0.1,0.1,0,0.2C164.4,132.1,163.9,132.7,163.2,132.7z"/>
	</g>
</g>
<g id="XMLID_3_">
	<g id="XMLID_315_">
		<path id="XMLID_319_" d="M344.4,161.3c-3,0-5.7-2.3-6.4-5.4c-0.7-3.6,1.7-7.2,5.3-7.8c0.1,0,0.2,0,0.4-0.1c0.1,0,0.1,0,0.1-0.1
			c0-0.3,0-0.6,0-0.9c0-0.4,0.2-0.5,0.5-0.5c0.2,0,0.5,0,0.7,0c0.4,0,0.5,0.2,0.5,0.5c0,0.3,0,0.6,0,0.9c0,0.1,0,0.1,0.1,0.1
			c0.5,0.1,0.9,0.2,1.4,0.4c0.1,0,0.1,0,0.1-0.1c0.1-0.2,0.2-0.4,0.3-0.5c0.2-0.3,0.4-0.4,0.7-0.2c0.2,0.1,0.4,0.2,0.6,0.4
			c0.3,0.2,0.3,0.4,0.2,0.7c-0.1,0.2-0.2,0.3-0.3,0.5c-0.1,0.1-0.1,0.2,0,0.2c0.8,0.7,1.5,1.5,1.9,2.5c1.5,3.3,0,7.3-3.3,8.8
			C346.5,161.1,345.6,161.3,344.4,161.3z M349.6,154.7c0-2.8-2.3-5-5-5c-2.8,0-5.1,2.3-5.1,5.1c0,2.8,2.3,5,5,5
			C347.4,159.7,349.6,157.4,349.6,154.7z"/>
		<path id="XMLID_316_" d="M344.6,155.7c-0.6,0-1-0.5-1-1.1c0-0.6,0.5-1.1,1.1-1c0.2,0,0.3-0.1,0.5-0.2c0.4-0.5,0.7-0.9,1.1-1.4
			c0,0,0.1-0.1,0.1-0.1c0.2-0.2,0.4-0.2,0.6-0.1c0.2,0.1,0.2,0.4,0.1,0.6c-0.1,0.2-0.3,0.4-0.5,0.6c-0.3,0.4-0.6,0.7-0.9,1.1
			c-0.1,0.1-0.1,0.1,0,0.2C345.8,155,345.3,155.7,344.6,155.7z"/>
	</g>
</g>
<g id="XMLID_336_">
	<g id="XMLID_253_">
		<path id="XMLID_255_" d="M589.7,161.3c-3,0-5.7-2.3-6.4-5.4c-0.7-3.6,1.7-7.2,5.3-7.8c0.1,0,0.2,0,0.4-0.1c0.1,0,0.1,0,0.1-0.1
			c0-0.3,0-0.6,0-0.9c0-0.4,0.2-0.5,0.5-0.5c0.2,0,0.5,0,0.7,0c0.4,0,0.5,0.2,0.5,0.5c0,0.3,0,0.6,0,0.9c0,0.1,0,0.1,0.1,0.1
			c0.5,0.1,0.9,0.2,1.4,0.4c0.1,0,0.1,0,0.1-0.1c0.1-0.2,0.2-0.4,0.3-0.5c0.2-0.3,0.4-0.4,0.7-0.2c0.2,0.1,0.4,0.2,0.6,0.4
			c0.3,0.2,0.3,0.4,0.2,0.7c-0.1,0.2-0.2,0.3-0.3,0.5c-0.1,0.1-0.1,0.2,0,0.2c0.8,0.7,1.5,1.5,1.9,2.5c1.5,3.3,0,7.3-3.3,8.8
			C591.8,161.1,590.8,161.3,589.7,161.3z M594.9,154.7c0-2.8-2.3-5-5-5c-2.8,0-5.1,2.3-5.1,5.1c0,2.8,2.3,5,5,5
			C592.6,159.7,594.9,157.4,594.9,154.7z"/>
		<path id="XMLID_254_" d="M589.8,155.7c-0.6,0-1-0.5-1-1.1c0-0.6,0.5-1.1,1.1-1c0.2,0,0.3-0.1,0.5-0.2c0.4-0.5,0.7-0.9,1.1-1.4
			c0,0,0.1-0.1,0.1-0.1c0.2-0.2,0.4-0.2,0.6-0.1c0.2,0.1,0.2,0.4,0.1,0.6c-0.1,0.2-0.3,0.4-0.5,0.6c-0.3,0.4-0.6,0.7-0.9,1.1
			c-0.1,0.1-0.1,0.1,0,0.2C591.1,155,590.6,155.7,589.8,155.7z"/>
	</g>
</g>
<g id="XMLID_160_">
	<circle id="XMLID_317_" class="st15" cx="177.4" cy="60.7" r="18.5"/>
	<polygon id="XMLID_236_" class="st15" points="177.2,31.6 174.1,37.5 180.6,37.5 	"/>
	<polygon id="XMLID_237_" class="st15" points="177.6,89.8 180.6,84 174.1,84 	"/>
	<polygon id="XMLID_238_" class="st15" points="198.1,81.4 196.2,75.1 191.6,79.7 	"/>
	<polygon id="XMLID_240_" class="st15" points="156.9,40.3 158.8,46.6 163.4,42 	"/>
	<polygon id="XMLID_242_" class="st15" points="198.1,40.1 191.8,42.1 196.4,46.7 	"/>
	<polygon id="XMLID_243_" class="st15" points="157,81.5 163.3,79.6 158.7,74.9 	"/>
	<polygon id="XMLID_239_" class="st15" points="206.7,60.5 200.9,57.5 200.9,64 	"/>
	<polygon id="XMLID_241_" class="st15" points="148.3,60.9 154.1,64 154.1,57.5 	"/>
</g>
<g id="XMLID_350_">
	<g id="XMLID_154_">
		<path id="XMLID_159_" d="M724.2,143.7c-3,0-5.7-2.3-6.4-5.4c-0.7-3.6,1.7-7.2,5.3-7.8c0.1,0,0.2,0,0.4-0.1c0.1,0,0.1,0,0.1-0.1
			c0-0.3,0-0.6,0-0.9c0-0.4,0.2-0.5,0.5-0.5c0.2,0,0.5,0,0.7,0c0.4,0,0.5,0.2,0.5,0.5c0,0.3,0,0.6,0,0.9c0,0.1,0,0.1,0.1,0.1
			c0.5,0.1,0.9,0.2,1.4,0.4c0.1,0,0.1,0,0.1-0.1c0.1-0.2,0.2-0.4,0.3-0.5c0.2-0.3,0.4-0.4,0.7-0.2c0.2,0.1,0.4,0.2,0.6,0.4
			c0.3,0.2,0.3,0.4,0.2,0.7c-0.1,0.2-0.2,0.3-0.3,0.5c-0.1,0.1-0.1,0.2,0,0.2c0.8,0.7,1.5,1.5,1.9,2.5c1.5,3.3,0,7.3-3.3,8.8
			C726.3,143.5,725.4,143.7,724.2,143.7z M729.4,137c0-2.8-2.3-5-5-5c-2.8,0-5.1,2.3-5.1,5.1c0,2.8,2.3,5,5,5
			C727.1,142,729.4,139.8,729.4,137z"/>
		<path id="XMLID_158_" d="M724.4,138c-0.6,0-1-0.5-1-1.1c0-0.6,0.5-1.1,1.1-1c0.2,0,0.3-0.1,0.5-0.2c0.4-0.5,0.7-0.9,1.1-1.4
			c0,0,0.1-0.1,0.1-0.1c0.2-0.2,0.4-0.2,0.6-0.1c0.2,0.1,0.2,0.4,0.1,0.6c-0.1,0.2-0.3,0.4-0.5,0.6c-0.3,0.4-0.6,0.7-0.9,1.1
			c-0.1,0.1-0.1,0.1,0,0.2C725.6,137.4,725.1,138,724.4,138z"/>
	</g>
</g>
<g id="XMLID_152_" class="st16">
	<path id="XMLID_15_" class="st17" d="M176,93.7h-87c-6.1,0-11.1-5-11.1-11.1v-1c0-6.1,5-11.1,11.1-11.1h87c6.1,0,11.1,5,11.1,11.1
		v1C187.1,88.7,182.1,93.7,176,93.7z"/>
	<path id="XMLID_151_" class="st17" d="M170.4,68.2h-44.6c-5.1,0-9.3-4.2-9.3-9.3V58c0-5.1,4.2-9.3,9.3-9.3h44.6
		c5.1,0,9.3,4.2,9.3,9.3v0.9C179.7,64,175.5,68.2,170.4,68.2z"/>
	<path id="XMLID_16_" class="st17" d="M126.5,68c0.7,0,1.2,0.5,1.3,1.2c0.1,0.7-0.4,1.4-1.2,1.5c15.4,0,30.7,0,46.1,0
		c-0.7,0-1.3-0.5-1.4-1.2c-0.1-0.7,0.4-1.4,1.3-1.5C157.1,67.9,141.8,67.9,126.5,68z"/>
</g>
<g id="XMLID_593_">
	<path id="XMLID_594_" class="st1" d="M338.1,18.5v3.5h-5.3v15.5h-4.4V21.9H323v-3.5H338.1z"/>
	<path id="XMLID_596_" class="st1" d="M344.3,30.4v7h-4.4V18.5h6.2c1.4,0,2.5,0.1,3.5,0.4c1,0.3,1.8,0.7,2.4,1.2
		c0.6,0.5,1.1,1.1,1.3,1.8s0.4,1.4,0.4,2.2c0,0.6-0.1,1.2-0.2,1.7s-0.4,1.1-0.7,1.5c-0.3,0.5-0.7,0.9-1.2,1.2
		c-0.5,0.4-1,0.7-1.6,0.9c0.3,0.1,0.6,0.3,0.8,0.5c0.3,0.2,0.5,0.5,0.7,0.8l4,6.6h-4c-0.7,0-1.3-0.3-1.6-0.8l-3.1-5.5
		c-0.1-0.2-0.3-0.4-0.5-0.5s-0.4-0.2-0.8-0.2H344.3z M344.3,27.4h1.8c0.6,0,1.1-0.1,1.5-0.2c0.4-0.2,0.8-0.4,1-0.6
		c0.3-0.3,0.5-0.6,0.6-0.9c0.1-0.4,0.2-0.7,0.2-1.2c0-0.8-0.3-1.5-0.8-2c-0.5-0.5-1.4-0.7-2.5-0.7h-1.8V27.4z"/>
	<path id="XMLID_599_" class="st1" d="M374.8,37.4h-3.4c-0.4,0-0.7-0.1-0.9-0.3c-0.2-0.2-0.4-0.4-0.5-0.7l-1.1-3.3h-7.2l-1.1,3.3
		c-0.1,0.2-0.3,0.5-0.5,0.7s-0.6,0.3-0.9,0.3h-3.4l7.3-18.9h4.5L374.8,37.4z M362.6,30.2h5.2l-1.7-5.2c-0.1-0.3-0.2-0.7-0.4-1.2
		c-0.2-0.4-0.3-0.9-0.4-1.4c-0.1,0.5-0.3,1-0.4,1.5c-0.1,0.5-0.3,0.8-0.4,1.2L362.6,30.2z"/>
	<path id="XMLID_602_" class="st1" d="M388.3,32.5c0.1,0,0.2,0,0.3,0.1c0.1,0,0.2,0.1,0.3,0.2l1.7,1.8c-0.8,1-1.7,1.7-2.9,2.3
		c-1.1,0.5-2.5,0.8-4.1,0.8c-1.4,0-2.7-0.2-3.9-0.7s-2.1-1.2-2.9-2c-0.8-0.9-1.4-1.9-1.8-3.1c-0.4-1.2-0.6-2.5-0.6-3.9
		c0-1.4,0.2-2.7,0.7-3.9s1.2-2.2,2-3.1s1.9-1.5,3.1-2c1.2-0.5,2.6-0.7,4-0.7c0.7,0,1.4,0.1,2,0.2s1.2,0.3,1.8,0.5
		c0.5,0.2,1,0.5,1.5,0.8s0.9,0.6,1.2,1l-1.5,2c-0.1,0.1-0.2,0.2-0.3,0.3c-0.1,0.1-0.3,0.1-0.5,0.1c-0.2,0-0.3,0-0.4-0.1
		c-0.1-0.1-0.3-0.2-0.4-0.3c-0.2-0.1-0.3-0.2-0.5-0.3c-0.2-0.1-0.4-0.2-0.7-0.3c-0.3-0.1-0.6-0.2-0.9-0.3s-0.7-0.1-1.2-0.1
		c-0.8,0-1.5,0.1-2.2,0.4c-0.7,0.3-1.2,0.7-1.7,1.2c-0.5,0.5-0.8,1.2-1.1,1.9c-0.3,0.7-0.4,1.6-0.4,2.5c0,1,0.1,1.8,0.4,2.6
		c0.3,0.8,0.6,1.4,1.1,1.9s1,0.9,1.6,1.2c0.6,0.3,1.3,0.4,1.9,0.4c0.4,0,0.8,0,1.1-0.1c0.3,0,0.6-0.1,0.9-0.2
		c0.3-0.1,0.6-0.2,0.8-0.4c0.3-0.2,0.5-0.3,0.8-0.6c0.1-0.1,0.2-0.2,0.3-0.2C388,32.5,388.2,32.5,388.3,32.5z"/>
	<path id="XMLID_604_" class="st1" d="M397,26.1h0.7c0.7,0,1.1-0.2,1.4-0.6l4.3-6.2c0.2-0.3,0.5-0.6,0.8-0.7
		c0.3-0.1,0.7-0.2,1.1-0.2h3.8l-5.6,7.7c-0.2,0.3-0.4,0.5-0.6,0.7c-0.2,0.2-0.4,0.3-0.7,0.5c0.3,0.1,0.6,0.3,0.9,0.5
		c0.3,0.2,0.5,0.5,0.7,0.9l5.7,8.8h-3.9c-0.3,0-0.5,0-0.6-0.1s-0.3-0.1-0.5-0.2s-0.2-0.2-0.3-0.3c-0.1-0.1-0.2-0.2-0.3-0.3l-4.3-6.6
		c-0.2-0.2-0.4-0.4-0.6-0.5c-0.2-0.1-0.6-0.1-1-0.1H397v8.1h-4.4V18.5h4.4V26.1z"/>
	<path id="XMLID_606_" class="st1" d="M419,18.5c0.1,0,0.2,0,0.4,0.1c0.1,0,0.2,0.1,0.3,0.2c0.1,0.1,0.2,0.2,0.3,0.4l9,11.4
		c0-0.4-0.1-0.7-0.1-1.1c0-0.3,0-0.7,0-1v-10h3.9v18.9h-2.3c-0.3,0-0.6-0.1-0.9-0.2c-0.2-0.1-0.5-0.3-0.7-0.6L420,25.4
		c0,0.3,0,0.7,0.1,1c0,0.3,0,0.6,0,0.9v10.2h-3.9V18.5h2.3C418.7,18.5,418.9,18.5,419,18.5z"/>
	<path id="XMLID_608_" class="st1" d="M453.5,37.4h-3.4c-0.4,0-0.7-0.1-0.9-0.3c-0.2-0.2-0.4-0.4-0.5-0.7l-1.1-3.3h-7.2l-1.1,3.3
		c-0.1,0.2-0.3,0.5-0.5,0.7s-0.6,0.3-0.9,0.3h-3.4l7.3-18.9h4.5L453.5,37.4z M441.3,30.2h5.2l-1.7-5.2c-0.1-0.3-0.2-0.7-0.4-1.2
		c-0.2-0.4-0.3-0.9-0.4-1.4c-0.1,0.5-0.3,1-0.4,1.5s-0.3,0.8-0.4,1.2L441.3,30.2z"/>
	<path id="XMLID_611_" class="st1" d="M465.2,29.8c0.2,0.4,0.3,0.7,0.5,1.1c0.1-0.4,0.3-0.8,0.5-1.1c0.2-0.4,0.3-0.7,0.5-1l4.9-9.6
		c0.1-0.2,0.2-0.3,0.3-0.4s0.2-0.2,0.3-0.2c0.1,0,0.2-0.1,0.4-0.1c0.1,0,0.3,0,0.5,0h3.4v18.9h-3.9V26.5c0-0.5,0-1.1,0.1-1.7l-5,9.7
		c-0.2,0.3-0.4,0.5-0.6,0.7c-0.3,0.2-0.6,0.2-0.9,0.2h-0.6c-0.3,0-0.6-0.1-0.9-0.2c-0.3-0.2-0.5-0.4-0.6-0.7l-5-9.8
		c0,0.3,0.1,0.6,0.1,0.9c0,0.3,0,0.6,0,0.8v10.9H455V18.5h3.4c0.2,0,0.4,0,0.5,0c0.1,0,0.3,0,0.4,0.1s0.2,0.1,0.3,0.2
		s0.2,0.2,0.3,0.4l4.9,9.6C464.9,29.1,465.1,29.4,465.2,29.8z"/>
	<path id="XMLID_613_" class="st1" d="M491.6,18.5v3.4h-7.8v4.4h6v3.3h-6V34h7.8v3.4h-12.2V18.5H491.6z"/>
</g>
<g id="XMLID_165_">
	<path id="XMLID_175_" class="st1" d="M351.8,56.7c0,1.1-0.2,2.1-0.5,2.9c-0.3,0.9-0.8,1.6-1.4,2.3c-0.6,0.6-1.4,1.1-2.2,1.5
		c-0.9,0.3-1.8,0.5-2.9,0.5h-5.4V49.5h5.4c1.1,0,2,0.2,2.9,0.5s1.6,0.8,2.2,1.5s1.1,1.4,1.4,2.3C351.7,54.6,351.8,55.6,351.8,56.7z
		 M349.8,56.7c0-0.9-0.1-1.7-0.4-2.4c-0.2-0.7-0.6-1.3-1-1.8s-1-0.8-1.6-1.1s-1.3-0.4-2.1-0.4h-3.4v11.2h3.4c0.8,0,1.5-0.1,2.1-0.4
		c0.6-0.3,1.2-0.6,1.6-1.1s0.8-1.1,1-1.8C349.7,58.4,349.8,57.6,349.8,56.7z"/>
	<path id="XMLID_569_" class="st1" d="M361.6,63.9h-0.8c-0.2,0-0.3,0-0.4-0.1c-0.1-0.1-0.2-0.2-0.2-0.3l-0.2-0.9
		c-0.3,0.2-0.5,0.5-0.8,0.6s-0.5,0.3-0.8,0.5c-0.3,0.1-0.6,0.2-0.9,0.3c-0.3,0.1-0.7,0.1-1.1,0.1c-0.4,0-0.8-0.1-1.1-0.2
		c-0.3-0.1-0.6-0.3-0.9-0.5c-0.3-0.2-0.5-0.5-0.6-0.8c-0.1-0.3-0.2-0.7-0.2-1.2c0-0.4,0.1-0.8,0.3-1.2c0.2-0.4,0.6-0.7,1.1-1
		c0.5-0.3,1.1-0.5,1.9-0.7c0.8-0.2,1.8-0.3,2.9-0.3v-0.8c0-0.8-0.2-1.4-0.5-1.8c-0.3-0.4-0.8-0.6-1.5-0.6c-0.4,0-0.8,0.1-1.1,0.2
		c-0.3,0.1-0.6,0.2-0.8,0.4c-0.2,0.1-0.4,0.3-0.6,0.4c-0.2,0.1-0.3,0.2-0.5,0.2c-0.1,0-0.2,0-0.3-0.1c-0.1-0.1-0.2-0.1-0.2-0.2
		l-0.3-0.6c0.6-0.5,1.2-0.9,1.8-1.2c0.6-0.3,1.4-0.4,2.1-0.4c0.6,0,1.1,0.1,1.5,0.3c0.4,0.2,0.8,0.4,1.1,0.8
		c0.3,0.3,0.5,0.7,0.7,1.2c0.2,0.5,0.2,1,0.2,1.6V63.9z M357,62.8c0.3,0,0.6,0,0.9-0.1c0.3-0.1,0.5-0.2,0.7-0.3s0.5-0.3,0.7-0.4
		s0.4-0.4,0.6-0.6v-2.1c-0.8,0-1.5,0.1-2.1,0.2c-0.6,0.1-1,0.2-1.4,0.4c-0.4,0.2-0.6,0.4-0.8,0.6c-0.2,0.2-0.2,0.5-0.2,0.8
		c0,0.3,0,0.5,0.1,0.7c0.1,0.2,0.2,0.4,0.4,0.5c0.1,0.1,0.3,0.2,0.5,0.3C356.6,62.7,356.8,62.8,357,62.8z"/>
	<path id="XMLID_572_" class="st1" d="M362.7,53.7h1.5c0.1,0,0.3,0,0.4,0.1c0.1,0.1,0.2,0.2,0.2,0.3l2.6,6.5
		c0.1,0.2,0.2,0.5,0.2,0.7c0.1,0.2,0.1,0.5,0.1,0.7c0.1-0.2,0.1-0.5,0.2-0.7c0.1-0.2,0.1-0.5,0.2-0.7l2.6-6.5c0-0.1,0.1-0.2,0.2-0.3
		c0.1-0.1,0.2-0.1,0.3-0.1h1.4l-4.1,10.1h-1.6L362.7,53.7z"/>
	<path id="XMLID_574_" class="st1" d="M378.1,53.6c0.7,0,1.4,0.1,2,0.4s1.1,0.6,1.5,1c0.4,0.5,0.7,1,1,1.6c0.2,0.6,0.3,1.4,0.3,2.2
		c0,0.8-0.1,1.5-0.3,2.2c-0.2,0.6-0.5,1.2-1,1.6c-0.4,0.5-0.9,0.8-1.5,1s-1.3,0.4-2,0.4c-0.7,0-1.4-0.1-2-0.4
		c-0.6-0.2-1.1-0.6-1.5-1c-0.4-0.5-0.7-1-1-1.6c-0.2-0.6-0.3-1.4-0.3-2.2c0-0.8,0.1-1.5,0.3-2.2c0.2-0.6,0.5-1.2,1-1.6
		c0.4-0.5,0.9-0.8,1.5-1C376.7,53.7,377.3,53.6,378.1,53.6z M378.1,62.6c1,0,1.7-0.3,2.2-1c0.5-0.7,0.7-1.6,0.7-2.8
		c0-1.2-0.2-2.1-0.7-2.8c-0.5-0.7-1.2-1-2.2-1c-0.5,0-0.9,0.1-1.3,0.3c-0.4,0.2-0.7,0.4-0.9,0.8s-0.4,0.7-0.6,1.2
		c-0.1,0.5-0.2,1-0.2,1.6s0.1,1.1,0.2,1.6c0.1,0.5,0.3,0.9,0.6,1.2s0.6,0.6,0.9,0.7C377.1,62.5,377.6,62.6,378.1,62.6z"/>
	<path id="XMLID_577_" class="st1" d="M390.9,55.4c-0.1,0.1-0.2,0.2-0.4,0.2c-0.1,0-0.2,0-0.3-0.1c-0.1-0.1-0.3-0.2-0.5-0.2
		c-0.2-0.1-0.4-0.2-0.7-0.3c-0.3-0.1-0.6-0.1-0.9-0.1c-0.3,0-0.6,0-0.8,0.1c-0.2,0.1-0.4,0.2-0.6,0.3s-0.3,0.3-0.4,0.5
		c-0.1,0.2-0.1,0.4-0.1,0.6c0,0.3,0.1,0.5,0.2,0.7c0.1,0.2,0.3,0.3,0.6,0.4c0.2,0.1,0.5,0.2,0.8,0.3c0.3,0.1,0.6,0.2,1,0.3
		c0.3,0.1,0.7,0.2,1,0.4s0.6,0.3,0.8,0.5c0.2,0.2,0.4,0.4,0.6,0.7s0.2,0.6,0.2,1c0,0.5-0.1,0.9-0.3,1.3c-0.2,0.4-0.4,0.7-0.7,1
		s-0.7,0.5-1.2,0.7c-0.5,0.2-1,0.3-1.6,0.3c-0.7,0-1.3-0.1-1.9-0.3c-0.6-0.2-1.1-0.5-1.5-0.9l0.4-0.7c0.1-0.1,0.1-0.2,0.2-0.2
		c0.1,0,0.2-0.1,0.3-0.1s0.2,0,0.4,0.1s0.3,0.2,0.5,0.3c0.2,0.1,0.4,0.2,0.7,0.3c0.3,0.1,0.6,0.1,1,0.1c0.3,0,0.7,0,0.9-0.1
		c0.3-0.1,0.5-0.2,0.6-0.4s0.3-0.3,0.4-0.5c0.1-0.2,0.1-0.4,0.1-0.6c0-0.3-0.1-0.5-0.2-0.7c-0.1-0.2-0.3-0.3-0.6-0.5
		s-0.5-0.2-0.8-0.3c-0.3-0.1-0.6-0.2-1-0.3c-0.3-0.1-0.7-0.2-1-0.4c-0.3-0.1-0.6-0.3-0.8-0.5s-0.4-0.5-0.6-0.8
		c-0.2-0.3-0.2-0.7-0.2-1.1c0-0.4,0.1-0.8,0.2-1.1c0.2-0.4,0.4-0.7,0.7-0.9s0.7-0.5,1.1-0.6c0.4-0.2,1-0.2,1.5-0.2
		c0.7,0,1.3,0.1,1.8,0.3c0.5,0.2,1,0.5,1.4,0.9L390.9,55.4z"/>
	<path id="XMLID_579_" class="st1" d="M397.2,57.1h4.9v1.5h-4.9V57.1z"/>
	<path id="XMLID_581_" class="st1" d="M409.9,62.5h3.1v-9.8c0-0.3,0-0.6,0-0.9l-2.6,2.2c-0.1,0.1-0.1,0.1-0.2,0.1
		c-0.1,0-0.1,0-0.2,0c-0.1,0-0.2,0-0.3-0.1c-0.1,0-0.1-0.1-0.2-0.2l-0.6-0.8l4.3-3.7h1.5v13h2.8v1.4h-7.7V62.5z"/>
	<path id="XMLID_583_" class="st1" d="M427.6,58.7h2.2v1c0,0.1,0,0.2-0.1,0.3s-0.2,0.1-0.3,0.1h-1.8v3.8H426v-3.8h-6.4
		c-0.1,0-0.2,0-0.3-0.1c-0.1-0.1-0.2-0.2-0.2-0.3l-0.2-0.9l7-9.3h1.7V58.7z M426,52.8c0-0.2,0-0.4,0-0.6c0-0.2,0-0.4,0.1-0.6
		l-5.2,7.1h5.1V52.8z"/>
	<path id="XMLID_586_" class="st1" d="M441.2,56.7c0,1.3-0.1,2.3-0.4,3.3c-0.3,0.9-0.6,1.7-1.1,2.3s-1,1-1.7,1.3s-1.3,0.4-2,0.4
		c-0.7,0-1.4-0.1-2-0.4s-1.2-0.7-1.6-1.3s-0.8-1.4-1.1-2.3c-0.3-0.9-0.4-2-0.4-3.3c0-1.3,0.1-2.3,0.4-3.3s0.6-1.7,1.1-2.3
		c0.5-0.6,1-1.1,1.6-1.3s1.3-0.4,2-0.4c0.7,0,1.4,0.1,2,0.4s1.2,0.7,1.7,1.3c0.5,0.6,0.8,1.4,1.1,2.3
		C441.1,54.4,441.2,55.4,441.2,56.7z M439.3,56.7c0-1.1-0.1-2-0.3-2.8c-0.2-0.7-0.4-1.3-0.7-1.8c-0.3-0.5-0.7-0.8-1.1-1
		c-0.4-0.2-0.8-0.3-1.3-0.3s-0.9,0.1-1.3,0.3c-0.4,0.2-0.8,0.5-1.1,1c-0.3,0.5-0.6,1.1-0.7,1.8c-0.2,0.7-0.3,1.7-0.3,2.8
		c0,1.1,0.1,2,0.3,2.8c0.2,0.7,0.4,1.3,0.7,1.8c0.3,0.5,0.7,0.8,1.1,1c0.4,0.2,0.8,0.3,1.3,0.3s0.9-0.1,1.3-0.3
		c0.4-0.2,0.8-0.5,1.1-1c0.3-0.5,0.6-1,0.7-1.8C439.2,58.7,439.3,57.8,439.3,56.7z"/>
	<path id="XMLID_589_" class="st1" d="M449.5,55.8h0.7c0.3,0,0.5,0,0.6-0.1s0.3-0.2,0.4-0.3L456,50c0.1-0.2,0.3-0.3,0.4-0.4
		c0.1-0.1,0.3-0.1,0.5-0.1h1.7l-5.5,6.2c-0.1,0.2-0.3,0.3-0.4,0.4c-0.1,0.1-0.3,0.2-0.4,0.3c0.2,0.1,0.3,0.1,0.5,0.3
		c0.1,0.1,0.3,0.3,0.4,0.5l5.7,6.8h-1.7c-0.1,0-0.2,0-0.3,0s-0.2,0-0.2-0.1s-0.1-0.1-0.2-0.1c-0.1-0.1-0.1-0.1-0.2-0.2l-5-5.7
		c-0.1-0.1-0.1-0.1-0.2-0.2c-0.1-0.1-0.1-0.1-0.2-0.1c-0.1,0-0.2-0.1-0.3-0.1c-0.1,0-0.2,0-0.4,0h-0.9v6.6h-1.9V49.5h1.9V55.8z"/>
	<path id="XMLID_591_" class="st1" d="M468.3,59.2c0.1,0.2,0.1,0.4,0.2,0.5c0.1-0.2,0.1-0.4,0.2-0.5c0.1-0.2,0.2-0.3,0.3-0.5
		l4.8-8.8c0.1-0.2,0.2-0.2,0.3-0.3c0.1,0,0.2-0.1,0.4-0.1h1.4v14.3h-1.7V53.3c0-0.1,0-0.3,0-0.5s0-0.3,0-0.5l-4.9,9
		c-0.2,0.3-0.4,0.4-0.7,0.4h-0.3c-0.3,0-0.5-0.1-0.7-0.4l-5-9c0,0.2,0,0.3,0,0.5c0,0.2,0,0.3,0,0.5v10.5H461V49.5h1.4
		c0.2,0,0.3,0,0.4,0.1c0.1,0,0.2,0.1,0.3,0.3l5,8.8C468.2,58.8,468.2,59,468.3,59.2z"/>
</g>
<rect id="XMLID_166_" x="317.7" y="42.4" class="st14" width="179.9" height="1.7"/>
</svg>
