<svg id="connectingDotsChart" version="1.0" xmlns="http://www.w3.org/2000/svg"
     xmlns:xlink="http://www.w3.org/1999/xlink">
  <defs>
    <filter id="penFilter" y="-0.15" height="1.3" x="-0.15" width="1.3" style="color-interpolation-filters:sRGB;">
      <feTurbulence type="fractalNoise" baseFrequency="0.04" numOctaves="5" seed="0" result="result4"
                    id="feTurbulence7562" />
      <feDisplacementMap in="SourceGraphic" in2="result4" yChannelSelector="G" xChannelSelector="R" scale="10"
                         result="result3" id="feDisplacementMap7564" />
      <feDiffuseLighting lighting-color="#E9E6D7" diffuseConstant="1" surfaceScale="2" result="result1"
                         in="result4" id="feDiffuseLighting7566">
        <feDistantLight azimuth="235" elevation="40" id="feDistantLight7568" />
      </feDiffuseLighting>
      <feComposite operator="in" in="result3" in2="result1" result="result2" id="feComposite7570" />
      <feComposite in2="result1" result="result5" operator="arithmetic" k1="1.7" id="feComposite7572" />
      <feBlend in="result5" in2="result3" mode="normal" id="feBlend7574" />
    </filter>

    <linearGradient id="linearGradientPenBodyColors">
      <stop stop-color="#fe9f1e"  offset="0" id="stop14524" />
      <stop stop-color="#ffffff" offset="1" id="stop14526" />
    </linearGradient>

    <linearGradient xlink:href="#linearGradientPenBodyColors" id="linearGradientPen"
                    transform="translate(-2020, -1460) scale(2, 2)" x1="970.27972" y1="673.38855" x2="935.8631"
                    y2="650.89386" gradientUnits="userSpaceOnUse" />

    <linearGradient id="linearGradientPenOutlineColors">
      <stop style="stop-color:#1a1a1a" offset="0" id="stop14532" />
      <stop style="stop-color:#1a1a1a" offset="1" id="stop14534" />
    </linearGradient>

    <linearGradient id="linearGradientPenOutline" xlink:href="#linearGradientPenOutlineColors" x1="969.22052"
                    y1="682.45593" x2="943.24713" y2="661.58893" gradientUnits="userSpaceOnUse" />

    <g id="startHere" stroke="#ff0000" fill="#ff0000" transform="translate(-100, -1580) scale(2, 2)">
      <path id="startHereText"
            d="m 40.272186,650.04334 c -0.120549,0 -0.24021,0.0667 -0.360771,0.20068 -0.107157,0.12055 -0.180789,0.28852 -0.220964,0.50283 -0.0134,0.0804 -0.0203,0.24833 -0.0203,0.50282 0,0.509 0.04829,1.14409 0.142057,1.90758 0.09375,0.7635 0.139795,1.39393 0.139795,1.88954 0,0.60276 -0.07363,0.95711 -0.220977,1.06427 -0.147333,0.0938 -0.529288,0.20653 -1.145439,0.34047 -0.616162,0.12056 -1.172962,0.26318 -1.668574,0.42391 -0.48221,0.16074 -0.721542,0.35404 -0.721542,0.58175 0,0.32147 0.193304,0.48253 0.581747,0.48253 0.200924,0 0.709432,-0.0736 1.526517,-0.22097 0.817074,-0.14735 1.332486,-0.22098 1.546801,-0.22098 0.04019,0 0.06778,0.0207 0.08117,0.0609 0.01339,0.0268 0.03409,0.11886 0.06089,0.2796 0.02678,0.16073 0.04522,0.40921 0.05862,0.74409 0.02678,0.33486 0.06128,0.81114 0.101467,1.4273 0.09376,1.15194 0.188085,2.27709 0.281851,3.37545 0.107158,1.08498 0.18079,1.88802 0.220965,2.4104 0.04019,0.50901 0.06089,1.01062 0.06089,1.50622 0,0.68314 0.07363,1.23993 0.220965,1.66857 0.160748,0.42863 0.360932,0.64263 0.602043,0.64263 0.308081,0 0.462237,-0.2071 0.462237,-0.62234 0,-0.22771 -0.09433,-1.2056 -0.281852,-2.93351 -0.187531,-1.74132 -0.314096,-3.60967 -0.381066,-5.60548 l -0.121762,-3.39576 1.005656,-0.24126 c 1.473412,-0.36166 2.209719,-0.69067 2.209719,-0.98536 0,-0.29468 -0.335915,-0.44194 -1.005644,-0.44194 -0.334877,0 -0.762861,0.0598 -1.285257,0.18038 -0.508993,0.10716 -0.817316,0.16234 -0.924474,0.16234 -0.02678,0 -0.04523,-0.007 -0.05862,-0.0203 -0.02678,-0.0268 -0.07507,-0.46858 -0.142057,-1.32584 -0.06697,-0.85726 -0.140602,-1.73618 -0.220965,-2.63363 -0.08037,-0.89744 -0.140198,-1.39216 -0.180385,-1.48592 -0.06697,-0.14735 -0.182002,-0.22098 -0.342739,-0.22098 z m 32.180768,0 c -0.120549,0 -0.242473,0.0667 -0.363022,0.20068 -0.107158,0.12055 -0.18079,0.28852 -0.220977,0.50283 -0.01339,0.0804 -0.02028,0.24833 -0.02028,0.50282 0,0.509 0.04828,1.14409 0.142046,1.90758 0.09377,0.7635 0.139806,1.39393 0.139806,1.88954 0,0.60276 -0.07363,0.95711 -0.220976,1.06427 -0.147345,0.0938 -0.529289,0.20653 -1.145451,0.34047 -0.616151,0.12056 -1.172962,0.26318 -1.668563,0.42391 -0.482209,0.16074 -0.721542,0.35404 -0.721542,0.58175 0,0.32147 0.193293,0.48253 0.581748,0.48253 0.200912,0 0.709431,-0.0736 1.526505,-0.22097 0.817074,-0.14735 1.332498,-0.22098 1.546813,-0.22098 0.04018,0 0.06778,0.0207 0.08117,0.0609 0.01339,0.0268 0.03409,0.11886 0.06088,0.2796 0.02679,0.16073 0.04748,0.40921 0.06089,0.74409 0.02678,0.33486 0.05903,0.81114 0.0992,1.4273 0.09376,1.15194 0.188097,2.27709 0.281851,3.37545 0.107169,1.08498 0.18079,1.88802 0.220977,2.4104 0.04019,0.50901 0.06089,1.01062 0.06089,1.50622 0,0.68314 0.07362,1.23993 0.220965,1.66857 0.160737,0.42863 0.360933,0.64263 0.602043,0.64263 0.30807,0 0.462237,-0.2071 0.462237,-0.62234 0,-0.22771 -0.09433,-1.2056 -0.281851,-2.93351 -0.187532,-1.74132 -0.314096,-3.60967 -0.381067,-5.60548 l -0.121761,-3.39576 1.005644,-0.24126 c 1.473423,-0.36166 2.209731,-0.69067 2.209731,-0.98536 0,-0.29468 -0.333664,-0.44194 -1.003394,-0.44194 -0.334876,0 -0.765111,0.0598 -1.287507,0.18038 -0.508993,0.10716 -0.817317,0.16234 -0.924474,0.16234 -0.0268,0 -0.04523,-0.007 -0.05862,-0.0203 -0.0268,-0.0268 -0.07509,-0.46858 -0.142057,-1.32584 -0.06697,-0.85726 -0.140603,-1.73618 -0.220977,-2.63363 -0.08036,-0.89744 -0.140198,-1.39216 -0.180374,-1.48592 -0.06698,-0.14735 -0.17975,-0.22098 -0.340487,-0.22098 z m 20.956289,2.14885 c -0.09377,0 -0.201893,0.0736 -0.322442,0.22097 -0.12055,0.13394 -0.221773,0.30191 -0.302147,0.50282 -0.107158,0.2545 -0.16009,0.96547 -0.16009,2.13081 0,1.43324 0.05293,3.37521 0.16009,5.82644 0.160736,3.60319 0.308,5.98696 0.441941,7.1523 0.133953,1.16533 0.343304,1.8487 0.62459,2.04963 0.147344,0.0937 0.253209,0.13979 0.32018,0.13979 0.308081,0 0.462237,-0.7501 0.462237,-2.25031 0,-0.28129 -0.0138,-0.89103 -0.04058,-1.82865 l -0.11951,-3.63477 1.686607,-0.64489 c 0.77689,-0.29468 1.547687,-0.61453 2.311177,-0.9628 0.763507,-0.34826 1.331857,-0.61054 1.706904,-0.78468 0.37505,-0.17413 0.61663,-0.26156 0.72379,-0.26156 0.14735,0 0.24857,1.26552 0.30215,3.79712 0.0402,1.7547 0.12761,2.96729 0.26155,3.63702 0.13396,0.65635 0.36174,0.98536 0.68322,0.98536 0.067,0 0.1406,-0.007 0.22097,-0.0203 0.0938,-0.0268 0.19273,-0.0935 0.29989,-0.20068 0.12055,-0.12055 0.18263,-0.2747 0.18263,-0.46224 0,-0.067 -0.007,-0.13369 -0.0203,-0.20068 0,-0.0804 -0.007,-0.16779 -0.0203,-0.26155 -0.0134,-0.0938 -0.0272,-0.28016 -0.0406,-0.56145 -0.0134,-0.29468 -0.0341,-0.6513 -0.0609,-1.06652 -0.0134,-0.42864 -0.0341,-1.04528 -0.0609,-1.84896 -0.0134,-0.81708 -0.0249,-1.75358 -0.0383,-2.81175 -0.0134,-2.74593 -0.0755,-4.54065 -0.18263,-5.38452 -0.0938,-0.84386 -0.28706,-1.26495 -0.58175,-1.26495 -0.22771,0 -0.39567,0.1657 -0.50283,0.50057 -0.10716,0.32147 -0.21302,0.96571 -0.32018,1.93013 -0.12055,1.04478 -0.26781,1.64072 -0.44194,1.78807 -0.14734,0.14734 -0.683457,0.37513 -1.607687,0.6832 -1.071567,0.33488 -1.962034,0.62939 -2.671944,0.8839 -0.696528,0.2545 -1.131415,0.42245 -1.305544,0.50282 -0.174139,0.067 -0.275363,0.0992 -0.302147,0.0992 -0.214315,0 -0.428307,-1.39208 -0.642622,-4.17818 -0.214315,-2.79949 -0.428307,-4.20072 -0.642623,-4.20072 z m -62.440433,2.04962 c -1.272497,0 -2.137621,0.11502 -2.593041,0.34274 -0.897446,0.42863 -1.707381,1.1051 -2.430695,2.02934 -0.723314,0.91084 -1.084567,1.72078 -1.084567,2.43069 0,0.4956 0.589044,1.24571 1.767777,2.25031 1.192128,1.0046 2.075694,1.50621 2.651667,1.50621 0.267894,0 0.863831,0.21399 1.788074,0.64262 0.642946,0.29469 1.038686,0.52939 1.18603,0.70351 0.147345,0.16074 0.220977,0.44146 0.220977,0.84331 0,0.53579 -0.06674,0.91773 -0.200681,1.14545 -0.12055,0.21431 -0.442669,0.50883 -0.965065,0.88388 -0.321473,0.24111 -0.655126,0.40216 -1.003394,0.48253 -0.348256,0.0804 -0.870573,0.12177 -1.567098,0.12177 -0.817077,0 -1.334745,-0.0345 -1.54906,-0.10147 -0.200921,-0.067 -0.366623,-0.24648 -0.50057,-0.54116 -0.09376,-0.20092 -0.142054,-0.37578 -0.142054,-0.52312 0,-0.13394 0.101225,-0.30191 0.302146,-0.50282 0.200921,-0.21431 0.302146,-0.45591 0.302146,-0.7238 0,-0.36165 -0.147261,-0.54116 -0.441945,-0.54116 -0.388446,0 -0.689866,0.14036 -0.904182,0.42166 -0.214315,0.28128 -0.322439,0.64943 -0.322439,1.10486 0,0.54918 0.140363,1.09909 0.421652,1.64827 l 0.543411,1.12515 1.808364,-0.12176 c 1.835071,-0.12055 3.121286,-0.38058 3.857998,-0.78242 0.7367,-0.40184 1.259015,-1.1266 1.567096,-2.17139 0.107158,-0.38844 0.16009,-0.729 0.16009,-1.02369 0,-1.44663 -1.086018,-2.51194 -3.255954,-3.19508 -2.759312,-0.88404 -4.137594,-1.71467 -4.137594,-2.49157 0,-0.95102 0.462478,-1.83458 1.386713,-2.65166 0.93763,-0.81708 1.968452,-1.22662 3.093607,-1.22662 0.415239,-10e-6 0.797194,0.069 1.145451,0.20293 0.348268,0.13394 0.615192,0.28121 0.802712,0.44194 0.187532,0.14735 0.36928,0.28771 0.543419,0.42165 0.174129,0.13395 0.314489,0.20068 0.421646,0.20068 0.107158,0 0.16009,-0.16106 0.16009,-0.48253 0,-0.13394 -0.08743,-0.32259 -0.261556,-0.5637 -0.174128,-0.25451 -0.374324,-0.47539 -0.602031,-0.66292 -0.321473,-0.2679 -0.622893,-0.44049 -0.90419,-0.52086 -0.281286,-0.0804 -0.702378,-0.12177 -1.26495,-0.12177 z m 113.28883,3.67762 c -0.16074,0 -0.26886,0.0207 -0.32244,0.0609 -0.0536,0.0402 -0.0812,0.13916 -0.0812,0.2999 0,0.18752 0.0483,0.30944 0.14206,0.36302 0.067,0.0536 0.0992,0.16635 0.0992,0.34048 0,0.067 -0.007,0.17509 -0.0203,0.32244 -0.0134,0.14734 -0.018,0.24632 -0.018,0.29989 0,0.29468 0.0184,0.55697 0.0586,0.78467 0.0536,0.48221 0.10187,0.99073 0.14206,1.52652 0.0536,0.53579 0.0858,0.93843 0.0992,1.20632 0.0268,0.25451 0.0613,0.50764 0.10146,0.76214 0.0402,0.2411 0.0862,0.40906 0.1398,0.50281 0.067,0.0804 0.15439,0.12177 0.26155,0.12177 0.16074,0 0.27351,-0.18175 0.34048,-0.54341 0.16075,-0.87065 0.40233,-1.84165 0.7238,-2.91323 0.32148,-1.08497 0.49633,-1.80058 0.52311,-2.14884 l 0.0609,-0.74409 -0.70351,-0.0812 c -0.21431,-0.0134 -0.50194,-0.0387 -0.86359,-0.0789 -0.36166,-0.0536 -0.58944,-0.0812 -0.68321,-0.0812 z m -91.455423,0.0609 c -0.495601,0 -1.105344,0.14036 -1.828664,0.42166 -0.30807,0.13394 -0.676229,0.2812 -1.10486,0.44194 -0.42863,0.14735 -0.743846,0.26011 -0.944769,0.34048 -0.18752,0.0804 -0.389968,0.18159 -0.604283,0.30214 -0.214315,0.12055 -0.361579,0.24712 -0.441953,0.38107 -0.08036,0.13394 -0.119499,0.295 -0.119499,0.48253 0,0.13394 0.08052,0.20068 0.241261,0.20068 0.24111,0 0.629958,-0.12656 1.165746,-0.38106 0.535788,-0.2679 1.14552,-0.53018 1.828652,-0.78468 0.696525,-0.2545 1.352309,-0.38107 1.968459,-0.38107 0.482209,0 0.843465,0.34746 1.084564,1.04399 0.254502,0.69652 0.381067,1.94359 0.381067,3.73848 0,0.29469 -0.02534,0.44194 -0.07892,0.44194 -0.01339,0 -0.121519,-0.0667 -0.322431,-0.20068 -0.187531,-0.14733 -0.314096,-0.22096 -0.381066,-0.22096 -0.06698,0 -0.154399,-0.0552 -0.261556,-0.16235 -0.10717,-0.12055 -0.268218,-0.23332 -0.482533,-0.34048 -0.214315,-0.10716 -0.481251,-0.16009 -0.802724,-0.16009 -0.790279,0 -1.607122,0.24623 -2.45098,0.74184 -0.776898,0.42863 -1.319902,0.85197 -1.627983,1.2672 -0.294677,0.40185 -0.441941,0.88276 -0.441941,1.44535 0,0.37505 0.04603,0.74319 0.139794,1.10485 0.107158,0.36166 0.233722,0.60325 0.381067,0.7238 0.200923,0.14734 0.523031,0.2877 0.965065,0.42166 0.455414,0.12054 0.851165,0.18263 1.18603,0.18263 0.54918,0 1.225651,-0.26228 2.029334,-0.78468 0.817085,-0.53579 1.360089,-1.02361 1.627983,-1.46563 0.08037,-0.14734 0.140198,-0.22097 0.180385,-0.22097 0.01339,0 0.09393,0.42798 0.241261,1.28524 0.147344,0.84387 0.354444,1.26496 0.622338,1.26496 0.08036,0 0.200035,-0.10587 0.360771,-0.32019 0.174128,-0.21432 0.261556,-0.41676 0.261556,-0.60428 l -0.04059,-0.26157 c -0.02678,-0.18752 -0.05212,-0.62241 -0.07892,-1.30554 -0.02678,-0.69653 -0.04748,-1.55249 -0.06088,-2.57049 -0.02679,-1.82168 -0.05903,-2.92839 -0.09922,-3.31683 -0.04019,-0.40185 -0.182798,-0.83674 -0.423909,-1.30554 -0.495601,-0.96442 -1.183617,-1.44535 -2.067662,-1.44535 z m 56.859743,0 c -0.77689,0 -1.60526,0.45559 -2.48932,1.36643 -0.87065,0.91084 -1.44126,1.7737 -1.70915,2.59078 -0.13395,0.40184 -0.20067,0.89191 -0.20067,1.46789 -1e-5,0.93763 0.14036,1.7867 0.42164,2.5502 0.28129,0.7635 0.64945,1.37324 1.10486,1.82866 0.45543,0.45542 0.9455,0.80977 1.46788,1.06428 0.5358,0.24109 1.0719,0.36302 1.60769,0.36302 1.40645,0 2.81233,-0.62354 4.21877,-1.86925 0.40185,-0.34826 0.77689,-0.79004 1.12516,-1.32583 0.36166,-0.53579 0.54115,-0.92464 0.54115,-1.16574 0,-0.10717 -0.0322,-0.1601 -0.0992,-0.1601 -0.14735,0 -0.42807,0.17951 -0.84331,0.54116 -0.41522,0.34827 -0.85236,0.73711 -1.30779,1.16574 -0.45541,0.42863 -1.00997,0.82437 -1.66631,1.18603 -0.64295,0.34827 -1.25269,0.52313 -1.82865,0.52313 -0.75011,0 -1.47262,-0.33592 -2.16914,-1.00566 -0.92423,-0.88404 -1.38671,-1.82055 -1.38671,-2.81175 l 0,-0.80497 1.86699,-0.0992 c 1.21891,-0.067 2.45219,-0.24183 3.6979,-0.52311 0.96441,-0.21432 1.61329,-0.42831 1.94816,-0.64262 0.33486,-0.22771 0.50283,-0.55673 0.50283,-0.98536 0,-0.33487 -0.16106,-0.74906 -0.48254,-1.24466 -0.30808,-0.509 -0.67622,-0.92544 -1.10486,-1.24692 -0.33486,-0.2545 -0.63628,-0.42245 -0.90417,-0.50282 -0.25451,-0.0804 -0.70319,-0.14711 -1.34614,-0.20068 -0.42863,-0.0402 -0.75075,-0.0586 -0.96506,-0.0586 z m 22.95856,0 c -0.77689,0 -1.60752,0.45559 -2.49157,1.36643 -0.87066,0.91084 -1.44126,1.7737 -1.70915,2.59078 -0.13396,0.40184 -0.20068,0.89191 -0.20068,1.46789 0,0.93763 0.14036,1.7867 0.42165,2.5502 0.28129,0.7635 0.64944,1.37324 1.10486,1.82866 0.45542,0.45542 0.94549,0.80977 1.46788,1.06428 0.53579,0.24109 1.0719,0.36302 1.60769,0.36302 1.40644,0 2.81232,-0.62354 4.21877,-1.86925 0.40184,-0.34826 0.77689,-0.79004 1.12516,-1.32583 0.36164,-0.53579 0.5434,-0.92464 0.5434,-1.16574 0,-0.10717 -0.0345,-0.1601 -0.10146,-0.1601 -0.14735,0 -0.42807,0.17951 -0.84331,0.54116 -0.41523,0.34827 -0.85012,0.73711 -1.30554,1.16574 -0.45542,0.42863 -1.01222,0.82437 -1.66856,1.18603 -0.64294,0.34827 -1.25269,0.52313 -1.82866,0.52313 -0.75011,0 -1.47261,-0.33592 -2.16913,-1.00566 -0.92424,-0.88404 -1.38672,-1.82055 -1.38672,-2.81175 l 0,-0.80497 1.86924,-0.0992 c 1.21892,-0.067 2.44994,-0.24183 3.69566,-0.52311 0.96442,-0.21432 1.61555,-0.42831 1.95041,-0.64262 0.33487,-0.22771 0.50057,-0.55673 0.50057,-0.98536 0,-0.33487 -0.16105,-0.74906 -0.48253,-1.24466 -0.30808,-0.509 -0.67624,-0.92544 -1.10487,-1.24692 -0.33486,-0.2545 -0.63628,-0.42245 -0.90417,-0.50282 -0.25451,-0.0804 -0.70318,-0.14711 -1.34614,-0.20068 -0.42863,-0.0402 -0.74848,-0.0586 -0.9628,-0.0586 z m -73.096696,0.1601 c -0.227707,0 -0.414107,0.214 -0.56144,0.64263 -0.05358,0.16073 -0.08118,0.58872 -0.08118,1.28524 0,1.95562 0.161059,4.62237 0.482532,7.99784 0,0.0402 0.0069,0.10002 0.0203,0.18038 0.04019,0.42863 0.07468,0.72316 0.101466,0.8839 0.04019,0.16073 0.106915,0.30799 0.200681,0.44194 0.107158,0.13394 0.254421,0.20068 0.441941,0.20068 0.214316,0 0.38692,-0.21399 0.520861,-0.64262 0.133953,-0.41524 0.308809,-1.29881 0.523124,-2.65168 0.18752,-1.19212 0.709836,-2.4254 1.567097,-3.69789 0.870652,-1.28589 1.721979,-2.09583 2.552457,-2.4307 0.508993,-0.20092 0.762121,-0.38042 0.762121,-0.54115 0,-0.0938 -0.08517,-0.20879 -0.259293,-0.34274 -0.17414,-0.14735 -0.376587,-0.22097 -0.604294,-0.22097 -0.562584,0 -1.239055,0.32901 -2.029345,0.98535 -0.776888,0.64295 -1.398164,1.39996 -1.866981,2.27061 -0.375052,0.73671 -0.62354,1.10486 -0.744089,1.10486 -0.09377,0 -0.234126,-0.66957 -0.421658,-2.00904 -0.18752,-1.33947 -0.281851,-2.31047 -0.281851,-2.91323 0,-0.36166 -0.108128,-0.54341 -0.322443,-0.54341 z m 59.766216,0 c -0.22772,0 -0.41411,0.214 -0.56145,0.64263 -0.0536,0.16073 -0.0812,0.58872 -0.0812,1.28524 0,1.95562 0.16106,4.62237 0.48253,7.99784 0,0.0402 0.007,0.10002 0.0203,0.18038 0.0402,0.42863 0.0747,0.72316 0.10147,0.8839 0.0402,0.16073 0.10692,0.30799 0.20068,0.44194 0.10716,0.13394 0.25442,0.20068 0.44194,0.20068 0.21432,0 0.38692,-0.21399 0.52088,-0.64262 0.13394,-0.41524 0.30879,-1.29881 0.52311,-2.65168 0.18753,-1.19212 0.70983,-2.4254 1.56709,-3.69789 0.87066,-1.28589 1.72198,-2.09583 2.55246,-2.4307 0.50899,-0.20092 0.76213,-0.38042 0.76213,-0.54115 0,-0.0938 -0.0852,-0.20879 -0.2593,-0.34274 -0.17414,-0.14735 -0.37659,-0.22097 -0.60429,-0.22097 -0.56259,0 -1.23906,0.32901 -2.02934,0.98535 -0.7769,0.64295 -1.39817,1.39996 -1.86699,2.27061 -0.37505,0.73671 -0.62354,1.10486 -0.74409,1.10486 -0.0938,0 -0.23412,-0.66957 -0.42166,-2.00904 -0.18752,-1.33947 -0.28185,-2.31047 -0.28185,-2.91323 0,-0.36166 -0.10811,-0.54341 -0.32243,-0.54341 z m -8.62242,0.78242 c 0.33486,0 0.60178,0.0552 0.80271,0.16234 0.21431,0.0938 0.52953,0.32846 0.94477,0.70351 0.60276,0.53579 0.90418,0.89704 0.90418,1.08456 0,0.40185 -0.33366,0.68257 -1.0034,0.84331 -2.23692,0.509 -3.96491,0.76438 -5.18382,0.76438 -0.32147,0 -0.48253,-0.0874 -0.48253,-0.26155 0,-0.38845 0.50851,-1.16615 1.5265,-2.33148 0.33488,-0.38846 0.66389,-0.64159 0.98536,-0.76214 0.33487,-0.13394 0.83648,-0.20293 1.50623,-0.20293 z m 22.95629,0 c 0.33487,0 0.60406,0.0552 0.80498,0.16234 0.21432,0.0938 0.52728,0.32846 0.94251,0.70351 0.60277,0.53579 0.90419,0.89704 0.90419,1.08456 0,0.40185 -0.33367,0.68257 -1.0034,0.84331 -2.23691,0.509 -3.96491,0.76438 -5.18383,0.76438 -0.32147,0 -0.48253,-0.0874 -0.48253,-0.26155 0,-0.38845 0.50852,-1.16615 1.52651,-2.33148 0.33487,-0.38846 0.66388,-0.64159 0.98535,-0.76214 0.33488,-0.13394 0.8365,-0.20293 1.50622,-0.20293 z m -81.928815,5.265 c 0.334876,0 0.636296,0.0345 0.90419,0.10147 0.267894,0.0536 0.477245,0.12721 0.624578,0.22097 0.160737,0.0804 0.287301,0.17244 0.381067,0.2796 0.107157,0.0938 0.173885,0.18119 0.200681,0.26155 0.04019,0.067 0.06087,0.12681 0.06087,0.18039 0,0.17414 -0.207089,0.46865 -0.622327,0.88389 -0.401836,0.40184 -0.604295,0.65723 -0.604295,0.76439 0,0.14734 -0.340556,0.38893 -1.023689,0.72379 -0.669729,0.32147 -1.233432,0.48253 -1.688858,0.48253 -0.241099,0 -0.508023,-0.0736 -0.802712,-0.22097 -0.241099,-0.13395 -0.395267,-0.26277 -0.462237,-0.38332 -0.05358,-0.12055 -0.08117,-0.34834 -0.08117,-0.6832 0,-0.20093 0.04829,-0.42872 0.142057,-0.68322 0.107158,-0.26789 0.268206,-0.55552 0.482521,-0.8636 0.214316,-0.30808 0.534184,-0.56121 0.962814,-0.76212 0.442023,-0.20092 0.950542,-0.30215 1.526506,-0.30215 z m 93.266045,2.35178 c -0.20091,0 -0.35508,0.0253 -0.46224,0.0789 -0.16073,0.067 -0.34939,0.26943 -0.5637,0.60429 -0.20093,0.33488 -0.30215,0.5949 -0.30215,0.78243 0,0.14733 0.0621,0.2946 0.18265,0.44194 0.13394,0.14735 0.26051,0.22098 0.38105,0.22098 0.0536,0 0.18705,0.0529 0.40137,0.16009 0.2277,0.0938 0.39567,0.14205 0.50282,0.14205 0.2679,0 0.48189,-0.19555 0.64263,-0.58399 0.17413,-0.38846 0.26155,-0.73591 0.26155,-1.04399 0,-0.53578 -0.34746,-0.80271 -1.04398,-0.80271 z" />
      <path id="startHereArrow" fill="none" stroke="#ff0000"
            d="M 32.939855,774.41896 C 18.842221,756.39026 13.531013,708.38595 38.993937,687.43831" />
      <path id="startHereArrowHead" transform="translate(40, 780) rotate(225)"
            d="M 8.7185878,4.0337352 L -2.2072895,0.016013256 L 8.7185884,-4.0017078 C 6.9730900,-1.6296469 6.9831476,1.6157441 8.7185878,4.0337352 z " />
    </g>

    <g id="finishPen" transform="translate(-2020, -1460) scale(2, 2)">
      <path fill="url(#linearGradientPen)"
            d="m 942.04489,667.58331 29.57739,29.90091 18.9203,10.52308 2.90692,-2.44938 -6.40536,-18.46278 -32.94183,-43.16915 z" />
      <path fill="#fff4d4"
            d="m 971.32652,698.35189 c 2.5298,-7.81182 7.17998,-12.85794 16.69967,-11.55252 l 6.86289,19.55922 -3.88897,3.20267 z" />
      <path fill="#1a1a1a"
            d="m 985.62419,686.68499 c -5.48189,0.71579 -10.84665,4.52703 -13.26824,9.37927 -0.8201,-3.98706 7.24459,-11.892 13.26824,-9.37927 z" />
      <path fill="url(#linearGradientPenOutline)"
            d="m 988.71248,685.88432 10.75186,29.85354 -29.28164,-16.5853 -27.52054,-28.80145 -0.61727,-2.7678 29.73915,29.73915 18.75854,10.52308 2.74516,-2.28762 -6.40536,-18.30102 -32.94183,-43.00739 z" />
    </g>
  </defs>

</svg>