<svg id="forestChart" version="1.0" xmlns="http://www.w3.org/2000/svg" xmlns:xlink="http://www.w3.org/1999/xlink">
  <!--<style type="text/css">
            <![CDATA[ skier.shadow {
                fill: #000000;
            }

            skier.foreground {
                fill: #FEFEFE;
            }

            ]] >
        </style>-->


  <defs>
     <g id="testDefEntry" transform="translate(-180, -898)">
     </g>
    
      <g id="skier" transform="translate(-180, -898)">
      <g fill="#000000" opacity="0.75">
        <path class="st42" d="M 25.6 804.9 c 9.1 3.8 18.1 7.6 27.2 11.4 c 2.4 1 4.8 2.1 6.2 2.7 c 6.9 -5.7 12.6 -11.8 19.5 -15.6 c 4.9 -2.7 11.4 -2.6 17.2 -2.9 c 1.5 -0.1 3.1 3 4.6 4.6 c -1.8 1.4 -3.4 3.5 -5.4 4 c -5.9 1.2 -12 1.2 -17.8 2.8 c -4.9 1.4 -9.4 4.4 -14.7 7 c 1.7 2.3 2.5 3.5 3.4 4.6 c -0.2 0.5 -0.4 1 -0.7 1.5 c -13.2 -5.7 -26.5 -11.4 -39.7 -17.1 C 25.6 806.8 25.6 805.9 25.6 804.9 Z" />
        <path class="st42" d="M 170.9 852.8 c -3.5 -13.5 -7 -26.9 -10.1 -38.8 c -9 1.8 -17.7 3.9 -26.5 5.2 c -2.8 0.4 -6.4 -0.8 -8.8 -2.4 c -1.9 -1.3 -2.6 -4.5 -3.9 -6.9 c 2.4 -0.6 4.9 -1.9 7.1 -1.6 c 4 0.5 7.9 2.2 11.9 3.1 c 2.1 0.5 4.3 0.6 6.5 0.7 c 9.6 0.4 11.9 -1.6 14 -10.7 c 3.3 12.8 6.6 25.6 9.9 38.4 C 170.9 844.1 170.9 848.5 170.9 852.8 Z" />
        <path class="st42" d="M 27.1 899.3 c 2.4 -1 4.7 -2.9 7.1 -2.9 c 28 -0.2 56.1 0 84.1 -0.2 c 4.7 0 9.3 -1.3 14 -2 c 8.1 4.5 16.4 2.1 26.6 -1.4 c -2.6 3.1 -4.1 4.8 -5.5 6.5 C 111.3 899.3 69.2 899.3 27.1 899.3 Z" />
        <path class="st42" d="M 120 784.5 c 1.1 0.9 2.2 1.8 3.1 2.8 c 4.5 4.6 4.8 10.6 0.6 14.8 c -4 4.1 -11 4 -14.9 -0.1 c -4.2 -4.4 -3.9 -10.2 0.7 -14.7 c 1 -1 2.1 -1.8 3.1 -2.8 C 115.2 784.5 117.6 784.5 120 784.5 Z" />
        <path class="st42" d="M 61.7 890 c 8 -11.8 16 -23.6 24 -35.3 c 2.2 -3.2 4.5 -5.8 1.6 -10.2 c -0.9 -1.4 1.9 -7.6 2.7 -7.5 c 6.2 0.6 12.7 1.1 18.2 3.8 c 4.1 2 6.6 7.3 10.1 10.8 c 3.7 3.5 5.7 7.4 3.6 12.3 c -4 9.7 -8.3 19.3 -12.4 29 c -0.8 -0.3 -1.6 -0.5 -2.4 -0.8 c 1.4 -7.6 2.5 -15.3 4.2 -22.8 c 1.4 -6 -1.7 -8.5 -6.4 -11.2 c -5 -2.9 -6.3 1.2 -8.8 3.4 c -11.1 10 -22.2 20 -33.3 30 C 62.5 890.9 62.1 890.4 61.7 890 Z" />
      </g>
      <g fill="#FEFEFE">
        <path class="st53" d="M 24.6 803.9 c 9.1 3.8 18.1 7.6 27.2 11.4 c 2.4 1 4.8 2.1 6.2 2.7 c 6.9 -5.7 12.6 -11.8 19.5 -15.6 c 4.9 -2.7 11.4 -2.6 17.2 -2.9 c 1.5 -0.1 3.1 3 4.6 4.6 c -1.8 1.4 -3.4 3.5 -5.4 4 c -5.9 1.2 -12 1.2 -17.8 2.8 c -4.9 1.4 -9.4 4.4 -14.7 7 c 1.7 2.3 2.5 3.5 3.4 4.6 c -0.2 0.5 -0.4 1 -0.7 1.5 c -13.2 -5.7 -26.5 -11.4 -39.7 -17.1 C 24.6 805.8 24.6 804.9 24.6 803.9 Z" />
        <path class="st53" d="M 169.9 851.8 c -3.5 -13.5 -7 -26.9 -10.1 -38.8 c -9 1.8 -17.7 3.9 -26.5 5.2 c -2.8 0.4 -6.4 -0.8 -8.8 -2.4 c -1.9 -1.3 -2.6 -4.5 -3.9 -6.9 c 2.4 -0.6 4.9 -1.9 7.1 -1.6 c 4 0.5 7.9 2.2 11.9 3.1 c 2.1 0.5 4.3 0.6 6.5 0.7 c 9.6 0.4 11.9 -1.6 14 -10.7 c 3.3 12.8 6.6 25.6 9.9 38.4 C 169.9 843.1 169.9 847.5 169.9 851.8 Z" />
        <path class="st53" d="M 26.1 898.3 c 2.4 -1 4.7 -2.9 7.1 -2.9 c 28 -0.2 56.1 0 84.1 -0.2 c 4.7 0 9.3 -1.3 14 -2 c 8.1 4.5 16.4 2.1 26.6 -1.4 c -2.6 3.1 -4.1 4.8 -5.5 6.5 C 110.3 898.3 68.2 898.3 26.1 898.3 Z" />
        <path class="st53" d="M 119 783.5 c 1.1 0.9 2.2 1.8 3.1 2.8 c 4.5 4.6 4.8 10.6 0.6 14.8 c -4 4.1 -11 4 -14.9 -0.1 c -4.2 -4.4 -3.9 -10.2 0.7 -14.7 c 1 -1 2.1 -1.8 3.1 -2.8 C 114.2 783.5 116.6 783.5 119 783.5 Z" />
        <path class="st53" d="M 60.7 889 c 8 -11.8 16 -23.6 24 -35.3 c 2.2 -3.2 4.5 -5.8 1.6 -10.2 c -0.9 -1.4 1.9 -7.6 2.7 -7.5 c 6.2 0.6 12.7 1.1 18.2 3.8 c 4.1 2 6.6 7.3 10.1 10.8 c 3.7 3.5 5.7 7.4 3.6 12.3 c -4 9.7 -8.3 19.3 -12.4 29 c -0.8 -0.3 -1.6 -0.5 -2.4 -0.8 c 1.4 -7.6 2.5 -15.3 4.2 -22.8 c 1.4 -6 -1.7 -8.5 -6.4 -11.2 c -5 -2.9 -6.3 1.2 -8.8 3.4 c -11.1 10 -22.2 20 -33.3 30 C 61.5 889.9 61.1 889.4 60.7 889 Z" />
      </g>
    </g>

    <g id="finish_flag" transform="translate(-1810, -554)">
      <g>
        <path class=" st42" d="M 1809 553.8 c -1.3 -12.2 -2.7 -24.4 -4 -36.5 c -2.3 -21.2 -4.7 -42.4 -7 -63.7 c 0 -0.4 0 -0.7 0 -1.1 c 0.1 -0.1 0.2 -0.2 0.4 -0.4 c 1 -0.1 1.1 -0.1 1.5 1.6 c 0.4 -0.1 0.8 -0.1 1.1 -0.2 c 2.2 -0.7 4.5 -1.5 6.7 -2.3 c 0.6 -0.2 1.3 -0.4 1.9 -0.7 c -0.2 0.1 -0.5 0.3 -0.8 0.4 c 0.5 2.8 1 5.6 1.5 8.3 c 3.5 -1.2 7.1 -2.3 10.7 -3.5 c -0.4 -2.7 -0.8 -5.5 -1.1 -8.3 c -0.4 0 -0.7 0 -1 0.1 c 1.5 -0.3 3.1 -0.6 4.6 -0.7 c 1.8 -0.2 3.6 0.1 5.2 1 c 1.1 0.6 1.9 1.4 2.1 2.7 c 0.2 0.9 0.4 1.8 0.5 2.7 c 0.1 0.7 0.2 1.5 0.3 2.2 c 0.3 -0.1 0.6 -0.2 0.9 -0.3 c 1.8 -0.6 3.7 -1.2 5.5 -1.6 c 1.1 -0.3 2.3 -0.2 3.4 -0.3 c -0.7 0.1 -1.3 0.1 -2 0.2 c 0 3.1 -0.1 6.2 -0.1 9.4 c 0.4 -0.1 0.6 -0.2 0.8 -0.2 c 1.2 -0.3 2.3 -0.7 3.5 -1 c 1.4 -0.3 2.8 -0.4 4.1 0.5 c 0 -0.3 0 -0.5 0 -0.7 c 0.2 1 0.5 1.9 0.7 3 c 2.2 0 4.5 0.1 6.7 -0.5 c 1.2 -0.3 2.3 -0.8 3.2 -1.7 c 0.1 0.1 0.1 0.1 0.2 0.2 c 0 0.1 0 0.2 0 0.2 c 0.6 2.7 1.1 5.4 1.7 8.1 c 0.1 0.6 0.2 1.2 0.3 1.9 c -0.1 -0.4 -0.3 -0.9 -0.4 -1.4 c -2 1.5 -4.3 2.5 -6.9 2.3 c 0.5 3.3 1 6.6 1.5 9.8 c 2.6 -0.3 4.9 -1.2 7.2 -2.6 c -0.2 -1 -0.4 -2.2 -0.6 -3.4 c -0.1 -0.4 -0.1 -0.8 -0.1 -1.3 c 0.1 0.2 0.2 0.5 0.2 0.7 c 0.6 3.8 1.3 7.7 1.9 11.5 c 1.5 8.9 2.8 17.9 6.3 26.4 c 0 0 -0.1 0.1 -0.1 0.1 c -0.2 0.1 -0.3 0.1 -0.5 0.2 c -2.5 1 -5 2.1 -7.5 3 c -2.7 1 -5.4 1.9 -8.2 2.1 c -1 0.1 -2.1 0.1 -3.1 -0.1 c -1.2 -0.2 -1.7 -1.1 -1.8 -2.3 c 0 -1.4 -0.1 -2.8 -0.1 -4.2 c 0 -0.2 0 -0.4 0 -0.7 c -2.2 1 -4.2 2 -6.4 2.9 c -1.4 0.6 -3 1.1 -4.4 1.6 c 0.1 -0.1 0.2 -0.1 0.4 -0.2 c 1.6 -0.6 3.1 -1.2 4.7 -1.8 c 0.7 -0.3 1.5 -0.7 2.1 -1 c 0 -3.4 -0.1 -6.7 -0.1 -10 c -2.5 1.1 -4.6 2.4 -7.2 3 c 0.2 0.9 0.4 1.7 0.6 2.6 c 0.4 1.5 -0.1 2.6 -1.5 3.4 c -0.6 0.3 -1.3 0.6 -1.9 1 c -0.5 0.3 -1 0.6 -1 1.2 c 0 0.7 0.3 1.4 1 1.7 c 0.5 0.2 1 0.3 1.5 0.3 c 0.4 0 0.8 0 1.2 -0.1 c -2.2 0.8 -3.7 -0.2 -4 -2 c -0.4 -2.1 -0.8 -4.2 -1.2 -6.3 c -0.6 0.1 -1.1 0.1 -1.6 0.2 c 0.6 -0.1 1.2 -0.3 1.7 -0.4 c 1.8 -0.2 3.5 -0.6 5.2 0.2 c -0.5 -3.2 -1.1 -6.5 -1.6 -9.8 c -3.8 -0.7 -7.5 -0.5 -11.3 0.3 c 0.5 3.5 1 7 1.6 10.5 c 0.4 -0.1 0.8 -0.1 1.1 -0.1 c -0.2 0.1 -0.4 0.2 -0.6 0.2 c -3.3 0.9 -6.6 1.7 -9.9 2.6 c -0.6 0.2 -1.3 0.3 -1.9 0.4 c 0.3 -0.1 0.6 -0.3 0.9 -0.4 c -0.6 -3.4 -1.2 -6.8 -1.7 -10.2 c -2.8 0.6 -5.7 1.2 -8.6 1.7 c 0.4 3.3 0.7 6.7 1.1 10.2 c 0.5 0 1 -0.1 1.4 -0.1 c 0.9 -0.1 1.9 -0.2 2.8 -0.4 c -0.2 0.1 -0.4 0.2 -0.6 0.2 c -1.2 0.2 -2.3 0.3 -3.6 0.5 c 0.1 0.6 0.1 1.3 0.2 2 c 1.3 12.1 2.7 24.2 4 36.3 c 0.1 1.1 -0.2 1.5 -1.3 1.4 C 1809.3 554.1 1809.2 554 1809 553.8 Z M 1850.1 473.3 c -0.5 -1.3 -0.9 -1.6 -2.3 -1.4 c -0.7 0.1 -1.4 0.2 -2.1 0.5 c -1.7 0.5 -3.4 1.2 -5.1 1.7 c 0.5 3.2 0.9 6.4 1.3 9.5 c 0.3 -0.1 0.5 -0.2 0.7 -0.2 c 1.7 -0.5 3.4 -1.1 5.1 -1.6 c 1.2 -0.3 2.4 -0.5 3.6 0.1 c 0 -0.1 0 -0.2 -0.1 -0.3 c -0.4 -2.5 -0.8 -5 -1.2 -7.4 C 1850.2 473.9 1850.1 473.6 1850.1 473.3 c 0.1 0.1 0.2 0.3 0.2 0.4 c 0.9 -0.1 1.8 -0.2 2.8 -0.3 c -0.6 -2.9 -1.2 -5.8 -1.8 -8.7 c -1 0 -1.8 0 -2.7 0 c 0.5 2.7 0.9 5.3 1.4 8 C 1850.1 472.9 1850.1 473.1 1850.1 473.3 Z M 1834.7 486.6 c -0.1 -1.1 -0.3 -2.3 -0.4 -3.4 c -0.2 -2.1 -0.4 -4.1 -0.5 -6.2 c -3.6 -0.5 -7.1 -0.2 -10.7 0.6 c 0.2 3.5 0.4 7 0.6 10.6 c 3.7 -1 7.3 -1.4 10.9 -0.6 C 1834.7 487.2 1834.7 486.9 1834.7 486.6 c 0 0.1 0.1 0.3 0.1 0.5 c 0.1 1.2 0.2 2.4 0.4 3.7 c 0.2 1.8 0.4 3.6 0.6 5.5 c 2.7 -0.2 5.2 -1.2 7.7 -2.1 c -0.5 -3.4 -1.1 -6.9 -1.6 -10.3 c -2.4 0.7 -4.7 1.7 -7.1 1.7 C 1834.7 486 1834.7 486.3 1834.7 486.6 Z M 1812.5 480.5 c 3.5 -1 6.9 -2.1 10.4 -3.1 c -0.2 -3.6 -0.5 -7.3 -0.7 -11.1 c -0.3 0.1 -0.5 0.1 -0.7 0.1 c -2.8 0.9 -5.6 1.7 -8.3 2.6 c -1.5 0.5 -1.4 0.5 -1.3 2.1 c 0 0.1 0 0.1 0 0.2 C 1812.1 474.4 1812.3 477.4 1812.5 480.5 Z M 1824.4 499.3 c -0.3 -3.6 -0.6 -7.2 -0.9 -10.8 c -0.2 0.1 -0.4 0.1 -0.6 0.2 c -3.1 1.1 -6.2 2.1 -9.4 3.2 c -0.4 0.1 -0.4 0.4 -0.3 0.7 c 0.3 3.1 0.6 6.2 0.9 9.2 c 0 0.2 0.1 0.3 0.1 0.5 C 1817.7 501.2 1821 500.2 1824.4 499.3 Z M 1821.4 456.2 c 0.3 3.3 0.6 6.6 1 9.9 c 3.5 -0.6 7 -0.6 10.5 0.4 c -0.3 -3.4 -0.7 -6.7 -1 -9.9 C 1828.3 455.6 1824.9 455.5 1821.4 456.2 Z M 1812.3 480.9 c -3.1 0.7 -6.2 1.4 -9.3 2.1 c 0.4 3.5 0.8 7.1 1.2 10.7 c 0.3 0 0.5 0 0.8 0 c 2.6 -0.3 5 -0.9 7.5 -1.6 c 0.5 -0.1 0.5 -0.4 0.5 -0.8 c -0.2 -2.5 -0.3 -5 -0.5 -7.5 C 1812.4 482.8 1812.4 481.8 1812.3 480.9 Z M 1801.9 472.5 c 0.1 0 0.2 0 0.3 0 c 3 -1 6 -1.9 8.9 -2.9 c 0.1 0 0.3 -0.4 0.3 -0.6 c -0.3 -2.9 -0.7 -5.8 -1 -8.7 c 0 -0.2 -0.1 -0.3 -0.1 -0.4 c -3.2 1 -6.3 2 -9.4 3 C 1801.2 466 1801.6 469.2 1801.9 472.5 Z M 1854.3 501.6 c 0 -0.3 0 -0.5 -0.1 -0.7 c -0.3 -2.4 -0.7 -4.9 -1 -7.3 c -0.1 -1 -0.6 -1.5 -1.6 -1.5 c -0.8 0 -1.7 0.1 -2.4 0.3 c -1.7 0.5 -3.4 1.2 -5.1 1.7 c -0.4 0.1 -0.3 0.4 -0.3 0.7 c 0.3 2.7 0.6 5.4 0.9 8 c 0 0.4 0.1 0.7 0.1 1.1 c 0.3 -0.2 0.6 -0.3 0.8 -0.4 c 1.9 -0.8 3.8 -1.6 5.8 -2.2 C 1852.3 501 1853.3 501.1 1854.3 501.6 Z M 1866.7 506.8 c -2.5 1.6 -5.2 3 -8.2 3.8 c 0.5 2.6 1 5.2 1.5 7.9 c 3.2 -1.3 6.3 -2.5 9.3 -3.8 C 1868.5 512 1867.6 509.4 1866.7 506.8 Z M 1833.8 475.6 c 2.3 -0.1 4.3 -0.8 6.4 -1.5 c 0.1 0 0.2 -0.4 0.2 -0.6 c -0.2 -2.1 -0.4 -4.2 -0.6 -6.3 c -0.1 -1.4 -0.2 -2.7 -0.3 -4 c -2.2 0.6 -4.4 1.3 -6.7 1.9 C 1833.2 468.5 1833.5 472 1833.8 475.6 Z M 1857.2 502.1 c 0.1 0 0.2 0 0.2 0 c 2.5 -1 4.9 -2.3 7.1 -3.8 c 0.3 -0.2 0.3 -0.5 0.3 -0.8 c -0.4 -2 -0.7 -4 -1 -6 c -0.1 -0.6 -0.2 -1.1 -0.3 -1.8 c -2.3 1.7 -4.8 2.6 -7.4 3.2 C 1856.4 495.9 1856.8 499 1857.2 502.1 Z M 1852 484.3 c 0.5 3.3 1 6.5 1.4 9.7 c 0.7 -0.4 1.3 -0.8 2 -1.1 c 0.4 -0.2 0.4 -0.4 0.4 -0.7 c -0.4 -2.7 -0.7 -5.4 -1 -8.1 c 0 -0.1 -0.1 -0.3 -0.1 -0.5 C 1853.8 483.9 1852.9 484.1 1852 484.3 Z M 1855.8 511 c 0.9 -0.2 1.7 -0.4 2.6 -0.5 c -0.4 -2.7 -0.8 -5.3 -1.3 -8 c -0.7 0.3 -1.4 0.6 -2 0.9 c -0.1 0.1 -0.3 0.4 -0.3 0.5 C 1855.1 506.2 1855.4 508.6 1855.8 511 Z" />
        <path class="st42" d="M 1861.3 476.2 c -0.2 -1.2 -0.4 -2.3 -0.6 -3.5 C 1860.9 473.9 1861.1 475 1861.3 476.2 Z" />
        <path class="st42" d="M 1847.9 461.6 c -0.1 -0.4 -0.2 -0.7 -0.3 -1.1 c -0.4 -1.5 -0.8 -3 -1.2 -4.6 c -0.3 -1.3 -1.2 -2 -2.5 -2.3 c -0.6 -0.1 -1.3 -0.2 -2 -0.3 c 1.2 -0.3 2.2 0.1 3.2 0.6 c 0.5 0.3 1 0.7 1.1 1.2 c 0.7 2.1 1.2 4.2 1.8 6.3 C 1848 461.5 1847.9 461.5 1847.9 461.6 Z" />
        <path class="st42" d="M 1816.1 448.4 c -0.6 0.2 -1.2 0.5 -1.8 0.7 c -1.1 0.4 -2.2 0.8 -3.3 1.1 c 0.1 -0.1 0.2 -0.2 0.3 -0.2 c 1.5 -0.5 3 -1.1 4.6 -1.6 C 1815.9 448.4 1816 448.4 1816.1 448.4 Z" />
        <path class="st42" d="M 1819 447.6 c -1 0.3 -2 0.5 -2.9 0.8 C 1817.1 448.2 1818 447.9 1819 447.6 Z" />
      </g>
    </g>
    <g id="tree1" transform="translate(-148, -723)">
      <rect fill="#65492A" x="141.9" y="658.2" width="11.9" height="65.7" />
      <path d="M 194 693.1 c -3.5 -3.9 -9.7 -9.2 -9.7 -15.2 c 1.6 2.9 7.9 4.2 10.9 2.9 c -4.7 -2.1 -7.4 -8.4 -8.2 -13.4 c 1.1 1.6 2.5 2.2 4.2 2.2 c -3.5 -3.1 -5.8 -7 -6.8 -12.6 c 1.8 1.5 3.8 1.8 5.8 0.9 c -5 -1.4 -13.4 -10.3 -14.9 -18.8 c 1.6 1.2 3.4 1.7 5.1 1.3 c -2.8 -2.1 -4.6 -4.5 -5.5 -8.7 c 2.6 2.3 5.8 3.5 8.8 3 c -6.6 -4.2 -12.2 -12.5 -16.3 -21.6 c 1.4 1.1 3 2.1 5.1 1.6 c -2.4 -1.9 -4.5 -4.7 -5.4 -7.1 c 1.7 2.1 3.7 3 5.9 3.1 c -1.2 -0.8 -2.2 -2.5 -2.7 -4.4 c 2 1.7 4.1 1.9 5.7 1.2 c -5.5 -3.4 -12.5 -11.5 -16.6 -21 c -0.1 0 -0.1 -0.1 -0.1 -0.2 c 1.6 1.7 2.8 2.2 5 1.6 c -3 -1.2 -5.7 -4.5 -7.2 -8.7 c 1.8 2.5 3.2 3.6 5.4 3 c -2.4 -0.7 -4.9 -4.3 -6.3 -7.8 c 1.4 2.8 4.8 3.6 7.6 2.2 c -6.5 -1.4 -11.4 -10 -15.5 -16.9 l 0 -0.8 c -0.1 0.1 -0.2 0.3 -0.2 0.4 c -0.1 -0.1 -0.2 -0.3 -0.2 -0.4 l 0 0.8 c -4.1 6.9 -9.1 15.5 -15.5 16.9 c 2.8 1.3 6.2 0.5 7.6 -2.2 c -1.4 3.5 -3.9 7.1 -6.3 7.8 c 2.2 0.5 3.6 -0.5 5.4 -3 c -1.5 4.2 -4.2 7.5 -7.2 8.7 c 2.2 0.7 3.4 0.2 5 -1.6 c 0 0.1 -0.1 0.2 -0.1 0.2 c -4.1 9.5 -11.1 17.5 -16.6 21 c 1.6 0.7 3.7 0.5 5.7 -1.2 c -0.5 1.9 -1.5 3.5 -2.7 4.4 c 2.2 -0.1 4.2 -1.1 5.9 -3.1 c -0.9 2.4 -3 5.2 -5.4 7.1 c 2.2 0.6 3.8 -0.5 5.1 -1.6 c -4.1 9.1 -9.7 17.4 -16.3 21.6 c 3 0.5 6.2 -0.7 8.8 -3 c -0.9 4.2 -2.7 6.6 -5.5 8.7 c 1.6 0.4 3.5 -0.1 5.1 -1.3 c -1.5 8.5 -9.9 17.4 -14.9 18.8 c 2 0.9 4 0.7 5.7 -0.9 c -1 5.6 -3.4 9.6 -6.8 12.6 c 1.7 0 3.1 -0.6 4.2 -2.2 c -0.9 5 -3.6 11.4 -8.2 13.4 c 3 1.3 9.2 -0.1 10.9 -2.9 c -0.1 6 -6.3 11.4 -9.7 15.2 c 5 -2.5 20.3 -5.9 23.7 -14.7 c 0 3.9 -3.5 7.5 -8.4 10.2 c 6.1 -0.8 11.5 -3.7 13.6 -7 c -0.4 2 -2.9 4.7 -6.2 5.8 c 6.4 -0.9 10.7 -2.3 14.1 -10.2 c 0.4 3.8 -0.7 7.6 -3.2 11.2 c 5.5 -1.5 10 -1.8 12.5 -10.8 c 2.5 9 7 9.3 12.5 10.8 c -2.5 -3.6 -3.6 -7.3 -3.2 -11.2 c 3.4 7.8 7.7 9.2 14.1 10.2 c -3.3 -1.1 -5.8 -3.8 -6.2 -5.8 c 2 3.3 7.5 6.2 13.6 7 c -4.9 -2.7 -8.4 -6.4 -8.4 -10.2 C 173.7 687.3 189 690.7 194 693.1 Z" />
    </g>
    <g id="tree2" transform="translate(-1327, -572)">
      <rect fill="#65492A" x="1323" y="504.2" width="8.1" height="68.6" />
      <path d="M 1336.9 528.7 c 9.1 5.5 18.9 4.3 27.7 -1.4 c -9.2 -0.8 -20.1 -2.5 -24 -11.9 c 5.8 3.1 12.1 0.3 16.7 -3.9 c -6.6 -1.7 -12.3 -6.8 -13.9 -13.4 c 4.7 2.9 10 2.1 13.7 -1.8 c -9.2 -3.7 -20.4 -6.1 -23.9 -16.3 c 6.5 3.5 13.9 3.3 19.5 -1.5 c -4.6 -3.6 -11.3 -6.5 -13.9 -11.9 c 3.1 -0.4 5.3 -2.6 7.9 -3.2 c -6.5 -2.7 -12.3 -7.8 -14.4 -14.5 c 3.3 1.6 6.5 1.5 9.3 2.3 c -5.1 -4 -11.2 -7.4 -14.4 -13.5 c -3.2 6.1 -9.3 9.5 -14.4 13.5 c 2.7 -0.8 6 -0.8 9.3 -2.3 c -2.2 6.7 -7.9 11.8 -14.4 14.5 c 2.5 0.6 4.8 2.8 7.9 3.2 c -2.6 5.4 -9.3 8.3 -13.9 11.9 c 5.7 4.8 13 5 19.5 1.5 c -3.6 10.2 -14.7 12.6 -23.9 16.3 c 3.7 3.9 9 4.7 13.7 1.8 c -1.6 6.6 -7.3 11.6 -13.9 13.4 c 4.7 4.3 11 7 16.8 3.9 c -3.9 9.5 -14.9 11.1 -24 11.9 c 8.7 5.7 18.5 6.9 27.7 1.4 c -5.6 14 -26.6 15.9 -39.7 16.3 c 14.6 5.7 36.2 6.9 49.5 -2.4 c 13.3 9.3 35 8.1 49.5 2.4 C 1363.5 544.6 1342.5 542.7 1336.9 528.7 Z" />
    </g>
    <g id="tree3" transform="translate(-185, -720)">
      <rect fill="#65492A" x="183" y="666" width="3.3" height="54.6" />
      <path d="M 205.4 706.3 c -3.4 -6.9 -10.8 -8 -11.8 -19.7 c 1.9 3.1 4.4 6.6 7.3 7.2 c -1.7 -1.4 -3.3 -3.6 -3.8 -6.6 c 2.3 2.1 4.1 2.9 8 3.2 c -4.9 -3.1 -11.5 -8.2 -13.3 -14.9 c 3.5 3.6 7.3 7.7 12.3 7.8 c -5.6 -3.6 -9.5 -6.8 -13.7 -13.4 c 4.7 4.4 9.2 7.5 19.1 5.4 c -7.9 -0.6 -15.2 -7.7 -20.3 -16.4 c 4.5 4.5 8.3 7.1 14.3 6.8 c -5.1 -1.9 -10 -6.9 -13.2 -12.1 c 5.6 4.6 7.6 6.6 14.5 6.7 c -5.6 -3 -8.7 -7.9 -10.3 -13.4 c 2.2 1.8 5 3 8 2.1 c -6.2 -3.1 -11.7 -8 -12.6 -15.7 c 4.2 4.5 7.9 7.5 13.5 9 c -5.2 -3.3 -9 -7.5 -11.9 -12.9 c 3 1.1 6.2 2.4 9.5 1.9 c -5.9 -2.3 -13.1 -5.7 -14.3 -11.9 c 3.3 3.7 7.5 5.1 12.7 4.7 c -5.4 -1.8 -8.5 -6.1 -9.5 -10.8 c 2.2 1.9 4.3 3 8.4 2.4 c -5.3 -1.5 -13.2 -6.9 -13.8 -16.1 c -0.6 9.2 -8.5 14.7 -13.8 16.1 c 4.1 0.5 6.2 -0.6 8.4 -2.4 c -1 4.7 -4.1 9 -9.5 10.8 c 5.2 0.4 9.4 -1 12.7 -4.7 c -1.2 6.2 -8.4 9.7 -14.3 11.9 c 3.3 0.5 6.5 -0.8 9.5 -1.9 c -2.9 5.4 -6.7 9.5 -11.9 12.9 c 5.6 -1.4 9.3 -4.5 13.5 -9 c -0.9 7.7 -6.4 12.5 -12.6 15.7 c 2.9 0.9 5.8 -0.4 8 -2.1 c -1.6 5.5 -4.7 10.4 -10.3 13.4 c 6.9 -0.2 8.9 -2.1 14.5 -6.7 c -3.3 5.2 -8.1 10.3 -13.2 12.1 c 6.1 0.3 9.9 -2.3 14.3 -6.8 c -5.1 8.8 -12.4 15.8 -20.3 16.4 c 9.9 2.1 14.4 -1 19.1 -5.4 c -4.2 6.6 -8.1 9.8 -13.7 13.4 c 5 -0.1 8.8 -4.1 12.3 -7.8 c -1.7 6.7 -8.3 11.7 -13.3 14.9 c 3.9 -0.4 5.7 -1.2 8 -3.2 c -0.5 3 -2.1 5.2 -3.8 6.6 c 2.9 -0.6 5.4 -4.1 7.3 -7.2 c -1.1 11.7 -8.4 12.8 -11.8 19.7 c 7.4 -1.9 13.2 -5 18.7 -13.7 c -0.4 3.2 -0.5 3.2 -2.1 8.8 c 3.4 -3.1 4.2 -6.7 4.2 -6.7 c 0 0 0.8 3.6 4.2 6.7 c -1.6 -5.6 -1.6 -5.6 -2.1 -8.8 C 192.3 701.3 198.1 704.4 205.4 706.3 Z" />
    </g>

    <g id="tree4" transform="translate(-94, -702)">
      <rect fill="#65492A" x="89.6" y="651.1" width="9.5" height="52" />
      <path d="M 133.4 694.2 c -2.2 -3.8 -6.7 -9.3 -6 -14.3 c 1.1 2.6 6.3 4.8 9.2 4.3 c -3.7 -2.6 -5.2 -8.3 -5.2 -12.6 c 0.8 1.5 2 2.2 3.6 2.6 c -2.7 -3.2 -4.4 -6.9 -4.6 -11.7 c 1.5 1.6 3.4 2.1 5.5 1.8 c -4.6 -2.2 -11.8 -10.9 -12.6 -18.2 c 1.6 1.2 3.4 1.9 5.2 1.9 c -2.6 -2.2 -4.3 -4.5 -4.8 -8.1 c 2.6 2.3 5.8 3.8 9.1 3.9 c -6.4 -4.6 -11.8 -12.3 -15.8 -20.4 c 1.5 1 3.2 2.1 5.8 1.9 c -2.5 -1.9 -4.8 -4.5 -5.7 -6.6 c 1.9 1.9 4.1 2.9 6.7 3.3 c -1.3 -0.9 -2.3 -2.4 -2.8 -4 c 2.2 1.7 4.7 2.1 6.6 1.8 c -6 -3.7 -13.9 -11.2 -18.6 -19.5 c -0.1 0 -0.2 -0.1 -0.2 -0.2 c 1.9 1.6 3.4 2.1 6.2 1.7 c -3.7 -1.3 -7 -4.2 -8.8 -7.8 c 2.2 2.2 4 3.2 6.8 2.9 c -3 -0.8 -6.1 -4 -7.8 -7 c 1.7 2.4 6.1 3.3 9.8 2.4 c -8.3 -1.8 -14.6 -9.2 -20.3 -15 c 0 -0.2 0 -0.5 0 -0.7 c -0.1 0.1 -0.2 0.2 -0.3 0.3 c -0.1 -0.1 -0.2 -0.2 -0.3 -0.3 c 0 0.2 0 0.5 0 0.7 c -5.6 5.9 -12 13.3 -20.3 15 c 3.7 0.9 8.1 0 9.8 -2.4 c -1.7 3 -4.8 6.2 -7.8 7 c 2.9 0.3 4.6 -0.7 6.8 -2.9 c -1.8 3.6 -5.1 6.5 -8.8 7.8 c 2.8 0.4 4.3 -0.2 6.2 -1.7 c 0 0.1 -0.1 0.1 -0.2 0.2 c -4.8 8.3 -12.6 15.7 -18.6 19.5 c 1.9 0.3 4.4 -0.1 6.6 -1.8 c -0.5 1.7 -1.5 3.2 -2.8 4 c 2.6 -0.4 4.9 -1.4 6.7 -3.3 c -0.9 2.1 -3.2 4.7 -5.7 6.6 c 2.6 0.2 4.3 -0.9 5.8 -1.9 c -4 8.1 -9.4 15.7 -15.8 20.4 c 3.3 -0.1 6.5 -1.6 9.1 -3.9 c -0.6 3.6 -2.2 5.9 -4.8 8.1 c 1.8 0.1 3.6 -0.6 5.2 -1.9 c -0.8 7.3 -8 15.9 -12.6 18.2 c 2.1 0.4 3.9 -0.2 5.5 -1.8 c -0.2 4.8 -1.9 8.5 -4.6 11.7 c 1.6 -0.3 2.8 -1.1 3.6 -2.6 c -0.1 4.4 -1.5 10 -5.2 12.6 c 2.9 0.5 8.1 -1.7 9.2 -4.3 c 0.7 5 -3.8 10.4 -6 14.3 c 3.7 -3.1 16.3 -8 18.7 -15.6 c 0.3 3.3 -2.4 6.6 -6.3 9.5 c 5.1 -1.4 9.6 -4.3 11.2 -7.2 c -0.2 1.7 -2.2 4.2 -5 5.4 c 5.5 -1.4 9.1 -2.7 11.9 -9.5 c 0.5 3.2 -0.4 6.4 -2.4 9.6 c 4.7 -1.6 8.6 -1.9 10.8 -9.4 c 2.2 7.6 6.1 7.9 10.8 9.4 c -2 -3.1 -2.8 -6.3 -2.4 -9.6 c 2.8 6.8 6.4 8.1 11.9 9.5 c -2.8 -1.2 -4.7 -3.7 -5 -5.4 c 1.6 2.9 6.1 5.8 11.2 7.2 c -3.9 -2.9 -6.7 -6.2 -6.3 -9.5 C 117.1 686.2 129.7 691.1 133.4 694.2 Z" />
    </g>

    <g id="result_finish" transform="translate(-1800, -540)">
      <path fill="#0F5BB7" stroke="#FFFFFF" stroke-miterlimit="10" d="M 1729.7 338.6 c 0.8 25.6 15.7 47.5 37.1 58.3 l 32.9 28.2 l 35 -32.6 c 18.5 -12.5 30.5 -33.9 29.8 -57.9 c -1.1 -37.2 -32.2 -66.5 -69.4 -65.4 C 1757.9 270.3 1728.6 301.4 1729.7 338.6 Z" />
      <circle fill="#BAF4FF" cx="1796.8" cy="336" r="55.4" />
    </g>

    <g id="result_split" transform="translate(-900, -570)">
      <g>
        <g>
          <polygon fill="#BAF4FF" stroke="#676868" stroke-miterlimit="10" points="895.7,558 850.8,464.8 787.2,464.8 798.3,442.9 955.2,442.8 945.2,464.8 876.5,464.8 " />
          <path fill="#0F5BB7" stroke="#FFFFFF" stroke-miterlimit="10" d="M1036.5,370.7c-17.9,0-33.4,10-41.4,24.7L781,395.3l-30.5,47.6l246.2-0.1c8.3,13.2,23,22,39.7,22
				c26,0,47-21.1,47-47C1083.5,391.8,1062.4,370.7,1036.5,370.7z" />
          <circle fill="#BAF4FF" cx="1036.5" cy="417.7" r="38.6" />
          <!--<text transform="matrix(1 0 0 1 846.5488 430.5977)" class="st31 st77 st68">01:10:32</text>-->
          <!--<text transform="matrix(1 0 0 1 802.2402 460.207)" class="st49 st29 st23 st58"> SPLIT NAME</text>-->
        </g>
        <!--<text transform="matrix(1 0 0 1 1005 436.998)" class="st49 st29 st69">10</text>-->
        <g fill="#FCFAFA">
          <path class="st59" d="M820.5,401.9c1.1,0,2.2,0,3.3,0c0,0.1,0.1,0.1,0.1,0.1c0.5,0.1,1,0.3,1.4,0.6c0.8,0.6,1,1.8,0.4,2.6
				c-0.3,0.4-0.7,0.7-1.1,0.9c-0.1,0.1-0.3,0.1-0.3,0.2c0,0.4-0.3,0.7-0.7,1c-0.1,0.1-0.1,0.2-0.1,0.3c0,0.3,0,0.5,0,0.8
				c0,0.2,0.1,0.3,0.3,0.3c1.1,0.1,2.1,0.4,3.1,0.8c0.9,0.3,1.7,0.7,2.4,1.2c0.2,0.1,0.3,0.2,0.3-0.1c0-0.2,0.1-0.4,0.2-0.7
				c0-0.2,0.2-0.2,0.3-0.2c0.1,0,0.3,0.1,0.4,0.1c0.6,0.2,1.1,0.6,1.6,1c0.3,0.2,0.5,0.5,0.7,0.9c0.1,0.2,0.1,0.3-0.1,0.4
				c-0.3,0.1-0.6,0.3-0.9,0.5c-0.1,0.1-0.1,0.1,0,0.2c0.2,0.2,0.3,0.4,0.5,0.6c1.1,1.3,1.9,2.7,2.4,4.3c0.3,0.9,0.5,1.8,0.6,2.7
				c0,0.1,0,0.1,0.1,0.1c0,1,0,2,0,3c-0.1,0-0.1,0.1-0.1,0.1c0,0.5-0.1,0.9-0.2,1.4c-0.5,2.2-1.5,4.2-3,5.9c-1.1,1.2-2.3,2.2-3.8,3
				c-1.5,0.8-3,1.3-4.6,1.5c-0.1,0-0.1,0-0.1,0.1c-1,0-2.1,0-3.1,0c0-0.1-0.1-0.1-0.1-0.1c-0.3,0-0.5-0.1-0.8-0.1
				c-2.4-0.5-4.6-1.5-6.5-3.2c-1.3-1.1-2.3-2.4-3-3.9c-0.7-1.4-1.2-2.9-1.4-4.5c0-0.1,0-0.1-0.1-0.1c0-1,0-2,0-3
				c0.1,0,0.1-0.1,0.1-0.1c0.1-0.8,0.3-1.7,0.5-2.5c0.8-2.3,2-4.3,3.8-5.9c0.9-0.8,1.8-1.4,2.8-1.9c1.4-0.7,2.8-1.2,4.4-1.4
				c0.2,0,0.3-0.1,0.2-0.3c0-0.3,0-0.5,0-0.8c0-0.2-0.1-0.3-0.2-0.4c-0.3-0.2-0.6-0.5-0.6-1c0-0.1,0-0.1-0.1-0.2
				c-0.3-0.2-0.6-0.4-0.9-0.6c-0.6-0.6-0.6-1.7-0.2-2.3c0.5-0.7,1.1-1,1.9-1.2C820.4,402,820.5,402.1,820.5,401.9z M810.8,421.9
				c-0.1,2.8,1.1,5.7,3,7.8c2.4,2.6,5.5,3.8,9.1,3.6c2.6-0.1,4.9-1.2,6.8-2.9c2.2-2.1,3.5-4.7,3.6-7.8c0.3-6.4-4.7-11.6-11-11.8
				c-3-0.1-5.6,1-7.8,3C812.1,416,810.9,418.7,810.8,421.9z M822,403c-0.2,0-0.5,0-0.9,0c-0.6,0-1.1,0.2-1.5,0.5
				c-0.5,0.4-0.5,1.1,0,1.4c0.1,0.1,0.3,0.2,0.4,0.2c0.1,0.1,0.2,0.1,0.3,0c0.2-0.2,0.4-0.2,0.7-0.2c0.7,0,1.5,0,2.2,0
				c0.2,0,0.5,0,0.6,0.2c0.3,0.2,0.5,0.1,0.7,0c0.1-0.1,0.2-0.1,0.3-0.2c0.5-0.4,0.5-1.1,0-1.4c-0.2-0.1-0.4-0.2-0.6-0.3
				C823.5,402.9,822.8,403,822,403z" />
          <path class="st59" d="M829.9,415.7c-0.4,0.4-0.8,0.8-1.2,1.2c-2.6,2.3-5.3,4.5-7.9,6.7c-0.1,0.1-0.2,0.1-0.3,0c0,0,0-0.1-0.1-0.1
				c-0.1-0.1-0.1-0.2,0-0.4c1.2-1,2.4-2,3.6-2.9c1.8-1.4,3.5-2.8,5.3-4.1C829.5,415.9,829.7,415.8,829.9,415.7
				C829.8,415.7,829.9,415.7,829.9,415.7z" />
          <path class="st59" d="M821.4,412.9c0-0.3,0-0.5,0-0.8c0-0.4,0.2-0.6,0.6-0.6c0.4,0,0.7,0.2,0.7,0.5c0,0.5,0,1,0,1.4
				c0,0.5-0.2,0.7-0.7,0.7c-0.5,0-0.7-0.2-0.7-0.7C821.4,413.3,821.4,413.1,821.4,412.9C821.4,412.9,821.4,412.9,821.4,412.9z" />
          <path class="st59" d="M830.7,421.4c0.2,0,0.4,0,0.6,0c0.6,0,0.7,0.2,0.7,0.7c0,0.1,0,0.2,0,0.3c-0.1,0.2-0.3,0.3-0.5,0.3
				c-0.5,0-1,0-1.5,0c-0.4,0-0.6-0.2-0.6-0.7c0-0.4,0.2-0.6,0.6-0.6C830.2,421.4,830.5,421.4,830.7,421.4z" />
          <path class="st59" d="M812.9,422.7c-0.3,0-0.5,0-0.8,0c-0.4,0-0.6-0.2-0.6-0.7c0-0.4,0.2-0.6,0.6-0.6c0.5,0,1,0,1.5,0
				c0.4,0,0.6,0.2,0.6,0.7c0,0.4-0.2,0.7-0.6,0.7C813.4,422.7,813.2,422.7,812.9,422.7z" />
          <path class="st59" d="M822.7,431c0,0.3,0,0.5,0,0.8c0,0.3-0.2,0.5-0.5,0.5c-0.1,0-0.2,0-0.3,0c-0.3,0-0.5-0.2-0.5-0.5
				c0-0.5,0-1,0-1.5c0-0.4,0.2-0.6,0.7-0.6c0.4,0,0.6,0.2,0.6,0.6C822.7,430.5,822.7,430.7,822.7,431z" />
          <path class="st59" d="M822.8,413.7c0.2,0,0.2-0.1,0.2-0.2c0-0.1-0.1-0.2-0.2-0.2c1.1,0,2.2,0.3,3.1,0.9c0.2,0.1,0.3,0.1,0.3-0.1
				c0.1-0.2,0.2-0.3,0.2-0.4c0.1-0.1,0.2-0.2,0.3-0.1c0.1,0.1,0.1,0.2,0,0.3c-0.1,0.2-0.2,0.3-0.3,0.5c-0.1,0.1-0.1,0.2,0.1,0.3
				c0.5,0.3,1,0.7,1.4,1.1c0.1,0.1,0.2,0.3,0.1,0.4c-0.2,0.2-0.3,0.1-0.4-0.1c-1.2-1.2-2.7-2-4.4-2.3
				C823.3,413.8,823.1,413.8,822.8,413.7z" />
          <path class="st59" d="M823.1,414.7c0.9,0.1,1.7,0.3,2.4,0.7c0.6,0.3,1.1,0.7,1.6,1.2c0.1,0.1,0.3,0.3,0.1,0.5
				c-0.2,0.2-0.3,0-0.5-0.1c-0.9-0.9-2-1.5-3.3-1.7c-0.1,0-0.2,0-0.2,0c-0.1,0-0.2,0-0.1-0.2C823.3,414.8,823.2,414.7,823.1,414.7z" />
          <path class="st59" d="M823.1,416.4c0.1,0,0.2,0,0.2-0.2c0-0.1-0.1-0.2-0.2-0.2c0.4,0,0.7,0.1,1.1,0.2c0.7,0.2,1.3,0.6,1.9,1.1
				c0.1,0.1,0.2,0.2,0.1,0.4c-0.1,0.1-0.2,0.1-0.4,0C825.1,417.1,824.2,416.7,823.1,416.4C823.2,416.4,823.1,416.4,823.1,416.4z" />
          <path class="st59" d="M814.8,426.2c0,0.1-0.1,0.1-0.1,0.2c-0.2,0.1-0.4,0.2-0.6,0.4c-0.1,0.1-0.2,0.1-0.3-0.1
				c-0.1-0.1,0-0.2,0.1-0.3c0.2-0.1,0.4-0.3,0.7-0.4C814.7,426,814.8,426.1,814.8,426.2z" />
          <path class="st59" d="M830.4,426.6c0,0.1-0.1,0.2-0.2,0.2c-0.3-0.1-0.5-0.3-0.8-0.5c-0.1-0.1-0.1-0.1,0-0.2
				c0-0.1,0.1-0.1,0.2-0.1c0.3,0.1,0.5,0.3,0.7,0.4C830.3,426.5,830.3,426.6,830.4,426.6z" />
          <path class="st59" d="M813.9,417.1c0.1,0,0.2,0.1,0.3,0.1c0.2,0.1,0.3,0.2,0.5,0.3c0.1,0.1,0.1,0.1,0.1,0.2
				c-0.1,0.1-0.1,0.1-0.2,0.1c-0.3-0.1-0.5-0.3-0.7-0.4c-0.1,0-0.1-0.1-0.1-0.2C813.8,417.2,813.9,417.1,813.9,417.1z" />
          <path class="st59" d="M817.3,413.6c0.1,0,0.1,0.1,0.2,0.1c0.1,0.2,0.3,0.4,0.4,0.6c0.1,0.1,0.1,0.2-0.1,0.3
				c-0.1,0.1-0.2,0-0.3-0.1c-0.1-0.2-0.3-0.4-0.4-0.6C817.1,413.7,817.2,413.6,817.3,413.6z" />
          <path class="st59" d="M817.3,430.4c-0.2,0-0.2-0.1-0.2-0.3c0.1-0.2,0.3-0.5,0.4-0.7c0.1-0.1,0.1-0.1,0.2-0.1
				c0.1,0,0.1,0.1,0.1,0.2c-0.1,0.3-0.3,0.5-0.5,0.8C817.4,430.3,817.4,430.3,817.3,430.4z" />
          <path class="st59" d="M826.4,429.3c0.1,0,0.2,0,0.2,0.1c0.1,0.2,0.2,0.4,0.4,0.6c0.1,0.1,0.1,0.2,0,0.3c-0.1,0.1-0.2,0-0.3-0.1
				c-0.1-0.2-0.2-0.4-0.4-0.6C826.2,429.4,826.2,429.3,826.4,429.3z" />
          <path class="st59" d="M830.4,417.2c0,0.1-0.1,0.1-0.1,0.2c-0.2,0.1-0.4,0.2-0.6,0.4c-0.1,0.1-0.2,0-0.3-0.1
				c-0.1-0.1,0-0.2,0.1-0.3c0.2-0.1,0.4-0.2,0.6-0.3c0.1,0,0.2-0.1,0.2,0C830.3,417.1,830.4,417.2,830.4,417.2z" />
        </g>
      </g>
    </g>
    <g id="owl_eyes" transform="translate(-215, -640)">
      <path fill-rule="evenodd" clip-rule="evenodd" fill="#FCFCFC" d="M216,554c0.9-2.4,2.2-3.9,3.9-4.6c2.4-1,4.3,0.4,5.8,3.2c2.6,4.9,2.3,12.2-0.8,16.5
			c-1.7,2.4-4.2,2.9-6.3,1.3c-0.2-0.2-0.4-0.2-0.4-0.7c0.1-2.3-1.4-4.1-2.9-3.6c-1.2,0.4-1.9,1.8-1.8,3.7c0,0.6-0.3,0.6-0.5,0.7
			c-2.1,1.5-4.1,1.1-5.9-1.1c-3.5-4.2-3.7-13-0.5-17.7c2.6-3.8,6.4-3.3,8.6,1C215.6,553.1,215.8,553.5,216,554z M220.7,561
			c0-1.8-1-3.3-2.2-3.3c-1.2,0-2.2,1.6-2.2,3.4c0,1.8,1,3.3,2.2,3.3C219.7,564.4,220.7,562.9,220.7,561z M213.7,564.4
			c1.2,0,2.2-1.5,2.2-3.3c0-1.8-1-3.3-2.2-3.3c-1.2,0-2.2,1.6-2.2,3.4C211.5,562.9,212.5,564.4,213.7,564.4z" />

      <path fill="#040404" d="M220.7,561c0,1.8-1,3.3-2.2,3.3c-1.2,0-2.2-1.5-2.2-3.3c0-1.8,1-3.3,2.2-3.4
			C219.7,557.7,220.7,559.3,220.7,561z M218.3,560c-0.1-0.5-0.2-0.7-0.5-0.7c-0.3,0-0.4,0.3-0.4,0.8c0,0.4,0.2,0.7,0.5,0.7
			C218.1,560.8,218.3,560.5,218.3,560z" />
      <path fill="#040404" d="M213.7,564.4c-1.2,0-2.2-1.5-2.2-3.3c0-1.8,1-3.3,2.2-3.4c1.2,0,2.2,1.5,2.2,3.3
			C215.9,562.8,214.9,564.4,213.7,564.4z M213,560.8c0.3-0.1,0.5-0.3,0.4-0.8c0-0.4-0.2-0.7-0.5-0.7c-0.3,0-0.5,0.3-0.5,0.7
			C212.5,560.5,212.7,560.8,213,560.8z" />

      <path fill-rule="evenodd" clip-rule="evenodd" fill="#FFFFFF" d="M218.3,560c0,0.5-0.2,0.8-0.5,0.8c-0.3,0-0.4-0.3-0.5-0.7c0-0.4,0.1-0.7,0.4-0.8
			C218.1,559.3,218.3,559.5,218.3,560z" />
      <path fill-rule="evenodd" clip-rule="evenodd" fill="#FFFFFF" d="M213,560.8c-0.3,0-0.5-0.3-0.5-0.8c0-0.4,0.2-0.7,0.5-0.7c0.3,0,0.5,0.2,0.5,0.7
			C213.5,560.5,213.3,560.7,213,560.8z" />
    </g>
 
    <g id="owl" transform="translate(-215, -640)">
      <g>
        <path fill-rule="evenodd" clip-rule="evenodd" fill="#090806" d=" M214.1,541.6c1.3,0,2.6,0,4,0c0.1,0.3,0.2,0.2,0.4,0.2c2.7,0.5,5.3,1.7,7.6,3.9c1.1,1.1,2.3,2,3.6,2.6
               c0.3,0.1,0.8,0.1,0.7,0.8c-0.1,0.7-0.6,0.1-0.9,0.3c0,0-0.1,0.1-0.1,0.1c0.2,0.2,0.4,0.4,0.5,0.7c2.4,3.8,4.2,8.2,5.1,13.3
               c0.1,0.5,0.2,0.9,0.5,1.1c1,0.8,1.7,2,2.1,3.6c0.2,0.8,0.4,1.7,0.5,2.6c0,1.6,0,3.1,0,4.7c-0.2,0.1-0.1,0.4-0.2,0.6
               c-0.3,2.3-0.7,4.6-1.3,6.8c-1.6,5.5-4.1,9.6-8,11.4c-0.2,0.1-0.3,0.2-0.4,0.4c-1.3,1.6-2.8,2.9-4.3,3.9c1.3,3.2,1.1,6.4-0.6,8.4
               c-1.7,0-3.3,0-5,0c-1.1-1.3-1.5-3.1-1.4-5.1c0-0.3,0.2-0.7,0-0.8c-0.3-0.1-0.7-0.1-1,0c-0.3,0.1-0.1,0.5-0.1,0.8
               c0,2.1-0.1,4.1-1.6,5.2c-1.6,0-3.2,0-4.8,0c-1.7-1.8-1.8-5.4-0.7-8.2c-2.5-1.2-4.4-3.9-6.7-5.4c-3.6-2.3-5.7-6.9-6.9-12.5
               c-0.4-1.7-0.6-3.5-0.9-5.2c0-1.6,0-3.3,0-4.9c0.3-0.2,0.2-0.6,0.2-0.9c0.4-2.3,1.1-4.1,2.5-5.2c0.3-0.2,0.3-0.6,0.4-1
               c0.8-4.7,2.3-8.8,4.5-12.3c0.6-0.9,1.1-1.8,1.8-2.8c-0.6,0.2-1.1,0.3-1.6,0.5c-0.2,0.1-0.5,0.2-0.6-0.2c-0.1-0.4,0.2-0.5,0.4-0.7
               c0.2-0.1,0.4-0.3,0.6-0.4c2.1-1.1,4.3-2.1,6.2-3.7c0.8-0.6,1.6-0.9,2.5-1.3C212,542.2,213.1,542.2,214.1,541.6z M210.1,545.2
               C210.1,545.3,210.1,545.3,210.1,545.2C210.2,545.3,210.1,545.2,210.1,545.2c-0.3-1.2-0.5-1.2-1.7,0
               C209,545.2,209.6,545.2,210.1,545.2z M213.7,603.9c0,0.1,0,0.3-0.1,0.4c-0.1,0.5-0.5,0.9-0.1,1.4c0.4,0.5,0.8,0.1,1.1-0.4
               c0.1-0.2,0.2-0.4,0.2-0.7c0.1-0.2,0.1-0.5,0.2-0.7c0-0.3,0.1-0.6,0.1-0.9c0.1-0.3,0.1-0.6,0.1-0.9c-0.1-1.4-0.3-1.7-1.3-1.4
               c-0.5,0.2,0,0.9-0.1,1.4c0,0.3,0,0.6,0,0.9C213.7,603.3,213.7,603.6,213.7,603.9z M217.7,604c0.1,0.3,0.2,0.6,0.2,0.8
               c0.1,0.5,0.4,0.8,0.7,1c0.2,0.2,0.5,0.1,0.7-0.2c0.2-0.3,0-0.6-0.1-0.9c-0.1-0.3-0.2-0.6-0.2-0.9c0-0.2,0-0.4-0.1-0.7
               c0-0.4,0-0.9,0-1.3c0.1-1.4,0.1-1.3-0.7-1.2c-0.7,0.1-0.6,0.8-0.7,1.4c-0.1,0.4,0,0.7,0.1,1.1C217.6,603.5,217.6,603.7,217.7,604z
               M224,603.9c0.1-0.3,0.2-0.6,0.1-0.9c0.1-0.9,0.1-1.7-0.2-2.5c-0.1-0.3-0.1-0.6-0.2-0.8c-0.2-0.8-0.6-0.8-1.1-0.5
               c-0.6,0.4-0.1,0.8-0.1,1.2c0,0.2,0.1,0.4,0.1,0.6c0,0.7,0,1.3,0,2c0,0.3,0,0.6-0.1,0.9c-0.1,0.3-0.1,0.6-0.2,0.9
               c-0.2,0.8,0,1.2,0.5,1.1c0.4-0.1,0.7-0.4,0.8-1.1C223.8,604.5,223.9,604.2,224,603.9z M210.1,604.5c-0.1-0.3-0.1-0.6-0.2-0.8
               c0-0.2,0-0.5,0-0.7c0-0.7,0-1.3,0-2c0.1-0.2,0.1-0.4,0.2-0.6c0.3-0.7,0.1-1-0.4-1.2c-0.9-0.4-0.8,0.8-1,1.5
               c-0.1,0.8-0.3,1.6-0.1,2.4c0,0.2,0,0.4,0,0.6c0,0.4,0.2,0.8,0.3,1.1c0,0.3,0.2,0.6,0.4,0.8c0.3,0.3,0.6,0.5,0.9,0.2
               C210.6,605.3,210.2,604.9,210.1,604.5z M210.9,604.8c0.6,1.4,1.3,1.4,1.8,0c0.2-0.3,0.3-0.7,0.3-1.1c0.1-0.6,0.2-1.2,0.1-1.8
               c0-1-0.1-1.7-0.9-1.6c-0.2,0-0.3-0.1-0.5-0.2c-1-0.4-1-0.3-1.2,1.4c-0.1,0.8-0.1,1.5,0.1,2.2C210.7,604.2,210.8,604.5,210.9,604.8
               z M221.7,604.8c0.2-0.4,0.3-0.8,0.3-1.3c0.1-0.7,0.1-1.3,0.1-2c-0.3-1.9-0.3-1.9-1.4-1.4c-0.1,0-0.2,0.1-0.3,0.1
               c-0.7,0.1-1,0.7-0.9,1.8c-0.1,0.5,0,1.1,0.1,1.6c0,0.5,0.1,0.9,0.3,1.3c0.1,0.7,0.5,1.1,0.9,1.1
               C221.2,605.9,221.6,605.5,221.7,604.8z M216.4,567c-0.1,0-0.3-0.1-0.4-0.1c-0.1,0-0.3,0-0.4,0c-1.3,0.5-1.7,1.9-1,3.7
               c0.4,1,0.8,2.1,1.4,2.9c0.4,0.6,0.3-0.3,0.5-0.3c0.5-0.9,0.8-2,1.2-3c0.4-1,0.2-1.8-0.4-2.5C217,567.4,216.7,567.2,216.4,567z
               M212.3,599.3c0.8,0.4,1.6,0.6,2.6,0.7c-0.3-0.4-0.6-0.5-0.8-0.7C213.5,598.8,212.9,599.5,212.3,599.3c-0.4-0.6-0.7-1.2-1.1-1.8
               c-0.3-0.4-0.6-0.9-0.9-1c-0.9-0.1-1.2-1.1-1.4-2.2c-0.1-0.7-0.3-1.3-0.4-2c-0.1-0.3-0.2-0.7-0.4-0.6c-0.7,0.2-0.8-0.5-0.8-1.3
               c0.2-1.2,0.4-2.3,0.5-3.5c0-0.3,0.1-0.7-0.3-0.7c-0.8-0.1-1-0.4-0.6-1.6c0.3-1,0.7-1.9,1-2.8c0.1-0.3,0.3-0.7-0.1-0.9
               c-0.7-0.4-0.3-1-0.1-1.4c0.4-0.7,1-1.4,1.4-2c0.2-0.3,0.5-0.6,0.3-1.1c-0.2-0.6,0.1-0.8,0.3-1.1c1-1.4,2.1-2.4,3.4-3.1
               c0.3-0.1,0.5-0.3,0.8-0.4c0.1-0.1,0.2-0.2,0.1-0.4c-0.1-0.2-0.2-0.2-0.3-0.1c-0.1,0.1-0.3,0.2-0.4,0.3c-1.6,1.1-3.2,1.2-4.8,0.2
               c-3.5-2.2-5.2-8-4.5-13.8c0.6-4.7,2.4-8,5.6-9.5c-1.5-0.4-2.8-0.3-4.2-0.2c-0.5,0.1-1,0.3-1.4,0.9c-1.8,2.3-3.3,4.9-4.4,7.9
               c-0.7,1.8-1.3,3.8-1.7,5.8c-0.1,0.4-0.3,1,0.2,1.1c0.7,0,1.4,0.3,2-0.5c0.6-0.8,1.4-1,2.2-0.8c0.2,0.1,0.5,0.1,0.5,0.6
               c0,0.5-0.3,0.4-0.6,0.4c-0.9-0.2-1.6,0.2-2.2,1.2c0.3,0.1,0.6-0.2,0.9-0.1c0.4,0.1,0.9,0.1,1,0.7c0.1,0.6-0.3,0.8-0.6,1.1
               c-0.6,0.6-1.2,1.2-1.4,2.3c0,0.1,0,0.1-0.1,0.2c0,0,0.1-0.1,0.1-0.1c0.5-0.4,1-0.9,1.4-1.3c0.3-0.3,0.6-0.3,0.9,0.1
               c0.3,0.4,0,0.7,0,1.1c-0.1,0.6-0.3,1.1-0.2,2c0.3-0.5,0.4-0.8,0.6-1.1c0.3-0.5,0.6-1,1.1-1.2c0.2-0.1,0.4-0.1,0.5,0.3
               c0.1,0.3-0.1,0.5-0.3,0.6c-0.9,0.4-1.2,1.4-1.1,2.7c0,0.3,0,0.6,0,0.9c-0.2,0.3-0.1,0.7-0.1,1.1c-0.1,1.3-0.1,2.6-0.2,4
               c-0.2,3-0.2,6,0.4,9c0.4,2.1,1,4.1,1.9,5.8c0.2,0.5,0.4,1,0,1.6c-0.3,0.4,0,0.5,0.2,0.7c1.3,1.4,2.7,2.5,4.3,3.3
               C210.5,598.7,211.4,599.2,212.3,599.3z M225.9,586.1c-0.2,0.1-0.5,0.2-0.7,0.2c-0.9,0.1-0.9,0.2-0.5,1.4c0,0.5,0.1,0.9,0.2,1.3
               c0.2,0.7,0.3,1.3,0.2,2.1c0,0.5-0.1,0.9-0.5,0.7c-0.5-0.2-0.7,0.1-0.8,0.8c-0.1,0.9-0.3,1.7-0.4,2.6c-0.1,0.6-0.3,1.1-0.7,1.2
               c-1.1,0.2-1.5,1.7-2.2,2.7c2.4-0.7,4.5-2.2,6.4-4.2c0.2-0.2,0.3-0.4,0.1-0.7c-0.4-0.5-0.2-1,0-1.5c0.7-1.5,1.3-3,1.7-4.8
               c0.8-3.6,0.9-7.4,0.5-11.2c-0.1-1.7-0.2-3.5-0.2-5.2c0-1.1-0.3-1.8-0.9-2.3c-0.2-0.2-0.6-0.3-0.4-0.7c0.2-0.5,0.5-0.3,0.8-0.1
               c0.4,0.3,0.7,0.8,1,1.3c0.2,0.2,0.2,0.6,0.6,0.6c0-0.7-0.1-1.2-0.3-1.8c-0.1-0.4-0.3-0.7,0-1.1c0.3-0.3,0.5-0.3,0.8,0
               c0.5,0.4,1,0.9,1.5,1.4c-0.2-1.3-0.9-1.9-1.5-2.6c-0.2-0.3-0.7-0.5-0.5-1.1c0.1-0.5,0.6-0.7,0.9-0.7c0.3,0,0.6,0.4,1,0
               c-0.7-0.8-1.4-1.3-2.2-1.1c-0.2,0.1-0.5,0.2-0.5-0.3c-0.1-0.5,0.2-0.6,0.5-0.7c0.8-0.2,1.5,0,2.1,0.7c0.5,0.6,1.1,0.7,1.6,0.6
               c1,0.1,1,0,0.6-1.3c-0.2-0.7-0.2-1.6-0.6-2.2c0-0.1,0-0.3-0.1-0.4c-1.1-4-2.8-7.4-5-10.3c-0.2-0.3-0.4-0.6-0.8-0.6
               c-0.9-0.1-1.8-0.3-2.8-0.4c-0.5,0-1-0.2-1.7,0.2c1.2,0.9,2.2,1.9,3,3.4c1.9,3.8,2.3,8.1,1.3,12.6c-0.8,3.6-2.4,6.2-5,7.2
               c-1,0.4-1.9,0.3-2.9,0.1c1.1,0.7,2.1,1.7,3,2.8c0.2,0.3,0.6,0.6,0.4,1.1c-0.2,0.7,0.1,0.9,0.3,1.3c0.5,0.8,1.2,1.4,1.6,2.4
               c0.2,0.4,0.3,0.9-0.2,1c-0.5,0.2-0.4,0.6-0.2,1.1c0.2,0.5,0.4,1,0.6,1.5C225.6,584.2,226,585,225.9,586.1L225.9,586.1z
               M229.7,571.9C229.7,571.9,229.7,571.9,229.7,571.9C229.7,571.9,229.7,571.9,229.7,571.9c0,0.7,0,1.4,0,2.1
               c0.2,2.9,0.3,5.7,0.3,8.6c-0.1,3.1-0.7,6-1.6,8.7c-0.3,0.7-0.6,1.3-0.9,2.1c0.6,0.1,1.1-0.1,1.5-0.4c0.4,0,0.7-0.3,1-0.5
               c5.6-3.9,8-15,7.3-22.1c-0.3-3.3-1.6-5.1-3.5-5.5c-0.3,0-0.8-0.5-0.6,0.7c0.1,0.6-0.2,0.6-0.5,0.5c-0.5-0.1-0.9-0.5-1.6-0.2
               c1,1,1.7,2.4,1.9,4c0.1,0.3,0.3,0.7,0,1c-0.3,0.3-0.5-0.1-0.7-0.3c-0.6-0.6-1.2-1.4-1.9-2c0.1,1,0.2,1.9,0.2,2.8
               c0,0.4,0.1,1-0.2,1.2C230.1,572.7,230,572,229.7,571.9z M194.9,575c0.1,2.7,0.6,5.3,1.3,7.8c1.4,4.9,3.7,8.5,7.1,10.3
               c0.4,0.2,0.9,0.6,1.4,0.2c-0.5-1.1-0.9-2.1-1.3-3.2c-1.8-5.8-1.2-12-0.8-18.2c-0.8,0.8-1.1,0.6-1.1-0.8c0-0.8,0.1-1.7,0.2-2.7
               c-0.3,0.3-0.5,0.5-0.7,0.7c-0.5,0.5-0.9,1-1.4,1.5c-0.2,0.2-0.3,0.4-0.5,0.2c-0.2-0.2-0.1-0.5-0.1-0.8c0.2-1.1,0.5-2.1,1-2.9
               c0.3-0.5,0.6-0.9,0.9-1.4c-0.6-0.1-1.1,0.2-1.5,0.3c-0.3,0.1-0.7,0.1-0.5-0.6c0.2-0.8-0.1-0.7-0.4-0.7c-1,0.1-1.9,0.7-2.6,1.9
               c-1.1,2.1-1.3,4.6-1.2,7.1c0,0.2,0,0.4,0.1,0.5C194.9,574.6,194.9,574.8,194.9,575z M208.9,591.3c0.2,1.1,0.4,2.2,0.7,3.3
               c0.1,0.3,0.1,0.8,0.4,0.9c1,0.2,1.6,1.3,2.2,2.3c0.2,0.3,0.4,0.8,0.8,0.6c0.7-0.4,1.4-0.1,2,0.5c1,0.9,1.9,0.9,2.9,0
               c0.5-0.5,1.1-0.9,1.7-0.6c0.5,0.3,0.8-0.1,1.1-0.6c0.4-0.7,0.7-1.7,1.3-1.8c1.1-0.3,1.2-1.4,1.3-2.6c0-0.5,0.1-1,0.3-1.5
               c0.1-0.4,0.3-0.9,0.6-0.9c0.9,0,0.5-0.7,0.4-1.3c-0.1-0.4-0.2-0.7-0.3-1.1c0-0.2-0.1-0.4-0.1-0.6c-0.3-1.7-0.2-2,1-2.3
               c0.3-0.1,0.2-0.4,0.1-0.6c-0.3-0.9-0.7-1.8-1-2.7c-0.2-0.7-0.5-1.4,0.1-2c0.2-0.2,0.1-0.4,0-0.5c-0.2-0.3-0.5-0.6-0.7-1
               c-0.5-0.8-1.3-1.3-1.1-2.8c0-0.1-0.1-0.3-0.2-0.4c-1.2-1.5-2.5-2.6-4-2.9c-0.4-0.4-0.6-0.2-0.8,0.4c-0.2,0.4-0.3,0.8-0.5,1.2
               c-0.5,1-0.8,1-1.4,0.1c-0.2-0.4-0.4-0.8-0.6-1.2c-0.1-0.2-0.2-0.6-0.5-0.4c-1.3,0.3-2.5,1.3-3.5,2.4c-0.4,0.4-0.8,0.8-0.7,1.8
               c0.1,0.5-0.2,0.9-0.5,1.3c-0.4,0.5-0.7,1-1.1,1.5c-0.1,0.1-0.4,0.3-0.2,0.6c0.6,0.8,0.2,1.6,0,2.3c-0.3,0.9-0.7,1.7-0.9,2.7
               c0.9,0.3,1.1,0.7,1,2c-0.1,0.6-0.1,1.2-0.2,1.7c-0.2,0.9-0.4,1.7,0.5,2C208.7,590.9,208.8,591.2,208.9,591.3z M216,554
               c-0.3-0.5-0.5-0.9-0.6-1.3c-2.2-4.3-6-4.8-8.6-1c-3.2,4.6-3,13.5,0.5,17.7c1.8,2.2,3.8,2.6,5.9,1.1c0.2-0.1,0.5-0.2,0.5-0.7
               c-0.1-1.9,0.6-3.3,1.8-3.7c1.5-0.5,3,1.3,2.9,3.6c0,0.6,0.2,0.6,0.4,0.7c2,1.6,4.6,1.1,6.3-1.3c3-4.3,3.4-11.6,0.8-16.5
               c-1.5-2.8-3.5-4.1-5.8-3.2C218.3,550.1,217,551.7,216,554z M210.8,543.7c1.2,1.1,2.2,2.4,2.8,4.1c0.5,1.7,1.4,2.9,2.2,4.2
               c0.2,0.4,0.3,0.3,0.5,0c0.7-1.1,1.4-2.1,1.8-3.5c0.3-0.9,0.7-1.7,1.2-2.4c0.6-1,1.5-1.7,2.3-2.4
               C217.9,542.2,214.5,542.2,210.8,543.7z M210.9,544.8c0,1.5-0.1,1.7-0.7,1.5c-1.5-0.4-3.3-0.1-4.9,0.9c2.8-0.1,5.4-0.2,8,1.4
               C212.6,547.1,212,545.8,210.9,544.8z M220.9,545.3c-1.1,0.9-2.1,2.6-2.4,4c2.4-1.6,5-1.7,7.5-1.6c-1.3-0.9-3.2-1.3-4.2-1
               C220.9,547.1,220.7,546.8,220.9,545.3z M225,545.8c-0.6-0.4-1.2-0.9-1.8-1.3c-1.1-0.6-1.1-0.6-1.6,1.4
               C222.7,545.3,223.8,546,225,545.8z M219.7,599.3c-0.8-0.6-1.3,0-1.9,0.5C218.5,599.6,219.1,599.8,219.7,599.3z" />
        <path fill-rule="evenodd" clip-rule="evenodd" fill="#FCFCFC" d="M216,554c0.9-2.4,2.2-3.9,3.9-4.6c2.4-1,4.3,0.4,5.8,3.2c2.6,4.9,2.3,12.2-0.8,16.5
			c-1.7,2.4-4.2,2.9-6.3,1.3c-0.2-0.2-0.4-0.2-0.4-0.7c0.1-2.3-1.4-4.1-2.9-3.6c-1.2,0.4-1.9,1.8-1.8,3.7c0,0.6-0.3,0.6-0.5,0.7
			c-2.1,1.5-4.1,1.1-5.9-1.1c-3.5-4.2-3.7-13-0.5-17.7c2.6-3.8,6.4-3.3,8.6,1C215.6,553.1,215.8,553.5,216,554z M220.7,561
			c0-1.8-1-3.3-2.2-3.3c-1.2,0-2.2,1.6-2.2,3.4c0,1.8,1,3.3,2.2,3.3C219.7,564.4,220.7,562.9,220.7,561z M213.7,564.4
			c1.2,0,2.2-1.5,2.2-3.3c0-1.8-1-3.3-2.2-3.3c-1.2,0-2.2,1.6-2.2,3.4C211.5,562.9,212.5,564.4,213.7,564.4z" />
        <path fill-rule="evenodd" clip-rule="evenodd" fill="#FDFDFD" d="M218.2,572.5c1.5,0.3,2.8,1.5,4,2.9c0.1,0.1,0.2,0.3,0.2,0.4c-0.3,1.5,0.6,2,1.1,2.8c0.2,0.3,0.5,0.6,0.7,1
			c0.1,0.1,0.2,0.3,0,0.5c-0.6,0.6-0.3,1.3-0.1,2c0.3,0.9,0.7,1.8,1,2.7c0.1,0.2,0.2,0.5-0.1,0.6c-1.1,0.4-1.2,0.6-1,2.3
			c0,0.2,0.1,0.4,0.1,0.6c-0.4,0.2-0.7,0.5-1.1,0.7c-2.9,2.3-5.9,3.3-9.1,3.3c-1.7,0-3.4-0.5-5-1.1c-0.1-0.1-0.2-0.3-0.3-0.4
			c-0.9-0.3-0.7-1.2-0.5-2c0.1-0.6,0.2-1.2,0.2-1.7c0.1-1.3-0.1-1.7-1-2c0.2-1,0.6-1.8,0.9-2.7c0.2-0.8,0.6-1.5,0-2.3
			c-0.2-0.3,0.1-0.4,0.2-0.6c0.4-0.5,0.7-1,1.1-1.5c0.2-0.4,0.6-0.8,0.5-1.3c-0.1-0.9,0.3-1.3,0.7-1.8c1.1-1.2,2.2-2.2,3.5-2.4
			c0.3,1.4,0.9,2.7,1.5,3.9c0.4,0.8,0.6,0.8,1-0.1C217.4,575.2,217.8,573.9,218.2,572.5z" />
        <path fill-rule="evenodd" clip-rule="evenodd" fill="#764320" d="M203.2,572.8c0-0.3,0-0.6,0-0.9c-0.1-1.3,0.2-2.3,1.1-2.7c0.2-0.1,0.3-0.3,0.3-0.6c-0.1-0.4-0.3-0.3-0.5-0.3
			c-0.5,0.1-0.8,0.7-1.1,1.2c-0.2,0.3-0.4,0.7-0.6,1.1c-0.2-0.9,0-1.4,0.2-2c0.1-0.4,0.3-0.7,0-1.1c-0.3-0.4-0.6-0.3-0.9-0.1
			c-0.5,0.4-1,0.8-1.4,1.3l-0.1-0.1c0.2-1.1,0.8-1.7,1.4-2.3c0.3-0.3,0.7-0.5,0.6-1.1c-0.1-0.6-0.6-0.6-1-0.7
			c-0.3,0-0.6,0.3-0.9,0.1c0.5-1,1.3-1.4,2.2-1.2c0.3,0.1,0.5,0.1,0.6-0.4c0-0.4-0.2-0.5-0.5-0.6c-0.8-0.2-1.6,0-2.2,0.8
			c-0.6,0.8-1.4,0.5-2,0.5c-0.4,0-0.2-0.7-0.2-1.1c0.4-2,1-3.9,1.7-5.8c1.1-3.1,2.6-5.7,4.4-7.9c0.4-0.5,0.8-0.8,1.4-0.9
			c1.4-0.2,2.7-0.2,4.2,0.2c-3.2,1.5-5,4.8-5.6,9.5c-0.7,5.8,1,11.6,4.5,13.8c1.6,1,3.2,0.8,4.8-0.2c0.1-0.1,0.3-0.2,0.4-0.3
			c0.1-0.1,0.2-0.1,0.3,0.1c0,0.2,0,0.4-0.1,0.4c-0.3,0.1-0.5,0.3-0.8,0.4c-1.3,0.6-2.4,1.7-3.4,3.1c-0.2,0.3-0.4,0.6-0.3,1.1
			c0.1,0.5-0.1,0.8-0.3,1.1c-0.5,0.7-1,1.3-1.4,2c-0.2,0.4-0.6,1,0.1,1.4c0.4,0.2,0.2,0.6,0.1,0.9c-0.3,1-0.7,1.9-1,2.8
			c-0.4,1.2-0.2,1.5,0.6,1.6c0.4,0,0.3,0.4,0.3,0.7c0,1.2-0.3,2.3-0.5,3.5c-0.8-0.4-1.6-1-2.3-1.6c-0.3-0.2-0.5-0.5-0.6-0.9
			c-0.3-1.4-0.6-2.7-0.7-4.1c-0.4-3.2-0.3-6.5-0.3-9.7C203.4,573.6,203.5,573.1,203.2,572.8z" />
        <path fill-rule="evenodd" clip-rule="evenodd" fill="#764320" d="M233.5,563.8c-0.6,0.1-1.1,0-1.6-0.6c-0.6-0.7-1.3-0.9-2.1-0.7c-0.2,0.1-0.5,0.1-0.5,0.7
			c0.1,0.4,0.3,0.3,0.5,0.3c0.8-0.2,1.5,0.3,2.2,1.1c-0.4,0.4-0.7,0-1,0c-0.4,0-0.8,0.1-0.9,0.7c-0.2,0.6,0.3,0.8,0.5,1.1
			c0.6,0.7,1.3,1.2,1.5,2.6c-0.6-0.5-1-0.9-1.5-1.4c-0.3-0.2-0.6-0.3-0.8,0c-0.3,0.4-0.1,0.7,0,1.1c0.1,0.5,0.3,1.1,0.3,1.8
			c-0.3,0-0.4-0.4-0.6-0.6c-0.3-0.5-0.6-1-1-1.3c-0.3-0.2-0.6-0.4-0.8,0.1c-0.1,0.5,0.2,0.6,0.4,0.7c0.6,0.5,0.9,1.1,0.9,2.3
			c0,1.7,0.1,3.5,0.2,5.2c-0.4,0.2-0.3,0.7-0.3,1.1c0,1.6,0,3.3-0.4,4.5c-0.6,1.6-1.5,2.9-2.7,3.7c0.1-1.1-0.3-1.9-0.6-2.8
			c-0.2-0.5-0.4-1-0.6-1.5c-0.2-0.4-0.3-0.9,0.2-1.1c0.4-0.2,0.3-0.6,0.2-1c-0.4-1-1.1-1.5-1.6-2.4c-0.2-0.4-0.5-0.6-0.3-1.3
			c0.2-0.5-0.2-0.8-0.4-1.1c-0.9-1.2-1.9-2.1-3-2.8c1,0.2,1.9,0.3,2.9-0.1c2.5-1,4.1-3.6,5-7.2c1-4.5,0.6-8.8-1.3-12.6
			c-0.7-1.5-1.8-2.5-3-3.4c0.6-0.4,1.2-0.2,1.7-0.2c0.9,0.1,1.8,0.3,2.8,0.4c0.3,0,0.5,0.3,0.8,0.6c2.1,2.9,3.8,6.3,5,10.3
			c0,0.1,0,0.3,0.1,0.4c-0.2,0.3-0.1,0.7-0.2,1C233.3,562.2,233.6,563,233.5,563.8z" />
        <path fill-rule="evenodd" clip-rule="evenodd" fill="#774321" d="M194.8,573.9c-0.1-2.6,0-5,1.2-7.1c0.7-1.3,1.6-1.8,2.6-1.9c0.3,0,0.6-0.2,0.4,0.7c-0.2,0.7,0.2,0.7,0.5,0.6
			c0.5-0.2,0.9-0.5,1.5-0.3c-0.3,0.5-0.7,0.9-0.9,1.4c-0.5,0.9-0.8,1.8-1,2.9c0,0.3-0.1,0.6,0.1,0.8c0.2,0.2,0.4,0,0.5-0.2
			c0.5-0.5,0.9-1,1.4-1.5c0.2-0.2,0.4-0.4,0.7-0.7c-0.1,1-0.2,1.9-0.2,2.7c0,1.4,0.2,1.6,1.1,0.8c-0.3,6.2-1,12.3,0.8,18.2
			c-1.7-0.8-3.1-2.2-4.3-4c-2-2.9-3.1-6.5-3.9-10.4c-0.1-0.3,0-0.7-0.3-0.8c0-0.2,0-0.4,0-0.7C195.1,574.1,194.9,574,194.8,573.9z" />
        <path fill-rule="evenodd" clip-rule="evenodd" fill="#774321" d="M229,593c-0.5,0.3-0.9,0.5-1.5,0.4c0.3-0.8,0.7-1.4,0.9-2.1c1-2.7,1.6-5.6,1.6-8.7c0.1-2.9,0-5.8-0.3-8.6
			c-0.1-0.7,0-1.4,0-2.1l0,0c0.3,0.1,0.4,0.8,0.7,0.6c0.3-0.2,0.2-0.8,0.2-1.2c0-0.9-0.1-1.7-0.2-2.8c0.7,0.6,1.3,1.3,1.9,2
			c0.2,0.2,0.4,0.6,0.7,0.3c0.3-0.3,0.1-0.7,0-1c-0.3-1.6-0.9-3-1.9-4c0.7-0.2,1.1,0.1,1.6,0.2c0.3,0.1,0.6,0.1,0.5-0.5
			c-0.2-1.2,0.3-0.7,0.6-0.7c0.4,1.3,1,2.4,1.2,3.8c0.6,3.1,0.4,6.1,0.1,9.2c-0.6,6-2.3,10.8-5.6,14.3
			C229.3,592.3,229,592.4,229,593z" />
        <path fill-rule="evenodd" clip-rule="evenodd" fill="#AEAEAE" d="M208.9,591.3c1.7,0.5,3.3,1.1,5,1.1c3.2,0,6.3-1,9.1-3.3c0.3-0.3,0.7-0.5,1.1-0.7c0.1,0.4,0.2,0.7,0.3,1.1
			c0.1,0.6,0.5,1.4-0.4,1.3c-0.3,0-0.5,0.5-0.6,0.9c-0.1,0.5-0.2,1-0.3,1.5c-0.1,1.2-0.2,2.3-1.3,2.6c-0.6,0.2-0.9,1.1-1.3,1.8
			c-0.3,0.5-0.6,0.9-1.1,0.6c-0.6-0.3-1.2,0.1-1.7,0.6c-1,0.9-1.9,0.9-2.9,0c-0.6-0.5-1.2-0.8-2-0.5c-0.4,0.2-0.6-0.3-0.8-0.6
			c-0.6-1-1.2-2.1-2.2-2.3c-0.3,0-0.3-0.5-0.4-0.9C209.3,593.5,209.1,592.4,208.9,591.3z" />
        <path fill-rule="evenodd" clip-rule="evenodd" fill="#764320" d="M210.8,543.7c3.6-1.5,7.1-1.5,10.7,0c-0.9,0.7-1.7,1.4-2.3,2.4c-0.5,0.7-0.9,1.5-1.2,2.4
			c-0.4,1.4-1.1,2.4-1.8,3.5c-0.2,0.3-0.2,0.4-0.5,0c-0.8-1.3-1.6-2.5-2.2-4.2C213.1,546.1,212.1,544.8,210.8,543.7z" />
        <path fill-rule="evenodd" clip-rule="evenodd" fill="#512E17" d="M225.9,586.1c1.1-0.8,2.1-2.1,2.7-3.7c0.5-1.2,0.4-3,0.4-4.5c0-0.4-0.2-0.9,0.3-1.1
			c0.3,3.8,0.3,7.5-0.5,11.2c-0.4,1.7-1,3.3-1.7,4.8c-0.2,0.5-0.4,1,0,1.5c0.2,0.3,0.1,0.5-0.1,0.7c-1.9,2-4,3.5-6.4,4.2
			c0.7-1,1.1-2.5,2.2-2.7c0.4-0.1,0.6-0.6,0.7-1.2c0.1-0.9,0.3-1.7,0.4-2.6c0.1-0.7,0.3-1.1,0.8-0.8c0.4,0.2,0.5-0.2,0.5-0.7
			c0-0.7,0-1.4-0.2-2.1c-0.1-0.4-0.2-0.8-0.2-1.3C225,587,225.7,587,225.9,586.1L225.9,586.1z" />
        <path fill-rule="evenodd" clip-rule="evenodd" fill="#512E17" d="M229,593c0-0.6,0.3-0.7,0.6-0.9c3.3-3.5,5-8.3,5.6-14.3c0.3-3.1,0.4-6.1-0.1-9.2c-0.3-1.4-0.8-2.5-1.2-3.8
			c1.9,0.4,3.2,2.2,3.5,5.5c0.7,7.2-1.7,18.2-7.3,22.1C229.7,592.7,229.4,593,229,593z" />
        <path fill-rule="evenodd" clip-rule="evenodd" fill="#512E17" d="M203.2,572.8c0.3,0.4,0.1,0.8,0.2,1.3c0,3.2-0.1,6.5,0.3,9.7c0.2,1.4,0.4,2.8,0.7,4.1
			c0.1,0.4,0.3,0.7,0.6,0.9c0.8,0.6,1.5,1.2,2.3,1.6c0,0.8,0,1.5,0.8,1.3c0.3-0.1,0.4,0.3,0.4,0.6c0.1,0.7,0.3,1.3,0.4,2
			c0.2,1.1,0.5,2.1,1.4,2.2c0.4,0.1,0.7,0.5,0.9,1c0.4,0.6,0.7,1.2,1.1,1.7l0,0c-0.9-0.1-1.8-0.6-2.7-1c-1.5-0.8-2.9-1.9-4.3-3.3
			c-0.2-0.2-0.5-0.3-0.2-0.7c0.4-0.6,0.2-1,0-1.6c-0.9-1.8-1.5-3.7-1.9-5.8c-0.5-3-0.6-6-0.4-9c0.1-1.3,0.1-2.6,0.2-4
			C203.1,573.5,203,573.1,203.2,572.8z" />
        <path fill-rule="evenodd" clip-rule="evenodd" fill="#512E17" d="M194.9,575c0.3,0.1,0.3,0.5,0.3,0.8c0.8,3.9,1.9,7.5,3.9,10.4c1.2,1.8,2.7,3.2,4.3,4c0.4,1,0.8,2.1,1.3,3.2
			c-0.5,0.3-1,0-1.4-0.2c-3.4-1.8-5.6-5.4-7.1-10.3C195.5,580.3,195,577.7,194.9,575z" />
        <path fill-rule="evenodd" clip-rule="evenodd" fill="#FCFCFC" d="M210.9,544.8c1.1,1,1.8,2.3,2.3,3.8c-2.5-1.6-5.2-1.6-8-1.4c1.6-1,3.4-1.4,4.9-0.9
			C210.8,546.5,210.9,546.3,210.9,544.8z" />
        <path fill-rule="evenodd" clip-rule="evenodd" fill="#FCFCFC" d="M220.9,545.3c-0.2,1.5,0,1.8,1,1.4c1-0.3,2.9,0,4.2,1c-2.6-0.1-5.1,0-7.5,1.6
			C218.8,547.9,219.8,546.2,220.9,545.3z" />

        <path fill="#F9AC3F" d="M215.9,573.6c-0.6-0.9-1-1.9-1.4-2.9c-0.7-1.8-0.3-3.2,1-3.7c0.1-0.1,0.3,0,0.4,0
			C216,569.2,215.9,571.4,215.9,573.6z" />
        <path fill="#AEAEAE" d="M218.2,572.5c-0.3,1.3-0.8,2.6-1.3,3.8c-0.4,0.9-0.6,0.9-1,0.1c-0.6-1.2-1.2-2.5-1.5-3.9
			c0.3-0.2,0.3,0.2,0.5,0.4c0.2,0.4,0.4,0.8,0.6,1.2c0.6,1,0.8,1,1.4-0.1c0.2-0.4,0.4-0.8,0.5-1.2
			C217.5,572.3,217.8,572.2,218.2,572.5z" />

        <path fill="#BE7001" d="M216.4,567c0.3,0.1,0.6,0.4,0.8,0.7c0.6,0.7,0.8,1.5,0.4,2.5c-0.4,1-0.7,2.2-1.2,3
			C216.4,571.2,216.4,569.1,216.4,567z" />
        <path fill="#F9AC3F" d="M213.2,601.9c0.1,0.6,0,1.2-0.1,1.8c-0.8,0-1.6,0-2.4,0c-0.2-0.7-0.2-1.5-0.1-2.2
			C211.4,601.5,212.3,601.9,213.2,601.9z" />
        <path fill="#F9AC3F" d="M222.1,601.5c0.1,0.7,0.1,1.4-0.1,2c-0.8,0-1.6,0-2.5,0c-0.1-0.5-0.1-1-0.1-1.6
			C220.4,601.7,221.2,601.4,222.1,601.5z" />

        <path fill="#A9752C" d="M222.1,601.5c-0.9-0.1-1.7,0.2-2.6,0.4c-0.1-1,0.2-1.7,0.9-1.8c0.1,0,0.2-0.1,0.3-0.1
			C221.8,599.6,221.8,599.6,222.1,601.5z" />
        <path fill="#A9752C" d="M213.2,601.9c-0.9-0.1-1.7-0.5-2.6-0.4c0.1-1.6,0.2-1.7,1.2-1.4c0.2,0.1,0.3,0.2,0.5,0.2
			C213,600.3,213.2,601,213.2,601.9z" />

        <path fill="#764320" d="M225,545.8c-1.2,0.1-2.2-0.6-3.4,0.1c0.4-1.9,0.5-2,1.6-1.4C223.8,544.9,224.4,545.4,225,545.8z" />
        <path fill="#F9AC3F" d="M223.9,600.5c0.3,0.8,0.3,1.6,0.2,2.5c-0.5,0-0.9,0-1.4,0c0-0.7,0-1.3,0-2
			C223.1,601,223.5,600.8,223.9,600.5z" />
        <path fill="#D48615" d="M219.6,603.5c0.8,0,1.6,0,2.5,0c0,0.5-0.1,0.9-0.3,1.3c-0.6,0-1.2,0-1.8,0
			C219.7,604.4,219.6,604,219.6,603.5z" />
        <path fill="#F9AC3F" d="M209.9,601.1c0,0.7,0,1.3,0,2c-0.4,0-0.9,0-1.3,0c-0.2-0.8,0-1.6,0.1-2.4C209.1,601,209.5,601.1,209.9,601.1
			z" />
        <path fill="#E39425" d="M216.4,567c0,2.1,0,4.2,0,6.2c-0.2,0-0.1,1-0.5,0.3c0-2.2,0-4.4,0-6.7C216.1,567,216.3,567,216.4,567z" />
        <path fill="#D48615" d="M210.6,603.7c0.8,0,1.6,0,2.4,0c0,0.4-0.1,0.8-0.3,1.1c-0.6,0-1.2,0-1.8,0
			C210.8,604.5,210.7,604.2,210.6,603.7z" />
        <path fill="#A9752C" d="M223.9,600.5c-0.4,0.3-0.8,0.4-1.2,0.5c0-0.2-0.1-0.4-0.1-0.6c0-0.4-0.6-0.9,0.1-1.2c0.5-0.3,0.9-0.2,1.1,0.5
			C223.8,599.9,223.9,600.2,223.9,600.5z" />
        <path fill="#A9752C" d="M209.9,601.1c-0.4,0-0.8-0.1-1.2-0.4c0.2-0.6,0.1-1.8,1-1.5c0.5,0.2,0.7,0.5,0.4,1.2
			C210,600.6,210,600.9,209.9,601.1z" />
        <path fill="#512E17" d="M233.5,563.8c0.1-0.9-0.2-1.7-0.1-2.5c0-0.3-0.1-0.7,0.2-1c0.4,0.6,0.4,1.5,0.6,2.2
			C234.5,563.9,234.5,563.9,233.5,563.8z" />
        <path fill="#A9752C" d="M213.8,602.2c0.1-0.5-0.4-1.3,0.1-1.4c1-0.3,1.2,0.1,1.3,1.4C214.7,602.2,214.3,602.2,213.8,602.2z" />
        <path fill="#A9752C" d="M217.5,602.2c0.1-0.6-0.1-1.4,0.7-1.4c0.8-0.1,0.8-0.2,0.7,1.2C218.4,602,217.9,602.1,217.5,602.2z" />
        <path fill="#BE7001" d="M214.8,604.6c-0.1,0.2-0.1,0.5-0.2,0.7c-0.3,0.5-0.7,0.9-1.1,0.4c-0.4-0.5,0-0.9,0.1-1.4
			C214,604.9,214.4,604.5,214.8,604.6z" />
        <path fill="#F9AC3F" d="M217.5,602.2c0.5-0.1,0.9-0.2,1.4-0.2c0,0.4,0,0.9,0,1.3c-0.4,0-0.9,0-1.3,0
			C217.5,602.9,217.4,602.6,217.5,602.2z" />
        <path fill="#BE7001" d="M219.9,604.8c0.6,0,1.2,0,1.8,0c-0.1,0.7-0.5,1.1-0.9,1.1C220.4,605.9,220,605.5,219.9,604.8z" />
        <path fill="#BE7001" d="M210.9,604.8c0.6,0,1.2,0,1.8,0C212.2,606.3,211.5,606.3,210.9,604.8z" />
        <path fill="#D48615" d="M210,603.7c0.1,0.3,0.1,0.6,0.2,0.8c-0.4,0.5-0.8,0.2-1.2,0.3c-0.1-0.3-0.3-0.7-0.3-1.1
			C209.1,603.7,209.5,603.7,210,603.7z" />
        <path fill ="#BE7001" d="M208.9,604.8c0.4-0.1,0.8,0.3,1.2-0.3c0.1,0.4,0.5,0.8,0.1,1.2c-0.3,0.4-0.6,0.2-0.9-0.2
			C209.1,605.4,209,605.2,208.9,604.8z" />
        <path fill="#BE7001" d="M223.7,604.8c-0.1,0.6-0.4,1-0.8,1.1c-0.5,0.1-0.7-0.3-0.5-1.1C222.9,604.8,223.3,604.8,223.7,604.8z" />
        <path fill="#F9AC3F" d="M213.8,602.2c0.5,0,0.9,0,1.4,0c0,0.3,0,0.6-0.1,0.9c-0.5,0-0.9,0-1.4,0
			C213.8,602.7,213.8,602.5,213.8,602.2z" />
        <path fill="#D48615" d="M223.7,604.8c-0.4,0-0.9,0-1.3,0c0.1-0.3,0.1-0.6,0.2-0.9c0.5,0,0.9,0,1.4,0
			C223.9,604.2,223.8,604.5,223.7,604.8z" />
        <path fill="#E39425" d="M224,603.9c-0.5,0-0.9,0-1.4,0c0-0.3,0-0.6,0.1-0.9c0.5,0,0.9,0,1.4,0C224.2,603.3,224.1,603.6,224,603.9z" />
        <path fill="#BE7001" d="M219.2,604.8c0.1,0.3,0.3,0.6,0.1,0.9c-0.2,0.3-0.4,0.3-0.7,0.2c-0.3-0.2-0.6-0.5-0.7-1
			C218.3,604.8,218.7,604.8,219.2,604.8z" />
        <path fill="#512E17" d="M212.3,599.3c0.6,0.2,1.2-0.5,1.8,0c0.2,0.2,0.5,0.3,0.8,0.7C213.9,599.9,213.1,599.7,212.3,599.3
			L212.3,599.3z" />
        <path fill="#D48615" d="M219.2,604.8c-0.4,0-0.8,0-1.3,0c-0.1-0.3-0.2-0.6-0.2-0.8c0.4,0,0.9,0,1.3-0.1
			C219,604.2,219.1,604.5,219.2,604.8z" />
        <path fill="#E39425" d="M213.8,603c0.5,0,0.9,0,1.4,0c0,0.3-0.1,0.6-0.1,0.9c-0.5,0-0.9,0-1.4,0C213.7,603.6,213.7,603.3,213.8,603z
			" />
        <path fill="#764320" d="M225.9,586.1c-0.2,0.9-0.9,0.9-1.2,1.6c-0.4-1.2-0.4-1.3,0.5-1.4C225.5,586.3,225.7,586.2,225.9,586.1z" />
        <path fill="#764320" d="M210.1,545.2c-0.5,0-1.1,0-1.7,0C209.5,544,209.8,544,210.1,545.2L210.1,545.2z" />
        <path fill="#512E17" d="M219.7,599.3c-0.7,0.5-1.3,0.3-1.9,0.5C218.4,599.3,218.9,598.8,219.7,599.3z" />
        <path fill="#D48615" d="M213.7,603.9c0.5,0,0.9,0,1.4,0c-0.1,0.2-0.1,0.5-0.2,0.7c-0.4-0.2-0.9,0.2-1.2-0.3
			C213.6,604.2,213.7,604.1,213.7,603.9z" />
        <path fill="#E39425" d="M210,603.7c-0.4,0-0.9,0-1.3,0c0-0.2,0-0.4,0-0.6c0.4,0,0.9,0,1.3,0C209.9,603.3,209.9,603.5,210,603.7z" />
        <path fill="#E39425" d="M218.9,603.9c-0.4,0-0.9,0-1.3,0.1c-0.1-0.2-0.1-0.5-0.1-0.7c0.4,0,0.9,0,1.3,0
			C218.9,603.5,218.9,603.7,218.9,603.9z" />
        <path fill="#512E17" d=" M194.8,573.9c0.2,0.1,0.3,0.2,0.1,0.5C194.7,574.2,194.7,574.1,194.8,573.9z" />
        <path fill="#774321" d="M229.7,571.9C229.7,571.9,229.7,571.9,229.7,571.9C229.7,571.9,229.7,571.9,229.7,571.9L229.7,571.9z" />
        <path fill="#764320" d="M200.2,568.8c0,0-0.1,0.1-0.1,0.1C200.1,568.8,200.1,568.8,200.2,568.8C200.1,568.7,200.2,568.8,200.2,568.8z
			" />
        <path fill="#764320" d="M210.1,545.2c0,0,0,0.1,0.1,0.1C210.1,545.3,210.1,545.3,210.1,545.2C210.1,545.2,210.1,545.2,210.1,545.2z" />
        <path fill="#040404" d="M220.7,561c0,1.8-1,3.3-2.2,3.3c-1.2,0-2.2-1.5-2.2-3.3c0-1.8,1-3.3,2.2-3.4
			C219.7,557.7,220.7,559.3,220.7,561z M218.3,560c-0.1-0.5-0.2-0.7-0.5-0.7c-0.3,0-0.4,0.3-0.4,0.8c0,0.4,0.2,0.7,0.5,0.7
			C218.1,560.8,218.3,560.5,218.3,560z" />
        <path fill="#040404" d="M213.7,564.4c-1.2,0-2.2-1.5-2.2-3.3c0-1.8,1-3.3,2.2-3.4c1.2,0,2.2,1.5,2.2,3.3
			C215.9,562.8,214.9,564.4,213.7,564.4z M213,560.8c0.3-0.1,0.5-0.3,0.4-0.8c0-0.4-0.2-0.7-0.5-0.7c-0.3,0-0.5,0.3-0.5,0.7
			C212.5,560.5,212.7,560.8,213,560.8z" />
        <!--<path fill-rule="evenodd" clip-rule="evenodd" fill="#FFFFFF" d="M218.3,560c0,0.5-0.2,0.8-0.5,0.8c-0.3,0-0.4-0.3-0.5-0.7c0-0.4,0.1-0.7,0.4-0.8
			C218.1,559.3,218.3,559.5,218.3,560z" />
                    <path fill-rule="evenodd" clip-rule="evenodd" fill="#FFFFFF" d="M213,560.8c-0.3,0-0.5-0.3-0.5-0.8c0-0.4,0.2-0.7,0.5-0.7c0.3,0,0.5,0.2,0.5,0.7
			C213.5,560.5,213.3,560.7,213,560.8z" />
                </g>-->
      </g>
      <g id="stopwatch" fill="#FCFAFA" transform="translate(-1071, -628)">
        <path class="st59" d="M 1077.1 607.4 c 0.7 0 1.5 0 2.2 0 c 0 0.1 0 0.1 0.1 0.1 c 0.3 0.1 0.7 0.2 0.9 0.4 c 0.6 0.4 0.7 1.2 0.3 1.8 c -0.2 0.3 -0.4 0.5 -0.7 0.6 c -0.1 0 -0.2 0 -0.2 0.2 c 0 0.3 -0.2 0.5 -0.4 0.6 c -0.1 0 -0.1 0.1 -0.1 0.2 c 0 0.2 0 0.4 0 0.6 c 0 0.1 0.1 0.2 0.2 0.2 c 0.7 0.1 1.4 0.3 2.1 0.5 c 0.6 0.2 1.1 0.5 1.7 0.8 c 0.1 0.1 0.2 0.1 0.2 -0.1 c 0 -0.2 0.1 -0.3 0.1 -0.4 c 0 -0.1 0.1 -0.1 0.2 -0.1 c 0.1 0 0.2 0 0.3 0.1 c 0.4 0.1 0.8 0.4 1.1 0.7 c 0.2 0.2 0.4 0.4 0.5 0.6 c 0 0.1 0 0.2 -0.1 0.3 c -0.2 0.1 -0.4 0.2 -0.6 0.3 c -0.1 0 -0.1 0.1 0 0.1 c 0.1 0.1 0.2 0.3 0.3 0.4 c 0.7 0.9 1.3 1.8 1.6 2.9 c 0.2 0.6 0.4 1.2 0.4 1.8 c 0 0 0 0.1 0.1 0.1 c 0 0.7 0 1.4 0 2.1 c -0.1 0 -0.1 0 -0.1 0.1 c 0 0.3 -0.1 0.6 -0.2 0.9 c -0.4 1.5 -1 2.8 -2.1 4 c -0.7 0.8 -1.6 1.5 -2.6 2 c -1 0.5 -2 0.9 -3.1 1 c 0 0 -0.1 0 -0.1 0.1 c -0.7 0 -1.4 0 -2.1 0 c 0 -0.1 0 -0.1 -0.1 -0.1 c -0.2 0 -0.4 0 -0.5 -0.1 c -1.6 -0.3 -3.1 -1 -4.4 -2.1 c -0.9 -0.8 -1.5 -1.6 -2.1 -2.7 c -0.5 -1 -0.8 -2 -0.9 -3.1 c 0 0 0 -0.1 -0.1 -0.1 c 0 -0.7 0 -1.4 0 -2.1 c 0.1 0 0.1 0 0.1 -0.1 c 0.1 -0.6 0.2 -1.1 0.4 -1.7 c 0.5 -1.6 1.4 -2.9 2.6 -4 c 0.6 -0.5 1.2 -1 1.9 -1.3 c 0.9 -0.5 1.9 -0.8 3 -0.9 c 0.1 0 0.2 -0.1 0.2 -0.2 c 0 -0.2 0 -0.3 0 -0.5 c 0 -0.1 0 -0.2 -0.1 -0.2 c -0.2 -0.2 -0.4 -0.4 -0.4 -0.7 c 0 -0.1 0 -0.1 -0.1 -0.1 c -0.2 -0.1 -0.4 -0.3 -0.6 -0.4 c -0.4 -0.4 -0.4 -1.1 -0.1 -1.5 c 0.3 -0.4 0.8 -0.7 1.3 -0.8 C 1077 607.5 1077.1 607.5 1077.1 607.4 Z M 1070.5 621 c 0 1.9 0.7 3.9 2 5.3 c 1.7 1.8 3.7 2.6 6.1 2.5 c 1.7 -0.1 3.3 -0.8 4.6 -2 c 1.5 -1.4 2.4 -3.2 2.5 -5.3 c 0.2 -4.4 -3.2 -7.9 -7.5 -8 c -2 0 -3.8 0.7 -5.3 2 C 1071.4 617 1070.6 618.8 1070.5 621 Z M 1078.1 608.1 c -0.1 0 -0.4 0 -0.6 0 c -0.4 0 -0.7 0.1 -1 0.3 c -0.3 0.2 -0.3 0.7 0 1 c 0.1 0.1 0.2 0.1 0.3 0.2 c 0.1 0 0.1 0 0.2 0 c 0.1 -0.1 0.3 -0.2 0.5 -0.2 c 0.5 0 1 0 1.5 0 c 0.2 0 0.3 0 0.4 0.1 c 0.2 0.2 0.3 0.1 0.5 0 c 0.1 0 0.1 -0.1 0.2 -0.1 c 0.3 -0.3 0.3 -0.7 0 -1 c -0.1 -0.1 -0.2 -0.2 -0.4 -0.2 C 1079.1 608.1 1078.7 608.1 1078.1 608.1 Z" />
        <path class="st59" d="M 1083.4 616.8 c -0.3 0.3 -0.6 0.5 -0.8 0.8 c -1.8 1.5 -3.6 3 -5.4 4.5 c -0.1 0.1 -0.1 0.1 -0.2 0 c 0 0 0 0 -0.1 -0.1 c -0.1 -0.1 -0.1 -0.2 0 -0.2 c 0.8 -0.7 1.6 -1.3 2.5 -2 c 1.2 -1 2.4 -1.9 3.6 -2.8 C 1083.2 616.9 1083.3 616.8 1083.4 616.8 C 1083.4 616.7 1083.4 616.8 1083.4 616.8 Z" />
        <path class="st59" d="M 1077.7 614.8 c 0 -0.2 0 -0.3 0 -0.5 c 0 -0.3 0.2 -0.4 0.4 -0.4 c 0.3 0 0.5 0.1 0.5 0.4 c 0 0.3 0 0.7 0 1 c 0 0.3 -0.2 0.5 -0.5 0.5 c -0.3 0 -0.4 -0.1 -0.4 -0.4 C 1077.7 615.1 1077.7 615 1077.7 614.8 C 1077.7 614.8 1077.7 614.8 1077.7 614.8 Z" />
        <path class="st59" d="M 1084 620.6 c 0.1 0 0.3 0 0.4 0 c 0.4 0 0.5 0.1 0.5 0.5 c 0 0.1 0 0.1 0 0.2 c -0.1 0.1 -0.2 0.2 -0.4 0.2 c -0.3 0 -0.7 0 -1 0 c -0.3 0 -0.4 -0.2 -0.4 -0.5 c 0 -0.3 0.1 -0.4 0.4 -0.4 C 1083.7 620.6 1083.8 620.6 1084 620.6 Z" />
        <path class="st59" d="M 1071.9 621.5 c -0.2 0 -0.3 0 -0.5 0 c -0.3 0 -0.4 -0.2 -0.4 -0.5 c 0 -0.3 0.1 -0.4 0.4 -0.4 c 0.3 0 0.7 0 1 0 c 0.3 0 0.4 0.1 0.4 0.4 c 0 0.3 -0.1 0.4 -0.4 0.4 C 1072.3 621.5 1072.1 621.5 1071.9 621.5 Z" />
        <path class="st59" d="M 1078.6 627.1 c 0 0.2 0 0.4 0 0.5 c 0 0.2 -0.1 0.4 -0.4 0.4 c -0.1 0 -0.1 0 -0.2 0 c -0.2 0 -0.3 -0.1 -0.3 -0.4 c 0 -0.3 0 -0.7 0 -1 c 0 -0.3 0.2 -0.4 0.5 -0.4 c 0.3 0 0.4 0.1 0.4 0.4 C 1078.6 626.8 1078.6 626.9 1078.6 627.1 Z" />
        <path class="st59" d="M 1078.7 615.4 c 0.1 0 0.1 0 0.1 -0.1 c 0 -0.1 0 -0.1 -0.1 -0.1 c 0.8 0 1.5 0.2 2.1 0.6 c 0.1 0.1 0.2 0.1 0.2 -0.1 c 0 -0.1 0.1 -0.2 0.2 -0.3 c 0 -0.1 0.1 -0.1 0.2 -0.1 c 0.1 0.1 0.1 0.1 0 0.2 c -0.1 0.1 -0.1 0.2 -0.2 0.3 c -0.1 0.1 0 0.1 0 0.2 c 0.3 0.2 0.7 0.5 1 0.8 c 0.1 0.1 0.2 0.2 0.1 0.3 c -0.1 0.1 -0.2 0 -0.3 0 c -0.8 -0.8 -1.8 -1.3 -3 -1.5 C 1079 615.5 1078.8 615.4 1078.7 615.4 Z" />
        <path class="st59" d="M 1078.8 616 c 0.6 0 1.1 0.2 1.6 0.5 c 0.4 0.2 0.8 0.5 1.1 0.8 c 0.1 0.1 0.2 0.2 0.1 0.3 c -0.1 0.1 -0.2 0 -0.3 -0.1 c -0.6 -0.6 -1.4 -1 -2.2 -1.2 c -0.1 0 -0.1 0 -0.2 0 c -0.1 0 -0.1 0 -0.1 -0.1 C 1079 616.2 1078.9 616.1 1078.8 616 Z" />
        <path class="st59" d="M 1078.9 617.2 c 0.1 0 0.1 0 0.1 -0.1 c 0 -0.1 0 -0.1 -0.1 -0.1 c 0.3 0 0.5 0.1 0.7 0.2 c 0.5 0.2 0.9 0.4 1.3 0.8 c 0.1 0.1 0.1 0.2 0.1 0.3 c -0.1 0.1 -0.2 0.1 -0.2 0 C 1080.2 617.7 1079.6 617.4 1078.9 617.2 C 1078.9 617.2 1078.9 617.2 1078.9 617.2 Z" />
        <path class="st59" d="M 1073.2 623.9 c 0 0.1 0 0.1 -0.1 0.1 c -0.1 0.1 -0.3 0.2 -0.4 0.2 c -0.1 0 -0.1 0 -0.2 0 c 0 -0.1 0 -0.1 0.1 -0.2 c 0.1 -0.1 0.3 -0.2 0.4 -0.3 C 1073.1 623.7 1073.2 623.8 1073.2 623.9 Z" />
        <path class="st59" d="M 1083.8 624.1 c 0 0.1 -0.1 0.2 -0.2 0.1 c -0.2 -0.1 -0.4 -0.2 -0.5 -0.3 c 0 0 0 -0.1 0 -0.1 c 0 0 0.1 -0.1 0.1 -0.1 C 1083.4 623.9 1083.6 624 1083.8 624.1 C 1083.7 624.1 1083.8 624.1 1083.8 624.1 Z" />
        <path class="st59" d="M 1072.6 617.7 c 0.1 0 0.1 0 0.2 0.1 c 0.1 0.1 0.2 0.1 0.3 0.2 c 0.1 0 0.1 0.1 0.1 0.2 c 0 0.1 -0.1 0.1 -0.2 0.1 c -0.2 -0.1 -0.3 -0.2 -0.5 -0.3 C 1072.5 617.9 1072.5 617.8 1072.6 617.7 C 1072.6 617.7 1072.6 617.7 1072.6 617.7 Z" />
        <path class="st59" d="M 1074.9 615.3 c 0.1 0 0.1 0 0.1 0.1 c 0.1 0.1 0.2 0.3 0.2 0.4 c 0 0.1 0 0.2 0 0.2 c -0.1 0 -0.1 0 -0.2 -0.1 c -0.1 -0.1 -0.2 -0.3 -0.2 -0.4 C 1074.8 615.4 1074.8 615.3 1074.9 615.3 Z" />
        <path class="st59" d="M 1074.9 626.7 c -0.1 0 -0.2 -0.1 -0.1 -0.2 c 0.1 -0.2 0.2 -0.3 0.3 -0.5 c 0 -0.1 0.1 -0.1 0.2 0 c 0.1 0 0.1 0.1 0.1 0.1 C 1075.2 626.3 1075.1 626.5 1074.9 626.7 C 1075 626.7 1075 626.7 1074.9 626.7 Z" />
        <path class="st59" d="M 1081.1 626 c 0.1 0 0.1 0 0.1 0.1 c 0.1 0.1 0.2 0.3 0.2 0.4 c 0 0.1 0.1 0.1 0 0.2 c -0.1 0.1 -0.1 0 -0.2 -0.1 c -0.1 -0.1 -0.2 -0.3 -0.2 -0.4 C 1080.9 626.1 1081 626 1081.1 626 Z" />
        <path class="st59" d="M 1083.8 617.8 c 0 0.1 0 0.1 -0.1 0.1 c -0.1 0.1 -0.3 0.2 -0.4 0.3 c -0.1 0 -0.1 0 -0.2 -0.1 c 0 -0.1 0 -0.1 0.1 -0.2 c 0.1 -0.1 0.3 -0.2 0.4 -0.2 C 1083.6 617.7 1083.7 617.6 1083.8 617.8 C 1083.7 617.7 1083.8 617.8 1083.8 617.8 Z" />
      </g>
    </g>
  </defs>

  <circle cx="50" cy="50" r="20" stroke="black" stroke-width="3" fill="red" />
  <text x="100" y="100" fill="red">The Forest Chart!</text>
</svg>
