<svg id="giroItaliaChart">
  <defs>
    <linearGradient id="frontProfileGradient"
                        x1="0%" y1="0%"
                        x2="0%" y2="100%"
                        spreadMethod="pad">
      <stop offset="10%" stop-color="#FCFDED" stop-opacity="1"/>
      <stop offset="30%" stop-color="#D7E8BE" stop-opacity="1"/>

      <stop offset="70%" stop-color="#EDCAA0" stop-opacity="1"/>
      <stop offset="90%" stop-color="#F8FAF9v" stop-opacity="1"/>
    </linearGradient>

    <linearGradient xmlns="http://www.w3.org/2000/svg" id="linearGradient4307">
      <stop id="stop4309" offset="0" style="stop-color:#f8fcf9;stop-opacity:1"/>
      <stop style="stop-color:#ebf2dc;stop-opacity:1" offset="0.6405893" id="stop4317"/>
      <stop style="stop-color:#b2d154;stop-opacity:1" offset="0.8485291" id="stop4315"/>
      <stop id="stop4311" offset="1" style="stop-color:#73bf38;stop-opacity:1"/>
    </linearGradient>

    <radialGradient xmlns="http://www.w3.org/2000/svg" gradientTransform="matrix(14.052967,0,0,14.052967,-2694.8662,-2902.4739)" gradientUnits="userSpaceOnUse" r="15.952882" fy="224.40172" fx="209.70244" cy="224.40172" cx="209.70244" id="radialGradient4313" xmlns:xlink="http://www.w3.org/1999/xlink" xlink:href="#linearGradient4307"/>

    <g id="start_icon" transform="translate(-50, -88) scale(0.2, 0.2) skewY(-8)">
      <rect ry="103.11139" y="33.877258" x="34.916477" height="434.31769" width="434.31769" id="rect4305" style="opacity:1;fill:url(#radialGradient4313);fill-opacity:1;fill-rule:evenodd;stroke:#211719;stroke-width:14.05296707;stroke-linecap:round;stroke-linejoin:round;stroke-miterlimit:4;stroke-dasharray:none;stroke-dashoffset:0.2;stroke-opacity:1"/>
      <path style="fill:#ffffff;fill-rule:evenodd;stroke:#211719;stroke-width:2.81059361;stroke-linecap:round;stroke-linejoin:round;stroke-miterlimit:4;stroke-dasharray:none;stroke-opacity:1" d="m 219.50464,136.93825 c -21.25034,17.03852 -44.11972,24.48266 -62.18874,41.35269 -6.07819,6.43471 -7.03436,10.35998 -4.27618,13.61774 6.60265,7.79842 34.48921,7.78816 64.35472,0.5832 -0.17566,-14.90584 1.57436,-18.24764 2.1102,-55.28746 z" id="path4294"/>
      <path id="rect4296" d="m 230.26921,113.06521 0,235.71323 9.77131,0 0,-235.71323 -9.77131,0 z" style="opacity:1;fill:#211719;fill-opacity:1;fill-rule:evenodd;stroke:none;stroke-width:0.2;stroke-linecap:round;stroke-linejoin:round;stroke-miterlimit:4;stroke-dasharray:none;stroke-dashoffset:0.2;stroke-opacity:1"/>
      <path style="fill:#ffffff;fill-rule:evenodd;stroke:none;stroke-width:0.2;stroke-linecap:butt;stroke-linejoin:miter;stroke-miterlimit:4;stroke-dasharray:none;stroke-opacity:1" d="m 288.26215,170.94095 c 8.00134,-2.74047 22.12865,-9.36813 27.4387,-10.17716 15.00492,-2.28613 44.74395,-3.44157 51.4281,0.45532 6.04334,3.52322 7.35926,13.58318 8.38484,24.62291 l 3.71139,39.95062 c 3.08252,10.60422 3.09671,21.24724 2.86301,30.81759 l 2.69522,29.01179 c -28.73466,5.61922 -60.26615,4.71266 -91.95053,3.4493 -12.22721,-0.33024 -20.2173,2.05525 -26.47172,6.70186 -7.88203,4.85165 -58.36717,7.51314 -61.2788,3.38424 L 150.01819,188.62113 c 0.70265,6.4787 13.07882,5.46042 39.86377,4.82916 27.86381,-0.65627 65.06637,-11.09917 98.38019,-22.50934 z" id="path4290"/>
      <path id="path4288" d="m 216.61563,177.68118 -29.74803,15.80846 -15.73258,0.71811 -3.52364,-24.45638 c 13.08275,-8.52088 42.49491,-24.34199 50.72602,-31.93902 -0.49607,13.08275 -0.76589,26.27567 -1.72177,39.86883 z" style="fill:#029847;fill-opacity:1;fill-rule:evenodd;stroke:none;stroke-width:0.25;stroke-linecap:butt;stroke-linejoin:miter;stroke-miterlimit:4;stroke-dasharray:none;stroke-opacity:1"/>
      <path id="path4266" d="m 325.38419,228.8552 -3.38339,-32.70702 53.51299,-0.70686 4.91404,30.34134 z" style="fill:#029847;fill-opacity:1;fill-rule:evenodd;stroke:none;stroke-width:1px;stroke-linecap:butt;stroke-linejoin:miter;stroke-opacity:1"/>
      <path style="fill:#029847;fill-opacity:1;fill-rule:evenodd;stroke:none;stroke-width:1px;stroke-linecap:butt;stroke-linejoin:miter;stroke-opacity:1" d="m 288.54166,204.41878 -4.51128,-31.57913 33.26548,-12.07586 4.70494,35.38439 z" id="path4268"/>
      <path id="path4270" d="m 325.38419,228.8552 -34.58674,5.63917 1.88042,27.4439 c 7.99024,-0.47218 21.38455,-2.35598 34.21097,-3.75945 z" style="fill:#029847;fill-opacity:1;fill-rule:evenodd;stroke:none;stroke-width:1px;stroke-linecap:butt;stroke-linejoin:miter;stroke-opacity:1"/>
      <path id="path4272" d="m 326.88884,258.17882 55.63893,-1.12845 2.25564,28.57165 c -17.66936,3.68089 -38.53422,5.65421 -56.20358,4.3234 z" style="fill:#029847;fill-opacity:1;fill-rule:evenodd;stroke:none;stroke-width:1px;stroke-linecap:butt;stroke-linejoin:miter;stroke-opacity:1"/>
      <path id="path4274" d="m 292.67787,261.93827 c -11.76247,2.83224 -23.15957,6.21858 -31.95588,12.03019 l 6.01509,22.93261 c 0,0 6.85068,-5.10614 11.38838,-6.2998 4.49892,-1.18326 14.70742,-1.52995 14.70742,-1.52995 z" style="fill:#029847;fill-opacity:1;fill-rule:evenodd;stroke:none;stroke-width:1px;stroke-linecap:butt;stroke-linejoin:miter;stroke-opacity:1"/>
      <path id="path4276" d="m 288.54166,204.41878 2.25579,30.07559 c -10.95275,5.38735 -24.1905,9.98337 -36.09069,16.54147 l -6.76693,-34.21082 c 8.53409,-2.75579 25.11462,-7.95174 40.60183,-12.40624 z" style="fill:#029847;fill-opacity:1;fill-rule:evenodd;stroke:none;stroke-width:1px;stroke-linecap:butt;stroke-linejoin:miter;stroke-opacity:1"/>
      <path id="path4278" d="m 260.72199,273.96846 c -14.16343,2.87847 -28.73214,5.21646 -45.86523,4.1355 l -12.03019,-20.30105 c 22.03449,0.55368 38.7668,-4.60558 51.88019,-6.76707 z" style="fill:#029847;fill-opacity:1;fill-rule:evenodd;stroke:none;stroke-width:1px;stroke-linecap:butt;stroke-linejoin:miter;stroke-opacity:1"/>
      <path id="path4280" d="m 214.85676,278.10396 9.61883,22.14284 c -6.23825,-0.59303 -13.03497,2.16528 -18.6414,-2.21784 l -10.39751,-19.3328 z" style="fill:#029847;fill-opacity:1;fill-rule:evenodd;stroke:none;stroke-width:1px;stroke-linecap:butt;stroke-linejoin:miter;stroke-opacity:1"/>
      <path id="path4282" d="m 202.82657,257.80291 -18.42119,1.87972 -16.54161,-34.21096 15.41372,0.75183 z" style="fill:#029847;fill-opacity:1;fill-rule:evenodd;stroke:none;stroke-width:1px;stroke-linecap:butt;stroke-linejoin:miter;stroke-opacity:1"/>
      <path id="path4284" d="m 247.93983,216.82502 c -19.01198,4.65813 -40.63809,7.74782 -64.66234,9.39862 l -17.87074,-31.31338 c 22.04841,0.81226 46.97177,-2.30891 75.23453,-9.15959 z" style="fill:#029847;fill-opacity:1;fill-rule:evenodd;stroke:none;stroke-width:1px;stroke-linecap:butt;stroke-linejoin:miter;stroke-opacity:1"/>
      <path id="path4286" d="m 231.80042,125.35776 c -22.81823,25.20372 -55.74517,32.94662 -76.92117,56.26977 -4.88944,6.54784 -4.00565,9.93137 1.62649,11.0944 16.38141,3.38269 78.07815,0.4511 131.75641,-21.78098 7.81387,-3.2364 22.18528,-9.0577 27.4387,-10.17716 8.60997,-1.83475 40.95035,-4.73725 52.25259,0.82491 3.3328,5.49626 6.58325,13.73622 7.56035,24.25402 l 3.50636,37.7436 c 1.64321,5.84786 4.10094,24.33004 3.13058,33.69789 l 2.63268,28.33851 c -28.73466,5.61922 -60.26615,4.71267 -91.95053,3.4493 -12.22721,-0.33024 -20.2173,2.05525 -26.47172,6.70186 -7.88203,4.85165 -58.36717,7.51314 -61.2788,3.38424 L 152.60113,191.28557" style="fill:none;fill-rule:evenodd;stroke:#211719;stroke-width:3.51324177;stroke-linecap:round;stroke-linejoin:round;stroke-miterlimit:4;stroke-dasharray:none;stroke-opacity:1"/>
      <circle r="13.5684" cy="98.966568" cx="235.72171" id="path4299" style="opacity:1;fill:#029847;fill-opacity:1;fill-rule:evenodd;stroke:#211719;stroke-width:5.82981014;stroke-linecap:round;stroke-linejoin:round;stroke-miterlimit:4;stroke-dasharray:none;stroke-dashoffset:0.2;stroke-opacity:1"/>
      <text transform="scale(0.87086553,1.1482829)" id="text4301" y="379.83261" x="165.75015" style="font-style:normal;font-variant:normal;font-weight:normal;font-stretch:normal;font-size:76.60378265px;line-height:125%;font-family:sans-serif;-inkscape-font-specification:'sans-serif, Normal';text-align:start;letter-spacing:0px;word-spacing:0px;writing-mode:lr-tb;text-anchor:start;fill:#000000;fill-opacity:1;stroke:none;stroke-width:1px;stroke-linecap:butt;stroke-linejoin:miter;stroke-opacity:1" xml:space="preserve"><tspan y="379.83261" x="165.75015" id="tspan4303">START</tspan></text>
    </g>
    <g id="finish_icon" transform="translate(-50, -88) scale(0.2, 0.2) skewY(-8)">
      <rect ry="103.11139" y="33.877258" x="34.916477" height="434.31769" width="434.31769" id="rect4305" style="opacity:1;fill:url(#radialGradient4313);fill-opacity:1;fill-rule:evenodd;stroke:#211719;stroke-width:14.05296707;stroke-linecap:round;stroke-linejoin:round;stroke-miterlimit:4;stroke-dasharray:none;stroke-dashoffset:0.2;stroke-opacity:1"/>
      <path id="path4357" d="m 60.84046,224.3482 c 28.1976,-37.18201 28.24782,-85.18994 27.39397,-133.545587 101.16301,37.540867 212.29509,39.499417 329.43679,1.712123 -4.15409,32.192544 4.39718,86.176854 24.1166,129.265284 -134.81724,-4.41053 -263.24928,3.55655 -380.94736,2.56818 z" style="fill:#f01922;fill-opacity:1;fill-rule:evenodd;stroke:none;stroke-width:1px;stroke-linecap:butt;stroke-linejoin:miter;stroke-opacity:1"/>
      <text transform="scale(0.91750265,1.0899151)" id="text4301" y="187.86946" x="131.78015" style="font-style:normal;font-variant:normal;font-weight:normal;font-stretch:normal;font-size:90.98636627px;line-height:125%;font-family:sans-serif;-inkscape-font-specification:'sans-serif, Normal';text-align:start;letter-spacing:0px;word-spacing:0px;writing-mode:lr-tb;text-anchor:start;fill:#ffffff;fill-opacity:1;stroke:none;stroke-width:1px;stroke-linecap:butt;stroke-linejoin:miter;stroke-opacity:1;" xml:space="preserve"><tspan y="187.86946" x="131.78015" id="tspan4303">FINISH</tspan></text>
      <ellipse ry="36.168598" rx="44.943226" cy="314.87671" cx="251.74219" id="path4359" style="opacity:1;fill:#f01922;fill-opacity:1;fill-rule:evenodd;stroke:none;stroke-width:0.25;stroke-linecap:round;stroke-linejoin:round;stroke-miterlimit:4;stroke-dasharray:none;stroke-dashoffset:0.2;stroke-opacity:1"/>
      <path style="fill:#f01922;fill-opacity:1;fill-rule:evenodd;stroke:none;stroke-width:1px;stroke-linecap:butt;stroke-linejoin:miter;stroke-opacity:1" d="M 188.13341,323.71913 191.76537,250 c 0.98047,-19.90097 -23.01338,-22.07164 -24.21307,-3.02663 l -4.84262,76.87651 c -0.60564,18.16004 6.46721,30.24019 17.83564,38.56362 l -16.94243,45.64353 c 56.6679,2.30152 115.40015,2.53869 176.90826,0 L 323.56872,362.4135 c 11.36843,-8.32343 18.44128,-20.40358 17.83564,-38.56362 l -4.84262,-76.87651 C 335.36205,227.92836 311.3682,230.09903 312.34867,250 l 3.63196,73.71913 c 0.98235,19.93903 -33.25127,45.96026 -63.92361,45.53812 -30.67234,0.42214 -64.90596,-25.59909 -63.92361,-45.53812 z" id="path4363"/>
    </g>

    <g id="highest_point" transform="translate(-50, -88) scale(0.1, 0.1) skewY(-8)">
      <rect ry="103.11139" y="33.877258" x="34.916477" height="434.31769" width="434.31769" id="rect4305" style="opacity:1;fill:url(#radialGradient4313);fill-opacity:1;fill-rule:evenodd;stroke:#211719;stroke-width:14.05296707;stroke-linecap:round;stroke-linejoin:round;stroke-miterlimit:4;stroke-dasharray:none;stroke-dashoffset:0.2;stroke-opacity:1"/>
      <path transform="translate(130, 100) scale(0.3, 0.3)" style="opacity:1;fill:#000000;fill-opacity:1;fill-rule:evenodd;stroke:none;stroke-width:1;stroke-linecap:butt;stroke-linejoin:miter;stroke-miterlimit:4;stroke-dasharray:none;stroke-dashoffset:0.2;stroke-opacity:1" d="m -71.541241,106.09187 0,62.91936 880.906051,0 0,-62.91936 -880.906051,0 z m 448.470401,200.23701 -255.69472,253.75765 80.06596,80.10193 109.37343,-109.37343 0,456.93621 132.5107,0 0,-456.93621 109.33762,109.37343 80.06597,-80.10193 -255.65896,-253.75765 z"/>
    </g>

  </defs>

  <rect width="100%" height="100%" fill="#cccccc"></rect>
  <text>Loading...</text>

</svg>