<svg id="simplySunshineChart" version="1.0" xmlns="http://www.w3.org/2000/svg"
     xmlns:xlink="http://www.w3.org/1999/xlink" background-color="#95D5F5">

  <defs>
    <g id="clouds" fill="#7ACBF7" opacity="0.75" transform="translate(-250, -98) scale(2, 2)">
      <path id="XMLID_15_" class="st17"
            d="M176,93.7h-87c-6.1,0-11.1-5-11.1-11.1v-1c0-6.1,5-11.1,11.1-11.1h87c6.1,0,11.1,5,11.1,11.1   v1C187.1,88.7,182.1,93.7,176,93.7z" />
      <path id="XMLID_151_" class="st17"
            d="M170.4,68.2h-44.6c-5.1,0-9.3-4.2-9.3-9.3V58c0-5.1,4.2-9.3,9.3-9.3h44.6   c5.1,0,9.3,4.2,9.3,9.3v0.9C179.7,64,175.5,68.2,170.4,68.2z" />
      <path id="XMLID_16_" class="st17"
            d="M126.5,68c0.7,0,1.2,0.5,1.3,1.2c0.1,0.7-0.4,1.4-1.2,1.5c15.4,0,30.7,0,46.1,0   c-0.7,0-1.3-0.5-1.4-1.2c-0.1-0.7,0.4-1.4,1.3-1.5C157.1,67.9,141.8,67.9,126.5,68z" />
    </g>
    <g id="sun" fill="#E4CE63" transform="translate(-195, -65) scale(2, 2)">
      <circle id="XMLID_317_" class="st15" cx="177.4" cy="60.7" r="18.5" />
      <polygon id="XMLID_236_" class="st15" points="177.2,31.6 174.1,37.5 180.6,37.5  " />
      <polygon id="XMLID_237_" class="st15" points="177.6,89.8 180.6,84 174.1,84  " />
      <polygon id="XMLID_238_" class="st15" points="198.1,81.4 196.2,75.1 191.6,79.7  " />
      <polygon id="XMLID_240_" class="st15" points="156.9,40.3 158.8,46.6 163.4,42  " />
      <polygon id="XMLID_242_" class="st15" points="198.1,40.1 191.8,42.1 196.4,46.7  " />
      <polygon id="XMLID_243_" class="st15" points="157,81.5 163.3,79.6 158.7,74.9  " />
      <polygon id="XMLID_239_" class="st15" points="206.7,60.5 200.9,57.5 200.9,64  " />
      <polygon id="XMLID_241_" class="st15" points="148.3,60.9 154.1,64 154.1,57.5  " />
    </g>

    <g id="finish_flag" transform="translate(-1490, -250) scale(2, 2)" >
      <path d="M759.4,105.4c-1.7,0-3.2,0.5-4.7,1.2c-1.4,0.7-2.8,1.5-4.2,2.2c-1.3,0.7-2.6,1.2-4,1.5    c-0.8,0.1-1.5,0.2-2.3,0.1c-0.6,0-0.9-0.4-1.1-1.1c-0.3-1-0.5-1.9-0.8-2.9c-0.8-2.8-1.5-5.6-2.3-8.4c-0.2-0.7,0-0.9,0.6-0.8    c2.2,0.1,4.2-0.6,6.1-1.6c1.7-0.9,3.3-1.9,5.1-2.6c1.3-0.5,2.7-0.9,4.2-0.8c0.9,0,1.2,0.2,1.4,1c0.8,3,1.6,5.9,2.4,8.9    c0.2,0.8,0.5,1.7,0.7,2.5c0.1,0.5,0,0.7-0.6,0.7C759.8,105.4,759.6,105.4,759.4,105.4z M747.5,105c0.3,1,0.5,1.9,0.8,2.9    c0.1,0.2,0.1,0.3,0.4,0.2c1-0.5,2-1,2.9-1.6c0.2-0.1,0.2-0.2,0.1-0.4c-0.2-0.9-0.5-1.8-0.7-2.7c-0.1-0.3-0.2-0.3-0.4-0.1    c-0.7,0.4-1.5,0.8-2.2,1.2C748.1,104.7,747.7,104.8,747.5,105c-0.3-1.1-0.6-2.3-0.9-3.5c0-0.2-0.1-0.2-0.3-0.2    c-1,0.4-2.1,0.6-3.2,0.7c-0.2,0-0.2,0.1-0.2,0.3c0.3,1.1,0.6,2.1,0.9,3.2c0,0.2,0.1,0.2,0.3,0.2c0.5,0,0.9-0.1,1.4-0.2    C746.1,105.4,746.8,105.1,747.5,105z M753.4,97.7c-1.1,0.4-2.1,1-3.1,1.6c-0.1,0.1-0.2,0.2-0.3,0.1c-0.1,0-0.1-0.1-0.1-0.2    c-0.2-0.9-0.5-1.8-0.7-2.6c-0.1-0.2-0.1-0.3-0.3-0.2c-1,0.6-1.9,1.1-3,1.6c-0.2,0.1-0.2,0.2-0.2,0.4c0.3,0.9,0.5,1.8,0.7,2.7    c0.1,0.3,0.2,0.3,0.4,0.2c1-0.5,2-1.1,3-1.6c0.1,0,0.1-0.1,0.2-0.2c0,0,0,0.1,0,0.1c0.3,1.2,0.6,2.3,0.9,3.5    c0,0.1,0.1,0.1,0.2,0.1c1.1-0.6,2.2-1.2,3.3-1.8c0.3,1,0.5,2,0.8,3c0.1,0.2,0.2,0.3,0.4,0.2c1-0.3,1.9-0.6,3-0.6    c0.2,0,0.2-0.1,0.2-0.3c-0.2-0.7-0.4-1.4-0.6-2.1c-0.3-1.1-0.3-1-1.4-0.9c-0.8,0.1-1.6,0.4-2.4,0.6    C754,100.1,753.7,98.9,753.4,97.7c1.1-0.4,2.3-0.7,3.5-0.7c-0.3-1-0.6-2-0.8-3.1c0-0.2-0.2-0.2-0.3-0.2c-1.1,0.1-2.1,0.3-3.1,0.6    c-0.1,0-0.2,0.1-0.2,0.3C752.8,95.6,753.1,96.6,753.4,97.7z"/>
      <path d="M738.2,96.9c0.5,0,0.8,0.3,1,0.8c0.5,2,1,4.1,1.6,6.1c1.6,6.4,3.2,12.8,4.8,19.1c0.2,0.7,0,1.1-0.5,1.4    c-0.5,0.2-1.2,0-1.3-0.6c-0.2-0.8-0.4-1.5-0.6-2.3c-1.9-7.7-3.9-15.4-5.8-23.1C737,97.5,737.5,96.9,738.2,96.9z"/>
    </g>

    <g id="stopwatch" transform="translate(-1200, -330) scale(2, 2)" >
  		<path id="XMLID_255_" d="M589.7,161.3c-3,0-5.7-2.3-6.4-5.4c-0.7-3.6,1.7-7.2,5.3-7.8c0.1,0,0.2,0,0.4-0.1c0.1,0,0.1,0,0.1-0.1    c0-0.3,0-0.6,0-0.9c0-0.4,0.2-0.5,0.5-0.5c0.2,0,0.5,0,0.7,0c0.4,0,0.5,0.2,0.5,0.5c0,0.3,0,0.6,0,0.9c0,0.1,0,0.1,0.1,0.1    c0.5,0.1,0.9,0.2,1.4,0.4c0.1,0,0.1,0,0.1-0.1c0.1-0.2,0.2-0.4,0.3-0.5c0.2-0.3,0.4-0.4,0.7-0.2c0.2,0.1,0.4,0.2,0.6,0.4    c0.3,0.2,0.3,0.4,0.2,0.7c-0.1,0.2-0.2,0.3-0.3,0.5c-0.1,0.1-0.1,0.2,0,0.2c0.8,0.7,1.5,1.5,1.9,2.5c1.5,3.3,0,7.3-3.3,8.8    C591.8,161.1,590.8,161.3,589.7,161.3z M594.9,154.7c0-2.8-2.3-5-5-5c-2.8,0-5.1,2.3-5.1,5.1c0,2.8,2.3,5,5,5    C592.6,159.7,594.9,157.4,594.9,154.7z"/>
	  	<path id="XMLID_254_" d="M589.8,155.7c-0.6,0-1-0.5-1-1.1c0-0.6,0.5-1.1,1.1-1c0.2,0,0.3-0.1,0.5-0.2c0.4-0.5,0.7-0.9,1.1-1.4    c0,0,0.1-0.1,0.1-0.1c0.2-0.2,0.4-0.2,0.6-0.1c0.2,0.1,0.2,0.4,0.1,0.6c-0.1,0.2-0.3,0.4-0.5,0.6c-0.3,0.4-0.6,0.7-0.9,1.1    c-0.1,0.1-0.1,0.1,0,0.2C591.1,155,590.6,155.7,589.8,155.7z"/>
	</g>
    <radialGradient id="backgroundGradient" cx= "50%" cy= "50%" r= "75%" gradientUnits= "userSpaceOnUse" >
      <stop offset="0" style= "stop-color:#FFFFFF" />
      <stop offset="0.1591" style= "stop-color:#FFFFFF" />
      <stop offset="0.1688" style= "stop-color:#FFFFFF" />
      <stop offset="0.2968" style= "stop-color:#FBFDFF" />
      <stop offset="0.4326" style= "stop-color:#EEF8FD" />
      <stop offset="0.5719" style= "stop-color:#D9F0FB" />
      <stop offset="0.7136" style= "stop-color:#BBE4F9" />
      <stop offset="0.8568" style= "stop-color:#95D5F5" />
      <stop offset="1" style= "stop-color:#67C3F1" />
    </radialGradient>
  </defs>

</svg>
